G04 Layer: TopLayer*
G04 EasyEDA v6.4.20.6, 2021-08-23T14:22:53+08:00*
G04 d2134aeba8d541879ef023346c28b4ea,d2c6aa496c93417f82209b500ca1ce63,10*
G04 Gerber Generator version 0.2*
G04 Scale: 100 percent, Rotated: No, Reflected: No *
G04 Dimensions in millimeters *
G04 leading zeros omitted , absolute positions ,4 integer and 5 decimal *
%FSLAX45Y45*%
%MOMM*%

%ADD10C,0.2540*%
%ADD11C,0.6096*%
%ADD12C,1.5240*%

%LPD*%
D10*
X2552700Y4813300D02*
G01*
X2921000Y4813300D01*
X3048000Y4686300D01*
X2552700Y5067300D02*
G01*
X2921000Y5067300D01*
X3302000Y4686300D01*
X2552700Y5575300D02*
G01*
X2921000Y5575300D01*
X3810000Y4686300D01*
X2552700Y5829300D02*
G01*
X2921000Y5829300D01*
X4064000Y4686300D01*
X2552700Y6083300D02*
G01*
X2921000Y6083300D01*
X4318000Y4686300D01*
X2552700Y6337300D02*
G01*
X2921000Y6337300D01*
X4572000Y4686300D01*
X1028700Y4305300D02*
G01*
X495300Y4305300D01*
X254000Y4064000D01*
X7632700Y9029700D02*
G01*
X7632700Y8877300D01*
X7378700Y8623300D01*
X4305300Y8623300D01*
X4064000Y8382000D01*
X4064000Y8267700D01*
X4064000Y8267700D02*
G01*
X4064000Y7353300D01*
X3810000Y7099300D01*
X2552700Y7099300D01*
X7886700Y9029700D02*
G01*
X7886700Y9893300D01*
X7632700Y10147300D01*
X3810000Y10147300D01*
X3556000Y9893300D01*
X3556000Y8521700D01*
X3810000Y8267700D01*
X3810000Y8267700D02*
G01*
X3810000Y7861300D01*
X3568700Y7620000D01*
X2552700Y7620000D01*
X2298700Y7353300D01*
X2298700Y7099300D01*
X2552700Y6845300D01*
X2552700Y6591300D02*
G01*
X5080000Y6591300D01*
X5334000Y6845300D01*
X5334000Y7861300D01*
X5588000Y8115300D01*
X6464300Y8115300D01*
X6616700Y8267700D01*
X6870700Y8267700D02*
G01*
X6870700Y8140700D01*
X6604000Y7874000D01*
X5842000Y7874000D01*
X5588000Y7620000D01*
X5588000Y7353300D01*
X5842000Y7099300D01*
X6096000Y7099300D01*
X6616700Y9652000D02*
G01*
X5842000Y9652000D01*
X5588000Y9398000D01*
X5588000Y8890000D01*
X5588000Y9398000D02*
G01*
X5334000Y9398000D01*
X5080000Y9144000D01*
X5080000Y9029700D01*
X5080000Y6096000D02*
G01*
X4572000Y6096000D01*
X4318000Y5842000D02*
G01*
X5080000Y5842000D01*
X5334000Y6464300D02*
G01*
X5334000Y5588000D01*
X4318000Y8267700D02*
G01*
X4318000Y7112000D01*
X4572000Y6858000D01*
X4826000Y6858000D01*
X4572000Y8267700D02*
G01*
X4572000Y7366000D01*
X5080000Y6858000D01*
X7124700Y8267700D02*
G01*
X7124700Y7607300D01*
X7366000Y7366000D01*
X9385300Y7366000D01*
X9652000Y7099300D01*
X9652000Y6858000D01*
X9398000Y6604000D01*
X7620000Y6604000D01*
X7620000Y6604000D01*
X7620000Y7112000D02*
G01*
X7366000Y7112000D01*
X7112000Y6858000D01*
X7112000Y5842000D01*
X7366000Y5588000D01*
X7620000Y5588000D01*
X4572000Y2908300D02*
G01*
X4686300Y2794000D01*
X5080000Y2794000D01*
X5334000Y2540000D01*
X7632700Y2540000D01*
X8636000Y3543300D01*
X8636000Y3784600D01*
X7620000Y4813300D01*
X4064000Y3416300D02*
G01*
X4178300Y3302000D01*
X5067300Y3302000D01*
X5334000Y3035300D01*
X7607300Y3035300D01*
X8128000Y3556000D01*
X8128000Y3797300D01*
X7620000Y4318000D01*
X3810000Y3670300D02*
G01*
X3924300Y3556000D01*
X5067300Y3556000D01*
X5334000Y3289300D01*
X7607300Y3289300D01*
X7874000Y3556000D01*
X7874000Y3797300D01*
X7620000Y4064000D01*
X3556000Y3924300D02*
G01*
X3670300Y3810000D01*
X5080000Y3810000D01*
X5334000Y3556000D01*
X7378700Y3556000D01*
X7620000Y3810000D01*
X7620000Y5080000D02*
G01*
X7366000Y5080000D01*
X7112000Y4826000D01*
X7112000Y4038600D01*
X6858000Y3810000D01*
X6096000Y3810000D01*
X3048000Y4432300D02*
G01*
X3162300Y4318000D01*
X6096000Y4318000D01*
X6096000Y4305300D01*
X2552700Y4559300D02*
G01*
X6096000Y4572000D01*
X5588000Y4826000D02*
G01*
X6096000Y4826000D01*
X6096000Y4800600D01*
X5080000Y5080000D02*
G01*
X6096000Y5080000D01*
X4826000Y5334000D02*
G01*
X6096000Y5334000D01*
X6096000Y5334000D01*
X3810000Y9029700D02*
G01*
X3810000Y9652000D01*
X4064000Y9906000D01*
X6858000Y9906000D01*
X7112000Y9652000D01*
X7620000Y9652000D01*
X8128000Y9652000D02*
G01*
X8128000Y9657079D01*
X8383777Y9912858D01*
X7886700Y8267700D02*
G01*
X7886700Y8115300D01*
X8128000Y7874000D01*
X8394700Y7874000D01*
X8636000Y8115300D01*
X8636000Y9664700D01*
X7874000Y10414000D01*
X1016000Y10414000D01*
X762000Y10160000D01*
X762000Y7861300D01*
X1016000Y7620000D01*
X1778000Y7620000D01*
X2032000Y7366000D01*
X2032000Y4572000D01*
X2286000Y4318000D01*
X2552700Y4318000D01*
X2552700Y5321300D02*
G01*
X2921000Y5321300D01*
X3556000Y4686300D01*
X3302000Y4191000D02*
G01*
X3429000Y4064000D01*
X6096000Y4064000D01*
X4318000Y3175000D02*
G01*
X4445000Y3048000D01*
X5080000Y3048000D01*
X5334000Y2794000D01*
X7620000Y2794000D01*
X8382000Y3556000D01*
X8382000Y3797300D01*
X7620000Y4572000D01*
X254000Y4064000D02*
G01*
X254000Y4064000D01*
X254000Y3302000D01*
X1282700Y2273300D01*
X9144000Y2273300D01*
X9652000Y2781300D01*
X9652000Y5334000D01*
X9410700Y5575300D01*
X7620000Y5588000D01*
D12*
G01*
X1028700Y7099300D03*
G01*
X1028700Y6845300D03*
G01*
X1028700Y6591300D03*
G01*
X1028700Y6337300D03*
G01*
X1028700Y6083300D03*
G01*
X1028700Y5829300D03*
G01*
X1028700Y5575300D03*
G01*
X1028700Y5321300D03*
G01*
X1028700Y5067300D03*
G01*
X1028700Y4813300D03*
G01*
X1028700Y4559300D03*
G01*
X1028700Y4305300D03*
G01*
X1028700Y4051300D03*
G01*
X1028700Y3797300D03*
G01*
X1028700Y3543300D03*
G01*
X2552700Y3543300D03*
G01*
X2552700Y3797300D03*
G01*
X2552700Y4051300D03*
G01*
X2552700Y4318000D03*
G01*
X2552700Y4559300D03*
G01*
X2552700Y4813300D03*
G01*
X2552700Y5067300D03*
G01*
X2552700Y5321300D03*
G01*
X2552700Y5575300D03*
G01*
X2552700Y5829300D03*
G01*
X2552700Y6083300D03*
G01*
X2552700Y6337300D03*
G01*
X2552700Y6591300D03*
G01*
X2552700Y6845300D03*
G01*
X2552700Y7099300D03*
G01*
X6362700Y8267700D03*
G01*
X6616700Y8267700D03*
G01*
X6870700Y8267700D03*
G01*
X7124700Y8267700D03*
G01*
X7378700Y8267700D03*
G01*
X7632700Y8267700D03*
G01*
X7886700Y8267700D03*
G01*
X7886700Y9029700D03*
G01*
X7632700Y9029700D03*
G01*
X7378700Y9029700D03*
G01*
X7124700Y9029700D03*
G01*
X6870700Y9029700D03*
G01*
X6616700Y9029700D03*
G01*
X6362700Y9029700D03*
G01*
X5334000Y9029700D03*
G01*
X5080000Y9029700D03*
G01*
X4826000Y9029700D03*
G01*
X4572000Y9029700D03*
G01*
X4318000Y9029700D03*
G01*
X4064000Y9029700D03*
G01*
X3810000Y9029700D03*
G01*
X3810000Y8267700D03*
G01*
X4064000Y8267700D03*
G01*
X4318000Y8267700D03*
G01*
X4572000Y8267700D03*
G01*
X4826000Y8267700D03*
G01*
X5080000Y8267700D03*
G01*
X5334000Y8267700D03*
G01*
X6096000Y6096000D03*
G01*
X6096000Y5842000D03*
G01*
X6096000Y5588000D03*
G01*
X6096000Y5334000D03*
G01*
X6096000Y5080000D03*
G01*
X6096000Y4813300D03*
G01*
X6096000Y4572000D03*
G01*
X6096000Y4318000D03*
G01*
X6096000Y4064000D03*
G01*
X6096000Y6350000D03*
G01*
X6096000Y6604000D03*
G01*
X6096000Y6858000D03*
G01*
X6096000Y7112000D03*
G01*
X6096000Y3810000D03*
G01*
X7620000Y3810000D03*
G01*
X7620000Y7112000D03*
G01*
X7620000Y6858000D03*
G01*
X7620000Y6604000D03*
G01*
X7620000Y6350000D03*
G01*
X7620000Y4064000D03*
G01*
X7620000Y4318000D03*
G01*
X7620000Y4572000D03*
G01*
X7620000Y4813300D03*
G01*
X7620000Y5080000D03*
G01*
X7620000Y5334000D03*
G01*
X7620000Y5588000D03*
G01*
X7620000Y5842000D03*
G01*
X7620000Y6096000D03*
G01*
X9398000Y7620000D03*
G01*
X9398000Y5334000D03*
G01*
X9144000Y7620000D03*
G01*
X9144000Y6083300D03*
G01*
X8890000Y7620000D03*
G01*
X8890000Y6337300D03*
G01*
X5588000Y6591300D03*
G01*
X5080000Y6858000D03*
G01*
X4826000Y6858000D03*
G01*
X4826000Y5334000D03*
G01*
X5080000Y5080000D03*
G01*
X5588000Y4826000D03*
D11*
G01*
X3048000Y4432300D03*
G01*
X3048000Y4686300D03*
G01*
X3302000Y4686300D03*
G01*
X3302000Y4191000D03*
G01*
X3556000Y4686300D03*
G01*
X3810000Y4686300D03*
G01*
X4064000Y4686300D03*
G01*
X4318000Y4686300D03*
G01*
X4572000Y4686300D03*
G01*
X3556000Y3924300D03*
G01*
X3810000Y3670300D03*
G01*
X4064000Y3416300D03*
G01*
X4318000Y3175000D03*
G01*
X4572000Y2908300D03*
G01*
X254000Y4064000D03*
G01*
X6616700Y9652000D03*
G01*
X5588000Y8890000D03*
G01*
X4572000Y6096000D03*
G01*
X5080000Y6096000D03*
G01*
X5080000Y5842000D03*
G01*
X4318000Y5842000D03*
G01*
X5334000Y6464300D03*
G01*
X5334000Y5588000D03*
G01*
X7620000Y9652000D03*
G01*
X8128000Y9652000D03*
M02*
