G04 Layer: TopSolderMaskLayer*
G04 EasyEDA v6.4.20.6, 2021-08-23T14:22:53+08:00*
G04 d2134aeba8d541879ef023346c28b4ea,d2c6aa496c93417f82209b500ca1ce63,10*
G04 Gerber Generator version 0.2*
G04 Scale: 100 percent, Rotated: No, Reflected: No *
G04 Dimensions in millimeters *
G04 leading zeros omitted , absolute positions ,4 integer and 5 decimal *
%FSLAX45Y45*%
%MOMM*%

%ADD15C,1.7272*%

%LPD*%
D15*
G01*
X1028700Y7099300D03*
G01*
X1028700Y6845300D03*
G01*
X1028700Y6591300D03*
G01*
X1028700Y6337300D03*
G01*
X1028700Y6083300D03*
G01*
X1028700Y5829300D03*
G01*
X1028700Y5575300D03*
G01*
X1028700Y5321300D03*
G01*
X1028700Y5067300D03*
G01*
X1028700Y4813300D03*
G01*
X1028700Y4559300D03*
G01*
X1028700Y4305300D03*
G01*
X1028700Y4051300D03*
G01*
X1028700Y3797300D03*
G01*
X1028700Y3543300D03*
G01*
X2552700Y3543300D03*
G01*
X2552700Y3797300D03*
G01*
X2552700Y4051300D03*
G01*
X2552700Y4318000D03*
G01*
X2552700Y4559300D03*
G01*
X2552700Y4813300D03*
G01*
X2552700Y5067300D03*
G01*
X2552700Y5321300D03*
G01*
X2552700Y5575300D03*
G01*
X2552700Y5829300D03*
G01*
X2552700Y6083300D03*
G01*
X2552700Y6337300D03*
G01*
X2552700Y6591300D03*
G01*
X2552700Y6845300D03*
G01*
X2552700Y7099300D03*
G01*
X6362700Y8267700D03*
G01*
X6616700Y8267700D03*
G01*
X6870700Y8267700D03*
G01*
X7124700Y8267700D03*
G01*
X7378700Y8267700D03*
G01*
X7632700Y8267700D03*
G01*
X7886700Y8267700D03*
G01*
X7886700Y9029700D03*
G01*
X7632700Y9029700D03*
G01*
X7378700Y9029700D03*
G01*
X7124700Y9029700D03*
G01*
X6870700Y9029700D03*
G01*
X6616700Y9029700D03*
G01*
X6362700Y9029700D03*
G01*
X5334000Y9029700D03*
G01*
X5080000Y9029700D03*
G01*
X4826000Y9029700D03*
G01*
X4572000Y9029700D03*
G01*
X4318000Y9029700D03*
G01*
X4064000Y9029700D03*
G01*
X3810000Y9029700D03*
G01*
X3810000Y8267700D03*
G01*
X4064000Y8267700D03*
G01*
X4318000Y8267700D03*
G01*
X4572000Y8267700D03*
G01*
X4826000Y8267700D03*
G01*
X5080000Y8267700D03*
G01*
X5334000Y8267700D03*
G01*
X6096000Y6096000D03*
G01*
X6096000Y5842000D03*
G01*
X6096000Y5588000D03*
G01*
X6096000Y5334000D03*
G01*
X6096000Y5080000D03*
G01*
X6096000Y4813300D03*
G01*
X6096000Y4572000D03*
G01*
X6096000Y4318000D03*
G01*
X6096000Y4064000D03*
G01*
X6096000Y6350000D03*
G01*
X6096000Y6604000D03*
G01*
X6096000Y6858000D03*
G01*
X6096000Y7112000D03*
G01*
X6096000Y3810000D03*
G01*
X7620000Y3810000D03*
G01*
X7620000Y7112000D03*
G01*
X7620000Y6858000D03*
G01*
X7620000Y6604000D03*
G01*
X7620000Y6350000D03*
G01*
X7620000Y4064000D03*
G01*
X7620000Y4318000D03*
G01*
X7620000Y4572000D03*
G01*
X7620000Y4813300D03*
G01*
X7620000Y5080000D03*
G01*
X7620000Y5334000D03*
G01*
X7620000Y5588000D03*
G01*
X7620000Y5842000D03*
G01*
X7620000Y6096000D03*
G01*
X9398000Y7620000D03*
G01*
X9398000Y5334000D03*
G01*
X9144000Y7620000D03*
G01*
X9144000Y6083300D03*
G01*
X8890000Y7620000D03*
G01*
X8890000Y6337300D03*
G01*
X5588000Y6591300D03*
G01*
X5080000Y6858000D03*
G01*
X4826000Y6858000D03*
G01*
X4826000Y5334000D03*
G01*
X5080000Y5080000D03*
G01*
X5588000Y4826000D03*
M02*
