M48
METRIC,LZ,000.000
;FILE_FORMAT=3:3
;TYPE=PLATED
;Layer: Drill PTH
;EasyEDA v6.4.20.6, 2021-08-23T14:22:53+08:00
;d2134aeba8d541879ef023346c28b4ea,d2c6aa496c93417f82209b500ca1ce63,10
;Gerber Generator version 0.2
;Holesize 1 = 0.305 mm
T01C0.305
;Holesize 2 = 0.915 mm
T02C0.915
%
G05
G90
T01
X030480Y044323
X030480Y046863
X033020Y046863
X033020Y041910
X035560Y046863
X038100Y046863
X040640Y046863
X043180Y046863
X045720Y046863
X035560Y039243
X038100Y036703
X040640Y034163
X043180Y031750
X045720Y029083
X002540Y040640
X066167Y096520
X055880Y088900
X045720Y060960
X050800Y060960
X050800Y058420
X043180Y058420
X053340Y064643
X053340Y055880
X076200Y096520
X081280Y096520
T02
X010287Y070993
X010287Y068453
X010287Y065913
X010287Y063373
X010287Y060833
X010287Y058293
X010287Y055753
X010287Y053213
X010287Y050673
X010287Y048133
X010287Y045593
X010287Y043053
X010287Y040513
X010287Y037973
X010287Y035433
X025527Y035433
X025527Y037973
X025527Y040513
X025527Y043180
X025527Y045593
X025527Y048133
X025527Y050673
X025527Y053213
X025527Y055753
X025527Y058293
X025527Y060833
X025527Y063373
X025527Y065913
X025527Y068453
X025527Y070993
X063627Y082677
X066167Y082677
X068707Y082677
X071247Y082677
X073787Y082677
X076327Y082677
X078867Y082677
X078867Y090297
X076327Y090297
X073787Y090297
X071247Y090297
X068707Y090297
X066167Y090297
X063627Y090297
X053340Y090297
X050800Y090297
X048260Y090297
X045720Y090297
X043180Y090297
X040640Y090297
X038100Y090297
X038100Y082677
X040640Y082677
X043180Y082677
X045720Y082677
X048260Y082677
X050800Y082677
X053340Y082677
X060960Y060960
X060960Y058420
X060960Y055880
X060960Y053340
X060960Y050800
X060960Y048133
X060960Y045720
X060960Y043180
X060960Y040640
X060960Y063500
X060960Y066040
X060960Y068580
X060960Y071120
X060960Y038100
X076200Y038100
X076200Y071120
X076200Y068580
X076200Y066040
X076200Y063500
X076200Y040640
X076200Y043180
X076200Y045720
X076200Y048133
X076200Y050800
X076200Y053340
X076200Y055880
X076200Y058420
X076200Y060960
X093980Y076200
X093980Y053340
X091440Y076200
X091440Y060833
X088900Y076200
X088900Y063373
X055880Y065913
X050800Y068580
X048260Y068580
X048260Y053340
X050800Y050800
X055880Y048260
M30
