G04 Layer: TopSilkLayer*
G04 EasyEDA v6.4.20.6, 2021-08-23T14:22:53+08:00*
G04 d2134aeba8d541879ef023346c28b4ea,d2c6aa496c93417f82209b500ca1ce63,10*
G04 Gerber Generator version 0.2*
G04 Scale: 100 percent, Rotated: No, Reflected: No *
G04 Dimensions in millimeters *
G04 leading zeros omitted , absolute positions ,4 integer and 5 decimal *
%FSLAX45Y45*%
%MOMM*%

%ADD10C,0.2540*%
%ADD13C,0.2032*%
%ADD14C,0.1524*%

%LPD*%
D13*
X4775200Y7162037D02*
G01*
X4775200Y7066534D01*
X4775200Y7066534D02*
G01*
X4829809Y7066534D01*
X4859781Y7144004D02*
G01*
X4868925Y7148576D01*
X4882388Y7162037D01*
X4882388Y7066534D01*
X5003800Y7162037D02*
G01*
X5003800Y7066534D01*
X5003800Y7066534D02*
G01*
X5058409Y7066534D01*
X5092954Y7139431D02*
G01*
X5092954Y7144004D01*
X5097525Y7152894D01*
X5102097Y7157465D01*
X5110988Y7162037D01*
X5129275Y7162037D01*
X5138420Y7157465D01*
X5142991Y7152894D01*
X5147309Y7144004D01*
X5147309Y7134860D01*
X5142991Y7125715D01*
X5133847Y7112000D01*
X5088381Y7066534D01*
X5151881Y7066534D01*
X5270500Y6654037D02*
G01*
X5270500Y6558534D01*
X5270500Y6558534D02*
G01*
X5325109Y6558534D01*
X5364225Y6654037D02*
G01*
X5414009Y6654037D01*
X5386831Y6617715D01*
X5400547Y6617715D01*
X5409691Y6613144D01*
X5414009Y6608571D01*
X5418581Y6595110D01*
X5418581Y6585965D01*
X5414009Y6572250D01*
X5405120Y6563105D01*
X5391404Y6558534D01*
X5377688Y6558534D01*
X5364225Y6563105D01*
X5359654Y6567678D01*
X5355081Y6576821D01*
X8813800Y7898637D02*
G01*
X8813800Y7803134D01*
X8813800Y7803134D02*
G01*
X8868409Y7803134D01*
X8943847Y7898637D02*
G01*
X8898381Y7835137D01*
X8966454Y7835137D01*
X8943847Y7898637D02*
G01*
X8943847Y7803134D01*
X9080500Y7898637D02*
G01*
X9080500Y7803134D01*
X9080500Y7803134D02*
G01*
X9135109Y7803134D01*
X9219691Y7898637D02*
G01*
X9174225Y7898637D01*
X9169654Y7857744D01*
X9174225Y7862315D01*
X9187688Y7866887D01*
X9201404Y7866887D01*
X9215120Y7862315D01*
X9224009Y7853171D01*
X9228581Y7839710D01*
X9228581Y7830565D01*
X9224009Y7816850D01*
X9215120Y7807705D01*
X9201404Y7803134D01*
X9187688Y7803134D01*
X9174225Y7807705D01*
X9169654Y7812278D01*
X9165081Y7821421D01*
X9334500Y7898637D02*
G01*
X9334500Y7803134D01*
X9334500Y7803134D02*
G01*
X9389109Y7803134D01*
X9473691Y7885176D02*
G01*
X9469120Y7894065D01*
X9455404Y7898637D01*
X9446259Y7898637D01*
X9432797Y7894065D01*
X9423654Y7880604D01*
X9419081Y7857744D01*
X9419081Y7835137D01*
X9423654Y7816850D01*
X9432797Y7807705D01*
X9446259Y7803134D01*
X9450831Y7803134D01*
X9464547Y7807705D01*
X9473691Y7816850D01*
X9478009Y7830565D01*
X9478009Y7835137D01*
X9473691Y7848600D01*
X9464547Y7857744D01*
X9450831Y7862315D01*
X9446259Y7862315D01*
X9432797Y7857744D01*
X9423654Y7848600D01*
X9419081Y7835137D01*
X7200900Y2475737D02*
G01*
X7200900Y2380234D01*
X7200900Y2475737D02*
G01*
X7241793Y2475737D01*
X7255509Y2471165D01*
X7260081Y2466594D01*
X7264654Y2457704D01*
X7264654Y2443987D01*
X7260081Y2434844D01*
X7255509Y2430271D01*
X7241793Y2425700D01*
X7200900Y2425700D01*
X7362697Y2453131D02*
G01*
X7358125Y2462276D01*
X7348981Y2471165D01*
X7340091Y2475737D01*
X7321804Y2475737D01*
X7312659Y2471165D01*
X7303515Y2462276D01*
X7299197Y2453131D01*
X7294625Y2439415D01*
X7294625Y2416810D01*
X7299197Y2403094D01*
X7303515Y2393950D01*
X7312659Y2384805D01*
X7321804Y2380234D01*
X7340091Y2380234D01*
X7348981Y2384805D01*
X7358125Y2393950D01*
X7362697Y2403094D01*
X7392670Y2475737D02*
G01*
X7392670Y2380234D01*
X7392670Y2475737D02*
G01*
X7433563Y2475737D01*
X7447279Y2471165D01*
X7451852Y2466594D01*
X7456424Y2457704D01*
X7456424Y2448560D01*
X7451852Y2439415D01*
X7447279Y2434844D01*
X7433563Y2430271D01*
X7392670Y2430271D02*
G01*
X7433563Y2430271D01*
X7447279Y2425700D01*
X7451852Y2421381D01*
X7456424Y2412237D01*
X7456424Y2398521D01*
X7451852Y2389378D01*
X7447279Y2384805D01*
X7433563Y2380234D01*
X7392670Y2380234D01*
X7556245Y2475737D02*
G01*
X7556245Y2380234D01*
X7556245Y2475737D02*
G01*
X7588250Y2475737D01*
X7601711Y2471165D01*
X7610856Y2462276D01*
X7615427Y2453131D01*
X7620000Y2439415D01*
X7620000Y2416810D01*
X7615427Y2403094D01*
X7610856Y2393950D01*
X7601711Y2384805D01*
X7588250Y2380234D01*
X7556245Y2380234D01*
X7649972Y2416810D02*
G01*
X7704581Y2416810D01*
X7704581Y2425700D01*
X7700009Y2434844D01*
X7695438Y2439415D01*
X7686293Y2443987D01*
X7672831Y2443987D01*
X7663688Y2439415D01*
X7654543Y2430271D01*
X7649972Y2416810D01*
X7649972Y2407665D01*
X7654543Y2393950D01*
X7663688Y2384805D01*
X7672831Y2380234D01*
X7686293Y2380234D01*
X7695438Y2384805D01*
X7704581Y2393950D01*
X7784591Y2430271D02*
G01*
X7780020Y2439415D01*
X7766304Y2443987D01*
X7752841Y2443987D01*
X7739125Y2439415D01*
X7734554Y2430271D01*
X7739125Y2421381D01*
X7748270Y2416810D01*
X7770875Y2412237D01*
X7780020Y2407665D01*
X7784591Y2398521D01*
X7784591Y2393950D01*
X7780020Y2384805D01*
X7766304Y2380234D01*
X7752841Y2380234D01*
X7739125Y2384805D01*
X7734554Y2393950D01*
X7814563Y2475737D02*
G01*
X7819136Y2471165D01*
X7823708Y2475737D01*
X7819136Y2480310D01*
X7814563Y2475737D01*
X7819136Y2443987D02*
G01*
X7819136Y2380234D01*
X7908290Y2443987D02*
G01*
X7908290Y2371344D01*
X7903718Y2357628D01*
X7899145Y2353055D01*
X7890002Y2348484D01*
X7876286Y2348484D01*
X7867141Y2353055D01*
X7908290Y2430271D02*
G01*
X7899145Y2439415D01*
X7890002Y2443987D01*
X7876286Y2443987D01*
X7867141Y2439415D01*
X7858252Y2430271D01*
X7853679Y2416810D01*
X7853679Y2407665D01*
X7858252Y2393950D01*
X7867141Y2384805D01*
X7876286Y2380234D01*
X7890002Y2380234D01*
X7899145Y2384805D01*
X7908290Y2393950D01*
X7938261Y2443987D02*
G01*
X7938261Y2380234D01*
X7938261Y2425700D02*
G01*
X7951724Y2439415D01*
X7960868Y2443987D01*
X7974584Y2443987D01*
X7983727Y2439415D01*
X7988045Y2425700D01*
X7988045Y2380234D01*
X8018272Y2416810D02*
G01*
X8072627Y2416810D01*
X8072627Y2425700D01*
X8068056Y2434844D01*
X8063738Y2439415D01*
X8054593Y2443987D01*
X8040877Y2443987D01*
X8031734Y2439415D01*
X8022843Y2430271D01*
X8018272Y2416810D01*
X8018272Y2407665D01*
X8022843Y2393950D01*
X8031734Y2384805D01*
X8040877Y2380234D01*
X8054593Y2380234D01*
X8063738Y2384805D01*
X8072627Y2393950D01*
X8157209Y2475737D02*
G01*
X8157209Y2380234D01*
X8157209Y2430271D02*
G01*
X8148065Y2439415D01*
X8139175Y2443987D01*
X8125459Y2443987D01*
X8116315Y2439415D01*
X8107172Y2430271D01*
X8102600Y2416810D01*
X8102600Y2407665D01*
X8107172Y2393950D01*
X8116315Y2384805D01*
X8125459Y2380234D01*
X8139175Y2380234D01*
X8148065Y2384805D01*
X8157209Y2393950D01*
X8257286Y2475737D02*
G01*
X8257286Y2380234D01*
X8257286Y2430271D02*
G01*
X8266429Y2439415D01*
X8275320Y2443987D01*
X8289036Y2443987D01*
X8298179Y2439415D01*
X8307324Y2430271D01*
X8311895Y2416810D01*
X8311895Y2407665D01*
X8307324Y2393950D01*
X8298179Y2384805D01*
X8289036Y2380234D01*
X8275320Y2380234D01*
X8266429Y2384805D01*
X8257286Y2393950D01*
X8346440Y2443987D02*
G01*
X8373618Y2380234D01*
X8400795Y2443987D02*
G01*
X8373618Y2380234D01*
X8364474Y2362200D01*
X8355329Y2353055D01*
X8346440Y2348484D01*
X8341868Y2348484D01*
X8564625Y2462276D02*
G01*
X8555481Y2471165D01*
X8541765Y2475737D01*
X8523731Y2475737D01*
X8510015Y2471165D01*
X8500872Y2462276D01*
X8500872Y2453131D01*
X8505443Y2443987D01*
X8510015Y2439415D01*
X8519159Y2434844D01*
X8546338Y2425700D01*
X8555481Y2421381D01*
X8560054Y2416810D01*
X8564625Y2407665D01*
X8564625Y2393950D01*
X8555481Y2384805D01*
X8541765Y2380234D01*
X8523731Y2380234D01*
X8510015Y2384805D01*
X8500872Y2393950D01*
X8608059Y2475737D02*
G01*
X8608059Y2398521D01*
X8612631Y2384805D01*
X8621775Y2380234D01*
X8630920Y2380234D01*
X8594597Y2443987D02*
G01*
X8626347Y2443987D01*
X8660891Y2443987D02*
G01*
X8660891Y2380234D01*
X8660891Y2416810D02*
G01*
X8665463Y2430271D01*
X8674608Y2439415D01*
X8683752Y2443987D01*
X8697213Y2443987D01*
X8727186Y2475737D02*
G01*
X8731758Y2471165D01*
X8736329Y2475737D01*
X8731758Y2480310D01*
X8727186Y2475737D01*
X8731758Y2443987D02*
G01*
X8731758Y2380234D01*
X8766302Y2475737D02*
G01*
X8766302Y2380234D01*
X8811768Y2443987D02*
G01*
X8766302Y2398521D01*
X8784590Y2416810D02*
G01*
X8816340Y2380234D01*
X8846311Y2416810D02*
G01*
X8900922Y2416810D01*
X8900922Y2425700D01*
X8896350Y2434844D01*
X8891777Y2439415D01*
X8882634Y2443987D01*
X8869172Y2443987D01*
X8860027Y2439415D01*
X8850884Y2430271D01*
X8846311Y2416810D01*
X8846311Y2407665D01*
X8850884Y2393950D01*
X8860027Y2384805D01*
X8869172Y2380234D01*
X8882634Y2380234D01*
X8891777Y2384805D01*
X8900922Y2393950D01*
X8930893Y2443987D02*
G01*
X8930893Y2380234D01*
X8930893Y2416810D02*
G01*
X8935465Y2430271D01*
X8944609Y2439415D01*
X8953754Y2443987D01*
X8967215Y2443987D01*
X8997188Y2475737D02*
G01*
X8997188Y2380234D01*
X8997188Y2380234D02*
G01*
X9051797Y2380234D01*
X9081770Y2416810D02*
G01*
X9136379Y2416810D01*
X9136379Y2425700D01*
X9131808Y2434844D01*
X9127236Y2439415D01*
X9118091Y2443987D01*
X9104629Y2443987D01*
X9095486Y2439415D01*
X9086341Y2430271D01*
X9081770Y2416810D01*
X9081770Y2407665D01*
X9086341Y2393950D01*
X9095486Y2384805D01*
X9104629Y2380234D01*
X9118091Y2380234D01*
X9127236Y2384805D01*
X9136379Y2393950D01*
X9166352Y2416810D02*
G01*
X9220961Y2416810D01*
X9220961Y2425700D01*
X9216390Y2434844D01*
X9211818Y2439415D01*
X9202674Y2443987D01*
X9188958Y2443987D01*
X9180068Y2439415D01*
X9170924Y2430271D01*
X9166352Y2416810D01*
X9166352Y2407665D01*
X9170924Y2393950D01*
X9180068Y2384805D01*
X9188958Y2380234D01*
X9202674Y2380234D01*
X9211818Y2384805D01*
X9220961Y2393950D01*
X9305543Y2430271D02*
G01*
X9296400Y2439415D01*
X9287256Y2443987D01*
X9273540Y2443987D01*
X9264650Y2439415D01*
X9255506Y2430271D01*
X9250934Y2416810D01*
X9250934Y2407665D01*
X9255506Y2393950D01*
X9264650Y2384805D01*
X9273540Y2380234D01*
X9287256Y2380234D01*
X9296400Y2384805D01*
X9305543Y2393950D01*
X9340088Y2443987D02*
G01*
X9367265Y2380234D01*
X9394443Y2443987D02*
G01*
X9367265Y2380234D01*
X9358122Y2362200D01*
X9348977Y2353055D01*
X9340088Y2348484D01*
X9335515Y2348484D01*
X9424415Y2457704D02*
G01*
X9433559Y2462276D01*
X9447275Y2475737D01*
X9447275Y2380234D01*
X9481820Y2453131D02*
G01*
X9481820Y2457704D01*
X9486391Y2466594D01*
X9490963Y2471165D01*
X9500108Y2475737D01*
X9518141Y2475737D01*
X9527286Y2471165D01*
X9531858Y2466594D01*
X9536429Y2457704D01*
X9536429Y2448560D01*
X9531858Y2439415D01*
X9522713Y2425700D01*
X9477247Y2380234D01*
X9541002Y2380234D01*
X9625329Y2462276D02*
G01*
X9621011Y2471165D01*
X9607295Y2475737D01*
X9598152Y2475737D01*
X9584436Y2471165D01*
X9575545Y2457704D01*
X9570974Y2434844D01*
X9570974Y2412237D01*
X9575545Y2393950D01*
X9584436Y2384805D01*
X9598152Y2380234D01*
X9602724Y2380234D01*
X9616440Y2384805D01*
X9625329Y2393950D01*
X9629902Y2407665D01*
X9629902Y2412237D01*
X9625329Y2425700D01*
X9616440Y2434844D01*
X9602724Y2439415D01*
X9598152Y2439415D01*
X9584436Y2434844D01*
X9575545Y2425700D01*
X9570974Y2412237D01*
X633221Y10057637D02*
G01*
X596900Y9962134D01*
X633221Y10057637D02*
G01*
X669543Y9962134D01*
X610615Y9994137D02*
G01*
X656081Y9994137D01*
X731520Y10057637D02*
G01*
X731520Y9962134D01*
X699515Y10057637D02*
G01*
X763270Y10057637D01*
X797813Y10035031D02*
G01*
X797813Y10039604D01*
X802386Y10048494D01*
X806958Y10053065D01*
X816102Y10057637D01*
X834136Y10057637D01*
X843279Y10053065D01*
X847852Y10048494D01*
X852424Y10039604D01*
X852424Y10030460D01*
X847852Y10021315D01*
X838708Y10007600D01*
X793241Y9962134D01*
X856995Y9962134D01*
X909574Y10057637D02*
G01*
X896111Y10053065D01*
X891540Y10044176D01*
X891540Y10035031D01*
X896111Y10025887D01*
X905002Y10021315D01*
X923290Y10016744D01*
X937006Y10012171D01*
X945895Y10003281D01*
X950468Y9994137D01*
X950468Y9980421D01*
X945895Y9971278D01*
X941324Y9966705D01*
X927861Y9962134D01*
X909574Y9962134D01*
X896111Y9966705D01*
X891540Y9971278D01*
X886968Y9980421D01*
X886968Y9994137D01*
X891540Y10003281D01*
X900429Y10012171D01*
X914145Y10016744D01*
X932434Y10021315D01*
X941324Y10025887D01*
X945895Y10035031D01*
X945895Y10044176D01*
X941324Y10053065D01*
X927861Y10057637D01*
X909574Y10057637D01*
X1048765Y10035031D02*
G01*
X1044193Y10044176D01*
X1035050Y10053065D01*
X1025906Y10057637D01*
X1007872Y10057637D01*
X998727Y10053065D01*
X989584Y10044176D01*
X985011Y10035031D01*
X980440Y10021315D01*
X980440Y9998710D01*
X985011Y9984994D01*
X989584Y9975850D01*
X998727Y9966705D01*
X1007872Y9962134D01*
X1025906Y9962134D01*
X1035050Y9966705D01*
X1044193Y9975850D01*
X1048765Y9984994D01*
X1083309Y10035031D02*
G01*
X1083309Y10039604D01*
X1087881Y10048494D01*
X1092454Y10053065D01*
X1101343Y10057637D01*
X1119631Y10057637D01*
X1128775Y10053065D01*
X1133347Y10048494D01*
X1137920Y10039604D01*
X1137920Y10030460D01*
X1133347Y10021315D01*
X1124204Y10007600D01*
X1078738Y9962134D01*
X1142238Y9962134D01*
X1226820Y10057637D02*
G01*
X1181354Y10057637D01*
X1176781Y10016744D01*
X1181354Y10021315D01*
X1195070Y10025887D01*
X1208786Y10025887D01*
X1222247Y10021315D01*
X1231391Y10012171D01*
X1235963Y9998710D01*
X1235963Y9989565D01*
X1231391Y9975850D01*
X1222247Y9966705D01*
X1208786Y9962134D01*
X1195070Y9962134D01*
X1181354Y9966705D01*
X1176781Y9971278D01*
X1172463Y9980421D01*
X1320545Y10044176D02*
G01*
X1315974Y10053065D01*
X1302258Y10057637D01*
X1293368Y10057637D01*
X1279652Y10053065D01*
X1270508Y10039604D01*
X1265936Y10016744D01*
X1265936Y9994137D01*
X1270508Y9975850D01*
X1279652Y9966705D01*
X1293368Y9962134D01*
X1297686Y9962134D01*
X1311402Y9966705D01*
X1320545Y9975850D01*
X1325118Y9989565D01*
X1325118Y9994137D01*
X1320545Y10007600D01*
X1311402Y10016744D01*
X1297686Y10021315D01*
X1293368Y10021315D01*
X1279652Y10016744D01*
X1270508Y10007600D01*
X1265936Y9994137D01*
X1425193Y10057637D02*
G01*
X1425193Y9962134D01*
X1425193Y10057637D02*
G01*
X1484122Y10057637D01*
X1425193Y10012171D02*
G01*
X1461515Y10012171D01*
X1425193Y9962134D02*
G01*
X1484122Y9962134D01*
X1514093Y10057637D02*
G01*
X1514093Y9962134D01*
X1514093Y10057637D02*
G01*
X1573275Y10057637D01*
X1514093Y10012171D02*
G01*
X1550415Y10012171D01*
X1514093Y9962134D02*
G01*
X1573275Y9962134D01*
X1603247Y10057637D02*
G01*
X1603247Y9962134D01*
X1603247Y10057637D02*
G01*
X1644141Y10057637D01*
X1657858Y10053065D01*
X1662429Y10048494D01*
X1667002Y10039604D01*
X1667002Y10025887D01*
X1662429Y10016744D01*
X1657858Y10012171D01*
X1644141Y10007600D01*
X1603247Y10007600D01*
X1696974Y10057637D02*
G01*
X1696974Y9962134D01*
X1696974Y10057637D02*
G01*
X1737868Y10057637D01*
X1751329Y10053065D01*
X1755902Y10048494D01*
X1760474Y10039604D01*
X1760474Y10030460D01*
X1755902Y10021315D01*
X1751329Y10016744D01*
X1737868Y10012171D01*
X1696974Y10012171D01*
X1728724Y10012171D02*
G01*
X1760474Y9962134D01*
X1817877Y10057637D02*
G01*
X1808734Y10053065D01*
X1799590Y10044176D01*
X1795018Y10035031D01*
X1790445Y10021315D01*
X1790445Y9998710D01*
X1795018Y9984994D01*
X1799590Y9975850D01*
X1808734Y9966705D01*
X1817877Y9962134D01*
X1835911Y9962134D01*
X1845056Y9966705D01*
X1854200Y9975850D01*
X1858772Y9984994D01*
X1863343Y9998710D01*
X1863343Y10021315D01*
X1858772Y10035031D01*
X1854200Y10044176D01*
X1845056Y10053065D01*
X1835911Y10057637D01*
X1817877Y10057637D01*
X1893315Y10057637D02*
G01*
X1893315Y9962134D01*
X1893315Y10057637D02*
G01*
X1929638Y9962134D01*
X1965959Y10057637D02*
G01*
X1929638Y9962134D01*
X1965959Y10057637D02*
G01*
X1965959Y9962134D01*
X2102358Y10057637D02*
G01*
X2066036Y9962134D01*
X2102358Y10057637D02*
G01*
X2138679Y9962134D01*
X2079752Y9994137D02*
G01*
X2124963Y9994137D01*
X2168652Y10025887D02*
G01*
X2168652Y9980421D01*
X2173224Y9966705D01*
X2182368Y9962134D01*
X2196084Y9962134D01*
X2204974Y9966705D01*
X2218690Y9980421D01*
X2218690Y10025887D02*
G01*
X2218690Y9962134D01*
X2262377Y10057637D02*
G01*
X2262377Y9980421D01*
X2266950Y9966705D01*
X2276093Y9962134D01*
X2284984Y9962134D01*
X2248661Y10025887D02*
G01*
X2280411Y10025887D01*
X2337815Y10025887D02*
G01*
X2328672Y10021315D01*
X2319527Y10012171D01*
X2314956Y9998710D01*
X2314956Y9989565D01*
X2319527Y9975850D01*
X2328672Y9966705D01*
X2337815Y9962134D01*
X2351531Y9962134D01*
X2360422Y9966705D01*
X2369565Y9975850D01*
X2374138Y9989565D01*
X2374138Y9998710D01*
X2369565Y10012171D01*
X2360422Y10021315D01*
X2351531Y10025887D01*
X2337815Y10025887D01*
X2404109Y10003281D02*
G01*
X2485897Y10003281D01*
X2515870Y10057637D02*
G01*
X2515870Y9962134D01*
X2515870Y10057637D02*
G01*
X2557018Y10057637D01*
X2570479Y10053065D01*
X2575052Y10048494D01*
X2579624Y10039604D01*
X2579624Y10025887D01*
X2575052Y10016744D01*
X2570479Y10012171D01*
X2557018Y10007600D01*
X2515870Y10007600D01*
X2609595Y10025887D02*
G01*
X2609595Y9962134D01*
X2609595Y9998710D02*
G01*
X2614168Y10012171D01*
X2623311Y10021315D01*
X2632456Y10025887D01*
X2645918Y10025887D01*
X2698750Y10025887D02*
G01*
X2689606Y10021315D01*
X2680461Y10012171D01*
X2675890Y9998710D01*
X2675890Y9989565D01*
X2680461Y9975850D01*
X2689606Y9966705D01*
X2698750Y9962134D01*
X2712465Y9962134D01*
X2721356Y9966705D01*
X2730500Y9975850D01*
X2735072Y9989565D01*
X2735072Y9998710D01*
X2730500Y10012171D01*
X2721356Y10021315D01*
X2712465Y10025887D01*
X2698750Y10025887D01*
X2819654Y10025887D02*
G01*
X2819654Y9953244D01*
X2815081Y9939528D01*
X2810509Y9934955D01*
X2801365Y9930384D01*
X2787904Y9930384D01*
X2778759Y9934955D01*
X2819654Y10012171D02*
G01*
X2810509Y10021315D01*
X2801365Y10025887D01*
X2787904Y10025887D01*
X2778759Y10021315D01*
X2769615Y10012171D01*
X2765043Y9998710D01*
X2765043Y9989565D01*
X2769615Y9975850D01*
X2778759Y9966705D01*
X2787904Y9962134D01*
X2801365Y9962134D01*
X2810509Y9966705D01*
X2819654Y9975850D01*
X2849625Y10025887D02*
G01*
X2849625Y9962134D01*
X2849625Y9998710D02*
G01*
X2854197Y10012171D01*
X2863341Y10021315D01*
X2872231Y10025887D01*
X2885947Y10025887D01*
X2970529Y10025887D02*
G01*
X2970529Y9962134D01*
X2970529Y10012171D02*
G01*
X2961386Y10021315D01*
X2952241Y10025887D01*
X2938779Y10025887D01*
X2929636Y10021315D01*
X2920491Y10012171D01*
X2915920Y9998710D01*
X2915920Y9989565D01*
X2920491Y9975850D01*
X2929636Y9966705D01*
X2938779Y9962134D01*
X2952241Y9962134D01*
X2961386Y9966705D01*
X2970529Y9975850D01*
X3000502Y10025887D02*
G01*
X3000502Y9962134D01*
X3000502Y10007600D02*
G01*
X3014218Y10021315D01*
X3023361Y10025887D01*
X3036824Y10025887D01*
X3045968Y10021315D01*
X3050540Y10007600D01*
X3050540Y9962134D01*
X3050540Y10007600D02*
G01*
X3064256Y10021315D01*
X3073145Y10025887D01*
X3086861Y10025887D01*
X3096006Y10021315D01*
X3100577Y10007600D01*
X3100577Y9962134D01*
X3130550Y10025887D02*
G01*
X3130550Y9962134D01*
X3130550Y10007600D02*
G01*
X3144265Y10021315D01*
X3153156Y10025887D01*
X3166872Y10025887D01*
X3176015Y10021315D01*
X3180588Y10007600D01*
X3180588Y9962134D01*
X3180588Y10007600D02*
G01*
X3194050Y10021315D01*
X3203193Y10025887D01*
X3216909Y10025887D01*
X3226054Y10021315D01*
X3230625Y10007600D01*
X3230625Y9962134D01*
X3260597Y9998710D02*
G01*
X3315208Y9998710D01*
X3315208Y10007600D01*
X3310636Y10016744D01*
X3306063Y10021315D01*
X3296920Y10025887D01*
X3283204Y10025887D01*
X3274059Y10021315D01*
X3265170Y10012171D01*
X3260597Y9998710D01*
X3260597Y9989565D01*
X3265170Y9975850D01*
X3274059Y9966705D01*
X3283204Y9962134D01*
X3296920Y9962134D01*
X3306063Y9966705D01*
X3315208Y9975850D01*
X3345179Y10025887D02*
G01*
X3345179Y9962134D01*
X3345179Y9998710D02*
G01*
X3349752Y10012171D01*
X3358641Y10021315D01*
X3367786Y10025887D01*
X3381502Y10025887D01*
X584200Y9613137D02*
G01*
X584200Y9517634D01*
X584200Y9613137D02*
G01*
X625094Y9613137D01*
X638810Y9608565D01*
X643381Y9603994D01*
X647954Y9595104D01*
X647954Y9585960D01*
X643381Y9576815D01*
X638810Y9572244D01*
X625094Y9567671D01*
X584200Y9567671D01*
X615950Y9567671D02*
G01*
X647954Y9517634D01*
X677925Y9581387D02*
G01*
X677925Y9535921D01*
X682497Y9522205D01*
X691388Y9517634D01*
X705104Y9517634D01*
X714247Y9522205D01*
X727709Y9535921D01*
X727709Y9581387D02*
G01*
X727709Y9517634D01*
X757936Y9581387D02*
G01*
X757936Y9517634D01*
X757936Y9563100D02*
G01*
X771397Y9576815D01*
X780541Y9581387D01*
X794258Y9581387D01*
X803402Y9576815D01*
X807720Y9563100D01*
X807720Y9517634D01*
X921511Y9613137D02*
G01*
X921511Y9535921D01*
X926084Y9522205D01*
X935227Y9517634D01*
X944118Y9517634D01*
X907795Y9581387D02*
G01*
X939545Y9581387D01*
X974090Y9613137D02*
G01*
X974090Y9517634D01*
X974090Y9563100D02*
G01*
X987806Y9576815D01*
X996950Y9581387D01*
X1010665Y9581387D01*
X1019556Y9576815D01*
X1024127Y9563100D01*
X1024127Y9517634D01*
X1054100Y9554210D02*
G01*
X1108709Y9554210D01*
X1108709Y9563100D01*
X1104138Y9572244D01*
X1099565Y9576815D01*
X1090675Y9581387D01*
X1076959Y9581387D01*
X1067815Y9576815D01*
X1058672Y9567671D01*
X1054100Y9554210D01*
X1054100Y9545065D01*
X1058672Y9531350D01*
X1067815Y9522205D01*
X1076959Y9517634D01*
X1090675Y9517634D01*
X1099565Y9522205D01*
X1108709Y9531350D01*
X1245108Y9613137D02*
G01*
X1208786Y9517634D01*
X1245108Y9613137D02*
G01*
X1281429Y9517634D01*
X1222502Y9549637D02*
G01*
X1267713Y9549637D01*
X1311402Y9581387D02*
G01*
X1311402Y9517634D01*
X1311402Y9554210D02*
G01*
X1315974Y9567671D01*
X1325118Y9576815D01*
X1334261Y9581387D01*
X1347724Y9581387D01*
X1432306Y9613137D02*
G01*
X1432306Y9517634D01*
X1432306Y9567671D02*
G01*
X1423415Y9576815D01*
X1414272Y9581387D01*
X1400556Y9581387D01*
X1391411Y9576815D01*
X1382268Y9567671D01*
X1377950Y9554210D01*
X1377950Y9545065D01*
X1382268Y9531350D01*
X1391411Y9522205D01*
X1400556Y9517634D01*
X1414272Y9517634D01*
X1423415Y9522205D01*
X1432306Y9531350D01*
X1462277Y9581387D02*
G01*
X1462277Y9535921D01*
X1466850Y9522205D01*
X1475993Y9517634D01*
X1489709Y9517634D01*
X1498854Y9522205D01*
X1512315Y9535921D01*
X1512315Y9581387D02*
G01*
X1512315Y9517634D01*
X1542288Y9613137D02*
G01*
X1546859Y9608565D01*
X1551431Y9613137D01*
X1546859Y9617710D01*
X1542288Y9613137D01*
X1546859Y9581387D02*
G01*
X1546859Y9517634D01*
X1581404Y9581387D02*
G01*
X1581404Y9517634D01*
X1581404Y9563100D02*
G01*
X1595120Y9576815D01*
X1604263Y9581387D01*
X1617725Y9581387D01*
X1626870Y9576815D01*
X1631441Y9563100D01*
X1631441Y9517634D01*
X1684274Y9581387D02*
G01*
X1675129Y9576815D01*
X1665986Y9567671D01*
X1661413Y9554210D01*
X1661413Y9545065D01*
X1665986Y9531350D01*
X1675129Y9522205D01*
X1684274Y9517634D01*
X1697736Y9517634D01*
X1706879Y9522205D01*
X1716024Y9531350D01*
X1720595Y9545065D01*
X1720595Y9554210D01*
X1716024Y9567671D01*
X1706879Y9576815D01*
X1697736Y9581387D01*
X1684274Y9581387D01*
X1888743Y9590531D02*
G01*
X1884172Y9599676D01*
X1875027Y9608565D01*
X1866138Y9613137D01*
X1847850Y9613137D01*
X1838706Y9608565D01*
X1829561Y9599676D01*
X1824990Y9590531D01*
X1820672Y9576815D01*
X1820672Y9554210D01*
X1824990Y9540494D01*
X1829561Y9531350D01*
X1838706Y9522205D01*
X1847850Y9517634D01*
X1866138Y9517634D01*
X1875027Y9522205D01*
X1884172Y9531350D01*
X1888743Y9540494D01*
X1941575Y9581387D02*
G01*
X1932431Y9576815D01*
X1923288Y9567671D01*
X1918715Y9554210D01*
X1918715Y9545065D01*
X1923288Y9531350D01*
X1932431Y9522205D01*
X1941575Y9517634D01*
X1955038Y9517634D01*
X1964181Y9522205D01*
X1973325Y9531350D01*
X1977897Y9545065D01*
X1977897Y9554210D01*
X1973325Y9567671D01*
X1964181Y9576815D01*
X1955038Y9581387D01*
X1941575Y9581387D01*
X2062479Y9613137D02*
G01*
X2062479Y9517634D01*
X2062479Y9567671D02*
G01*
X2053336Y9576815D01*
X2044191Y9581387D01*
X2030475Y9581387D01*
X2021586Y9576815D01*
X2012441Y9567671D01*
X2007870Y9554210D01*
X2007870Y9545065D01*
X2012441Y9531350D01*
X2021586Y9522205D01*
X2030475Y9517634D01*
X2044191Y9517634D01*
X2053336Y9522205D01*
X2062479Y9531350D01*
X2092452Y9554210D02*
G01*
X2146808Y9554210D01*
X2146808Y9563100D01*
X2142490Y9572244D01*
X2137918Y9576815D01*
X2128774Y9581387D01*
X2115058Y9581387D01*
X2105913Y9576815D01*
X2097024Y9567671D01*
X2092452Y9554210D01*
X2092452Y9545065D01*
X2097024Y9531350D01*
X2105913Y9522205D01*
X2115058Y9517634D01*
X2128774Y9517634D01*
X2137918Y9522205D01*
X2146808Y9531350D01*
X2260600Y9613137D02*
G01*
X2260600Y9535921D01*
X2265172Y9522205D01*
X2274315Y9517634D01*
X2283206Y9517634D01*
X2246884Y9581387D02*
G01*
X2278634Y9581387D01*
X2336038Y9581387D02*
G01*
X2326893Y9576815D01*
X2317750Y9567671D01*
X2313177Y9554210D01*
X2313177Y9545065D01*
X2317750Y9531350D01*
X2326893Y9522205D01*
X2336038Y9517634D01*
X2349754Y9517634D01*
X2358643Y9522205D01*
X2367788Y9531350D01*
X2372359Y9545065D01*
X2372359Y9554210D01*
X2367788Y9567671D01*
X2358643Y9576815D01*
X2349754Y9581387D01*
X2336038Y9581387D01*
X2472436Y9581387D02*
G01*
X2490470Y9517634D01*
X2508758Y9581387D02*
G01*
X2490470Y9517634D01*
X2508758Y9581387D02*
G01*
X2527045Y9517634D01*
X2545079Y9581387D02*
G01*
X2527045Y9517634D01*
X2575052Y9581387D02*
G01*
X2575052Y9517634D01*
X2575052Y9554210D02*
G01*
X2579624Y9567671D01*
X2588768Y9576815D01*
X2597911Y9581387D01*
X2611374Y9581387D01*
X2641345Y9613137D02*
G01*
X2645918Y9608565D01*
X2650490Y9613137D01*
X2645918Y9617710D01*
X2641345Y9613137D01*
X2645918Y9581387D02*
G01*
X2645918Y9517634D01*
X2694177Y9613137D02*
G01*
X2694177Y9535921D01*
X2698750Y9522205D01*
X2707893Y9517634D01*
X2717038Y9517634D01*
X2680461Y9581387D02*
G01*
X2712465Y9581387D01*
X2747009Y9554210D02*
G01*
X2801365Y9554210D01*
X2801365Y9563100D01*
X2797047Y9572244D01*
X2792475Y9576815D01*
X2783331Y9581387D01*
X2769615Y9581387D01*
X2760472Y9576815D01*
X2751581Y9567671D01*
X2747009Y9554210D01*
X2747009Y9545065D01*
X2751581Y9531350D01*
X2760472Y9522205D01*
X2769615Y9517634D01*
X2783331Y9517634D01*
X2792475Y9522205D01*
X2801365Y9531350D01*
X2956052Y9613137D02*
G01*
X2956052Y9517634D01*
X2956052Y9567671D02*
G01*
X2946908Y9576815D01*
X2937763Y9581387D01*
X2924302Y9581387D01*
X2915158Y9576815D01*
X2906013Y9567671D01*
X2901441Y9554210D01*
X2901441Y9545065D01*
X2906013Y9531350D01*
X2915158Y9522205D01*
X2924302Y9517634D01*
X2937763Y9517634D01*
X2946908Y9522205D01*
X2956052Y9531350D01*
X3040634Y9581387D02*
G01*
X3040634Y9517634D01*
X3040634Y9567671D02*
G01*
X3031490Y9576815D01*
X3022345Y9581387D01*
X3008629Y9581387D01*
X2999740Y9576815D01*
X2990595Y9567671D01*
X2986024Y9554210D01*
X2986024Y9545065D01*
X2990595Y9531350D01*
X2999740Y9522205D01*
X3008629Y9517634D01*
X3022345Y9517634D01*
X3031490Y9522205D01*
X3040634Y9531350D01*
X3084322Y9613137D02*
G01*
X3084322Y9535921D01*
X3088640Y9522205D01*
X3097784Y9517634D01*
X3106927Y9517634D01*
X3070606Y9581387D02*
G01*
X3102356Y9581387D01*
X3191509Y9581387D02*
G01*
X3191509Y9517634D01*
X3191509Y9567671D02*
G01*
X3182365Y9576815D01*
X3173222Y9581387D01*
X3159759Y9581387D01*
X3150615Y9576815D01*
X3141472Y9567671D01*
X3136900Y9554210D01*
X3136900Y9545065D01*
X3141472Y9531350D01*
X3150615Y9522205D01*
X3159759Y9517634D01*
X3173222Y9517634D01*
X3182365Y9522205D01*
X3191509Y9531350D01*
X597915Y9397237D02*
G01*
X597915Y9320021D01*
X602487Y9306305D01*
X611378Y9301734D01*
X620521Y9301734D01*
X584200Y9365487D02*
G01*
X615950Y9365487D01*
X673354Y9365487D02*
G01*
X664210Y9360915D01*
X655065Y9351771D01*
X650494Y9338310D01*
X650494Y9329165D01*
X655065Y9315450D01*
X664210Y9306305D01*
X673354Y9301734D01*
X686815Y9301734D01*
X695959Y9306305D01*
X705104Y9315450D01*
X709675Y9329165D01*
X709675Y9338310D01*
X705104Y9351771D01*
X695959Y9360915D01*
X686815Y9365487D01*
X673354Y9365487D01*
X823213Y9397237D02*
G01*
X823213Y9320021D01*
X827786Y9306305D01*
X836929Y9301734D01*
X846074Y9301734D01*
X809752Y9365487D02*
G01*
X841502Y9365487D01*
X876045Y9397237D02*
G01*
X876045Y9301734D01*
X876045Y9347200D02*
G01*
X889761Y9360915D01*
X898652Y9365487D01*
X912368Y9365487D01*
X921511Y9360915D01*
X926084Y9347200D01*
X926084Y9301734D01*
X956056Y9338310D02*
G01*
X1010665Y9338310D01*
X1010665Y9347200D01*
X1006093Y9356344D01*
X1001522Y9360915D01*
X992377Y9365487D01*
X978661Y9365487D01*
X969772Y9360915D01*
X960627Y9351771D01*
X956056Y9338310D01*
X956056Y9329165D01*
X960627Y9315450D01*
X969772Y9306305D01*
X978661Y9301734D01*
X992377Y9301734D01*
X1001522Y9306305D01*
X1010665Y9315450D01*
X1110488Y9397237D02*
G01*
X1110488Y9301734D01*
X1110488Y9397237D02*
G01*
X1169670Y9397237D01*
X1110488Y9351771D02*
G01*
X1146809Y9351771D01*
X1110488Y9301734D02*
G01*
X1169670Y9301734D01*
X1199641Y9397237D02*
G01*
X1199641Y9301734D01*
X1199641Y9397237D02*
G01*
X1258824Y9397237D01*
X1199641Y9351771D02*
G01*
X1235963Y9351771D01*
X1199641Y9301734D02*
G01*
X1258824Y9301734D01*
X1288795Y9397237D02*
G01*
X1288795Y9301734D01*
X1288795Y9397237D02*
G01*
X1329690Y9397237D01*
X1343406Y9392665D01*
X1347724Y9388094D01*
X1352295Y9379204D01*
X1352295Y9365487D01*
X1347724Y9356344D01*
X1343406Y9351771D01*
X1329690Y9347200D01*
X1288795Y9347200D01*
X1382268Y9397237D02*
G01*
X1382268Y9301734D01*
X1382268Y9397237D02*
G01*
X1423415Y9397237D01*
X1436877Y9392665D01*
X1441450Y9388094D01*
X1446022Y9379204D01*
X1446022Y9370060D01*
X1441450Y9360915D01*
X1436877Y9356344D01*
X1423415Y9351771D01*
X1382268Y9351771D01*
X1414272Y9351771D02*
G01*
X1446022Y9301734D01*
X1503172Y9397237D02*
G01*
X1494281Y9392665D01*
X1485138Y9383776D01*
X1480565Y9374631D01*
X1475993Y9360915D01*
X1475993Y9338310D01*
X1480565Y9324594D01*
X1485138Y9315450D01*
X1494281Y9306305D01*
X1503172Y9301734D01*
X1521459Y9301734D01*
X1530604Y9306305D01*
X1539747Y9315450D01*
X1544320Y9324594D01*
X1548638Y9338310D01*
X1548638Y9360915D01*
X1544320Y9374631D01*
X1539747Y9383776D01*
X1530604Y9392665D01*
X1521459Y9397237D01*
X1503172Y9397237D01*
X1578863Y9397237D02*
G01*
X1578863Y9301734D01*
X1578863Y9397237D02*
G01*
X1615186Y9301734D01*
X1651508Y9397237D02*
G01*
X1615186Y9301734D01*
X1651508Y9397237D02*
G01*
X1651508Y9301734D01*
X1805940Y9365487D02*
G01*
X1805940Y9301734D01*
X1805940Y9351771D02*
G01*
X1797050Y9360915D01*
X1787906Y9365487D01*
X1774190Y9365487D01*
X1765045Y9360915D01*
X1755902Y9351771D01*
X1751584Y9338310D01*
X1751584Y9329165D01*
X1755902Y9315450D01*
X1765045Y9306305D01*
X1774190Y9301734D01*
X1787906Y9301734D01*
X1797050Y9306305D01*
X1805940Y9315450D01*
X1835911Y9365487D02*
G01*
X1835911Y9320021D01*
X1840484Y9306305D01*
X1849627Y9301734D01*
X1863343Y9301734D01*
X1872488Y9306305D01*
X1885950Y9320021D01*
X1885950Y9365487D02*
G01*
X1885950Y9301734D01*
X1929638Y9397237D02*
G01*
X1929638Y9320021D01*
X1934209Y9306305D01*
X1943354Y9301734D01*
X1952497Y9301734D01*
X1915922Y9365487D02*
G01*
X1947925Y9365487D01*
X2005075Y9365487D02*
G01*
X1995931Y9360915D01*
X1987041Y9351771D01*
X1982470Y9338310D01*
X1982470Y9329165D01*
X1987041Y9315450D01*
X1995931Y9306305D01*
X2005075Y9301734D01*
X2018791Y9301734D01*
X2027936Y9306305D01*
X2036825Y9315450D01*
X2041397Y9329165D01*
X2041397Y9338310D01*
X2036825Y9351771D01*
X2027936Y9360915D01*
X2018791Y9365487D01*
X2005075Y9365487D01*
X2071370Y9365487D02*
G01*
X2071370Y9301734D01*
X2071370Y9347200D02*
G01*
X2085086Y9360915D01*
X2094229Y9365487D01*
X2107945Y9365487D01*
X2116836Y9360915D01*
X2121408Y9347200D01*
X2121408Y9301734D01*
X2121408Y9347200D02*
G01*
X2135124Y9360915D01*
X2144268Y9365487D01*
X2157729Y9365487D01*
X2166874Y9360915D01*
X2171445Y9347200D01*
X2171445Y9301734D01*
X2256027Y9365487D02*
G01*
X2256027Y9301734D01*
X2256027Y9351771D02*
G01*
X2246884Y9360915D01*
X2237740Y9365487D01*
X2224277Y9365487D01*
X2215134Y9360915D01*
X2205990Y9351771D01*
X2201418Y9338310D01*
X2201418Y9329165D01*
X2205990Y9315450D01*
X2215134Y9306305D01*
X2224277Y9301734D01*
X2237740Y9301734D01*
X2246884Y9306305D01*
X2256027Y9315450D01*
X2299715Y9397237D02*
G01*
X2299715Y9320021D01*
X2304288Y9306305D01*
X2313177Y9301734D01*
X2322322Y9301734D01*
X2286000Y9365487D02*
G01*
X2317750Y9365487D01*
X2352293Y9397237D02*
G01*
X2356865Y9392665D01*
X2361438Y9397237D01*
X2356865Y9401810D01*
X2352293Y9397237D01*
X2356865Y9365487D02*
G01*
X2356865Y9301734D01*
X2446020Y9351771D02*
G01*
X2436875Y9360915D01*
X2427731Y9365487D01*
X2414270Y9365487D01*
X2405125Y9360915D01*
X2395981Y9351771D01*
X2391409Y9338310D01*
X2391409Y9329165D01*
X2395981Y9315450D01*
X2405125Y9306305D01*
X2414270Y9301734D01*
X2427731Y9301734D01*
X2436875Y9306305D01*
X2446020Y9315450D01*
X2530602Y9365487D02*
G01*
X2530602Y9301734D01*
X2530602Y9351771D02*
G01*
X2521458Y9360915D01*
X2512313Y9365487D01*
X2498852Y9365487D01*
X2489708Y9360915D01*
X2480563Y9351771D01*
X2475991Y9338310D01*
X2475991Y9329165D01*
X2480563Y9315450D01*
X2489708Y9306305D01*
X2498852Y9301734D01*
X2512313Y9301734D01*
X2521458Y9306305D01*
X2530602Y9315450D01*
X2560574Y9397237D02*
G01*
X2560574Y9301734D01*
X2590545Y9397237D02*
G01*
X2590545Y9301734D01*
X2625090Y9365487D02*
G01*
X2652268Y9301734D01*
X2679700Y9365487D02*
G01*
X2652268Y9301734D01*
X2643377Y9283700D01*
X2634234Y9274555D01*
X2625090Y9269984D01*
X2620518Y9269984D01*
X639571Y9095231D02*
G01*
X635254Y9104376D01*
X626110Y9113265D01*
X616965Y9117837D01*
X598678Y9117837D01*
X589787Y9113265D01*
X580644Y9104376D01*
X576071Y9095231D01*
X571500Y9081515D01*
X571500Y9058910D01*
X576071Y9045194D01*
X580644Y9036050D01*
X589787Y9026905D01*
X598678Y9022334D01*
X616965Y9022334D01*
X626110Y9026905D01*
X635254Y9036050D01*
X639571Y9045194D01*
X669797Y9117837D02*
G01*
X669797Y9022334D01*
X669797Y9067800D02*
G01*
X683259Y9081515D01*
X692404Y9086087D01*
X706120Y9086087D01*
X715009Y9081515D01*
X719581Y9067800D01*
X719581Y9022334D01*
X804163Y9086087D02*
G01*
X804163Y9022334D01*
X804163Y9072371D02*
G01*
X795020Y9081515D01*
X786129Y9086087D01*
X772413Y9086087D01*
X763270Y9081515D01*
X754125Y9072371D01*
X749808Y9058910D01*
X749808Y9049765D01*
X754125Y9036050D01*
X763270Y9026905D01*
X772413Y9022334D01*
X786129Y9022334D01*
X795020Y9026905D01*
X804163Y9036050D01*
X834136Y9086087D02*
G01*
X834136Y9022334D01*
X834136Y9067800D02*
G01*
X847852Y9081515D01*
X856995Y9086087D01*
X870711Y9086087D01*
X879602Y9081515D01*
X884174Y9067800D01*
X884174Y9022334D01*
X968756Y9086087D02*
G01*
X968756Y9013444D01*
X964184Y8999728D01*
X959611Y8995155D01*
X950468Y8990584D01*
X937006Y8990584D01*
X927861Y8995155D01*
X968756Y9072371D02*
G01*
X959611Y9081515D01*
X950468Y9086087D01*
X937006Y9086087D01*
X927861Y9081515D01*
X918718Y9072371D01*
X914145Y9058910D01*
X914145Y9049765D01*
X918718Y9036050D01*
X927861Y9026905D01*
X937006Y9022334D01*
X950468Y9022334D01*
X959611Y9026905D01*
X968756Y9036050D01*
X998727Y9058910D02*
G01*
X1053338Y9058910D01*
X1053338Y9067800D01*
X1048765Y9076944D01*
X1044193Y9081515D01*
X1035050Y9086087D01*
X1021588Y9086087D01*
X1012443Y9081515D01*
X1003300Y9072371D01*
X998727Y9058910D01*
X998727Y9049765D01*
X1003300Y9036050D01*
X1012443Y9026905D01*
X1021588Y9022334D01*
X1035050Y9022334D01*
X1044193Y9026905D01*
X1053338Y9036050D01*
X1153413Y9086087D02*
G01*
X1180591Y9022334D01*
X1207770Y9086087D02*
G01*
X1180591Y9022334D01*
X1292352Y9086087D02*
G01*
X1292352Y9022334D01*
X1292352Y9072371D02*
G01*
X1283208Y9081515D01*
X1274318Y9086087D01*
X1260602Y9086087D01*
X1251458Y9081515D01*
X1242313Y9072371D01*
X1237741Y9058910D01*
X1237741Y9049765D01*
X1242313Y9036050D01*
X1251458Y9026905D01*
X1260602Y9022334D01*
X1274318Y9022334D01*
X1283208Y9026905D01*
X1292352Y9036050D01*
X1322324Y9117837D02*
G01*
X1322324Y9022334D01*
X1352295Y9086087D02*
G01*
X1352295Y9040621D01*
X1356868Y9026905D01*
X1366011Y9022334D01*
X1379727Y9022334D01*
X1388872Y9026905D01*
X1402334Y9040621D01*
X1402334Y9086087D02*
G01*
X1402334Y9022334D01*
X1432306Y9058910D02*
G01*
X1486915Y9058910D01*
X1486915Y9067800D01*
X1482343Y9076944D01*
X1477772Y9081515D01*
X1468881Y9086087D01*
X1455165Y9086087D01*
X1446022Y9081515D01*
X1436877Y9072371D01*
X1432306Y9058910D01*
X1432306Y9049765D01*
X1436877Y9036050D01*
X1446022Y9026905D01*
X1455165Y9022334D01*
X1468881Y9022334D01*
X1477772Y9026905D01*
X1486915Y9036050D01*
X1609597Y9086087D02*
G01*
X1600708Y9081515D01*
X1591563Y9072371D01*
X1586991Y9058910D01*
X1586991Y9049765D01*
X1591563Y9036050D01*
X1600708Y9026905D01*
X1609597Y9022334D01*
X1623313Y9022334D01*
X1632458Y9026905D01*
X1641602Y9036050D01*
X1645920Y9049765D01*
X1645920Y9058910D01*
X1641602Y9072371D01*
X1632458Y9081515D01*
X1623313Y9086087D01*
X1609597Y9086087D01*
X1712468Y9117837D02*
G01*
X1703324Y9117837D01*
X1694179Y9113265D01*
X1689608Y9099804D01*
X1689608Y9022334D01*
X1676145Y9086087D02*
G01*
X1707895Y9086087D01*
X1812290Y9136126D02*
G01*
X1812290Y8990584D01*
X1816861Y9136126D02*
G01*
X1816861Y8990584D01*
X1812290Y9136126D02*
G01*
X1844293Y9136126D01*
X1812290Y8990584D02*
G01*
X1844293Y8990584D01*
X1874265Y9117837D02*
G01*
X1874265Y9022334D01*
X1874265Y9117837D02*
G01*
X1906015Y9117837D01*
X1919731Y9113265D01*
X1928875Y9104376D01*
X1933193Y9095231D01*
X1937765Y9081515D01*
X1937765Y9058910D01*
X1933193Y9045194D01*
X1928875Y9036050D01*
X1919731Y9026905D01*
X1906015Y9022334D01*
X1874265Y9022334D01*
X2022347Y9086087D02*
G01*
X2022347Y9022334D01*
X2022347Y9072371D02*
G01*
X2013204Y9081515D01*
X2004313Y9086087D01*
X1990597Y9086087D01*
X1981454Y9081515D01*
X1972309Y9072371D01*
X1967738Y9058910D01*
X1967738Y9049765D01*
X1972309Y9036050D01*
X1981454Y9026905D01*
X1990597Y9022334D01*
X2004313Y9022334D01*
X2013204Y9026905D01*
X2022347Y9036050D01*
X2066036Y9117837D02*
G01*
X2066036Y9040621D01*
X2070608Y9026905D01*
X2079752Y9022334D01*
X2088895Y9022334D01*
X2052320Y9086087D02*
G01*
X2084324Y9086087D01*
X2173224Y9086087D02*
G01*
X2173224Y9022334D01*
X2173224Y9072371D02*
G01*
X2164334Y9081515D01*
X2155190Y9086087D01*
X2141474Y9086087D01*
X2132329Y9081515D01*
X2123440Y9072371D01*
X2118868Y9058910D01*
X2118868Y9049765D01*
X2123440Y9036050D01*
X2132329Y9026905D01*
X2141474Y9022334D01*
X2155190Y9022334D01*
X2164334Y9026905D01*
X2173224Y9036050D01*
X2203195Y8990584D02*
G01*
X2285238Y8990584D01*
X2315209Y9117837D02*
G01*
X2315209Y9022334D01*
X2315209Y9117837D02*
G01*
X2378709Y9022334D01*
X2378709Y9117837D02*
G01*
X2378709Y9022334D01*
X2408681Y9086087D02*
G01*
X2408681Y9040621D01*
X2413254Y9026905D01*
X2422397Y9022334D01*
X2436113Y9022334D01*
X2445258Y9026905D01*
X2458720Y9040621D01*
X2458720Y9086087D02*
G01*
X2458720Y9022334D01*
X2488691Y9086087D02*
G01*
X2488691Y9022334D01*
X2488691Y9067800D02*
G01*
X2502408Y9081515D01*
X2511552Y9086087D01*
X2525013Y9086087D01*
X2534158Y9081515D01*
X2538729Y9067800D01*
X2538729Y9022334D01*
X2538729Y9067800D02*
G01*
X2552445Y9081515D01*
X2561590Y9086087D01*
X2575052Y9086087D01*
X2584195Y9081515D01*
X2588768Y9067800D01*
X2588768Y9022334D01*
X2646172Y9136126D02*
G01*
X2646172Y8990584D01*
X2650490Y9136126D02*
G01*
X2650490Y8990584D01*
X2618740Y9136126D02*
G01*
X2650490Y9136126D01*
X2618740Y8990584D02*
G01*
X2650490Y8990584D01*
X2764281Y9117837D02*
G01*
X2764281Y9040621D01*
X2768854Y9026905D01*
X2777743Y9022334D01*
X2786888Y9022334D01*
X2750565Y9086087D02*
G01*
X2782315Y9086087D01*
X2839720Y9086087D02*
G01*
X2830575Y9081515D01*
X2821431Y9072371D01*
X2816859Y9058910D01*
X2816859Y9049765D01*
X2821431Y9036050D01*
X2830575Y9026905D01*
X2839720Y9022334D01*
X2853436Y9022334D01*
X2862325Y9026905D01*
X2871470Y9036050D01*
X2876041Y9049765D01*
X2876041Y9058910D01*
X2871470Y9072371D01*
X2862325Y9081515D01*
X2853436Y9086087D01*
X2839720Y9086087D01*
X3030474Y9117837D02*
G01*
X3030474Y9022334D01*
X3030474Y9072371D02*
G01*
X3021584Y9081515D01*
X3012440Y9086087D01*
X2998724Y9086087D01*
X2989579Y9081515D01*
X2980690Y9072371D01*
X2976118Y9058910D01*
X2976118Y9049765D01*
X2980690Y9036050D01*
X2989579Y9026905D01*
X2998724Y9022334D01*
X3012440Y9022334D01*
X3021584Y9026905D01*
X3030474Y9036050D01*
X3060700Y9058910D02*
G01*
X3115056Y9058910D01*
X3115056Y9067800D01*
X3110484Y9076944D01*
X3106165Y9081515D01*
X3097022Y9086087D01*
X3083306Y9086087D01*
X3074161Y9081515D01*
X3065018Y9072371D01*
X3060700Y9058910D01*
X3060700Y9049765D01*
X3065018Y9036050D01*
X3074161Y9026905D01*
X3083306Y9022334D01*
X3097022Y9022334D01*
X3106165Y9026905D01*
X3115056Y9036050D01*
X3181604Y9117837D02*
G01*
X3172459Y9117837D01*
X3163315Y9113265D01*
X3158743Y9099804D01*
X3158743Y9022334D01*
X3145027Y9086087D02*
G01*
X3177031Y9086087D01*
X3211575Y9117837D02*
G01*
X3216147Y9113265D01*
X3220465Y9117837D01*
X3216147Y9122410D01*
X3211575Y9117837D01*
X3216147Y9086087D02*
G01*
X3216147Y9022334D01*
X3250691Y9086087D02*
G01*
X3250691Y9022334D01*
X3250691Y9067800D02*
G01*
X3264154Y9081515D01*
X3273297Y9086087D01*
X3287013Y9086087D01*
X3296158Y9081515D01*
X3300475Y9067800D01*
X3300475Y9022334D01*
X3330702Y9058910D02*
G01*
X3385058Y9058910D01*
X3385058Y9067800D01*
X3380486Y9076944D01*
X3376168Y9081515D01*
X3367024Y9086087D01*
X3353308Y9086087D01*
X3344163Y9081515D01*
X3335020Y9072371D01*
X3330702Y9058910D01*
X3330702Y9049765D01*
X3335020Y9036050D01*
X3344163Y9026905D01*
X3353308Y9022334D01*
X3367024Y9022334D01*
X3376168Y9026905D01*
X3385058Y9036050D01*
X585215Y8901937D02*
G01*
X585215Y8824721D01*
X589787Y8811005D01*
X598678Y8806434D01*
X607821Y8806434D01*
X571500Y8870187D02*
G01*
X603250Y8870187D01*
X637794Y8901937D02*
G01*
X637794Y8806434D01*
X637794Y8851900D02*
G01*
X651510Y8865615D01*
X660654Y8870187D01*
X674115Y8870187D01*
X683259Y8865615D01*
X687831Y8851900D01*
X687831Y8806434D01*
X717804Y8843010D02*
G01*
X772413Y8843010D01*
X772413Y8851900D01*
X767841Y8861044D01*
X763270Y8865615D01*
X754125Y8870187D01*
X740663Y8870187D01*
X731520Y8865615D01*
X722375Y8856471D01*
X717804Y8843010D01*
X717804Y8833865D01*
X722375Y8820150D01*
X731520Y8811005D01*
X740663Y8806434D01*
X754125Y8806434D01*
X763270Y8811005D01*
X772413Y8820150D01*
X926845Y8870187D02*
G01*
X926845Y8774684D01*
X926845Y8856471D02*
G01*
X917956Y8865615D01*
X908811Y8870187D01*
X895095Y8870187D01*
X885952Y8865615D01*
X877061Y8856471D01*
X872490Y8843010D01*
X872490Y8833865D01*
X877061Y8820150D01*
X885952Y8811005D01*
X895095Y8806434D01*
X908811Y8806434D01*
X917956Y8811005D01*
X926845Y8820150D01*
X957072Y8870187D02*
G01*
X957072Y8824721D01*
X961390Y8811005D01*
X970534Y8806434D01*
X984250Y8806434D01*
X993393Y8811005D01*
X1006856Y8824721D01*
X1006856Y8870187D02*
G01*
X1006856Y8806434D01*
X1091438Y8870187D02*
G01*
X1091438Y8806434D01*
X1091438Y8856471D02*
G01*
X1082293Y8865615D01*
X1073404Y8870187D01*
X1059688Y8870187D01*
X1050543Y8865615D01*
X1041400Y8856471D01*
X1036827Y8843010D01*
X1036827Y8833865D01*
X1041400Y8820150D01*
X1050543Y8811005D01*
X1059688Y8806434D01*
X1073404Y8806434D01*
X1082293Y8811005D01*
X1091438Y8820150D01*
X1121409Y8870187D02*
G01*
X1121409Y8806434D01*
X1121409Y8851900D02*
G01*
X1135125Y8865615D01*
X1144270Y8870187D01*
X1157986Y8870187D01*
X1166875Y8865615D01*
X1171447Y8851900D01*
X1171447Y8806434D01*
X1215136Y8901937D02*
G01*
X1215136Y8824721D01*
X1219708Y8811005D01*
X1228852Y8806434D01*
X1237741Y8806434D01*
X1201420Y8870187D02*
G01*
X1233424Y8870187D01*
X1267968Y8901937D02*
G01*
X1272286Y8897365D01*
X1276858Y8901937D01*
X1272286Y8906510D01*
X1267968Y8901937D01*
X1272286Y8870187D02*
G01*
X1272286Y8806434D01*
X1320545Y8901937D02*
G01*
X1320545Y8824721D01*
X1325118Y8811005D01*
X1334261Y8806434D01*
X1343406Y8806434D01*
X1306829Y8870187D02*
G01*
X1338834Y8870187D01*
X1377950Y8870187D02*
G01*
X1405127Y8806434D01*
X1432306Y8870187D02*
G01*
X1405127Y8806434D01*
X1395984Y8788400D01*
X1386840Y8779255D01*
X1377950Y8774684D01*
X1373377Y8774684D01*
X1555241Y8870187D02*
G01*
X1546097Y8865615D01*
X1536954Y8856471D01*
X1532381Y8843010D01*
X1532381Y8833865D01*
X1536954Y8820150D01*
X1546097Y8811005D01*
X1555241Y8806434D01*
X1568704Y8806434D01*
X1577847Y8811005D01*
X1586991Y8820150D01*
X1591563Y8833865D01*
X1591563Y8843010D01*
X1586991Y8856471D01*
X1577847Y8865615D01*
X1568704Y8870187D01*
X1555241Y8870187D01*
X1657858Y8901937D02*
G01*
X1648713Y8901937D01*
X1639570Y8897365D01*
X1635252Y8883904D01*
X1635252Y8806434D01*
X1621536Y8870187D02*
G01*
X1653286Y8870187D01*
X1812290Y8870187D02*
G01*
X1812290Y8806434D01*
X1812290Y8856471D02*
G01*
X1803400Y8865615D01*
X1794256Y8870187D01*
X1780540Y8870187D01*
X1771395Y8865615D01*
X1762506Y8856471D01*
X1757934Y8843010D01*
X1757934Y8833865D01*
X1762506Y8820150D01*
X1771395Y8811005D01*
X1780540Y8806434D01*
X1794256Y8806434D01*
X1803400Y8811005D01*
X1812290Y8820150D01*
X1896872Y8901937D02*
G01*
X1896872Y8806434D01*
X1896872Y8856471D02*
G01*
X1887981Y8865615D01*
X1878838Y8870187D01*
X1865122Y8870187D01*
X1855977Y8865615D01*
X1846834Y8856471D01*
X1842515Y8843010D01*
X1842515Y8833865D01*
X1846834Y8820150D01*
X1855977Y8811005D01*
X1865122Y8806434D01*
X1878838Y8806434D01*
X1887981Y8811005D01*
X1896872Y8820150D01*
X1981454Y8901937D02*
G01*
X1981454Y8806434D01*
X1981454Y8856471D02*
G01*
X1972309Y8865615D01*
X1963420Y8870187D01*
X1949704Y8870187D01*
X1940559Y8865615D01*
X1931415Y8856471D01*
X1926843Y8843010D01*
X1926843Y8833865D01*
X1931415Y8820150D01*
X1940559Y8811005D01*
X1949704Y8806434D01*
X1963420Y8806434D01*
X1972309Y8811005D01*
X1981454Y8820150D01*
X2011425Y8870187D02*
G01*
X2011425Y8806434D01*
X2011425Y8843010D02*
G01*
X2015997Y8856471D01*
X2025141Y8865615D01*
X2034286Y8870187D01*
X2047747Y8870187D01*
X2077974Y8843010D02*
G01*
X2132329Y8843010D01*
X2132329Y8851900D01*
X2127758Y8861044D01*
X2123440Y8865615D01*
X2114295Y8870187D01*
X2100579Y8870187D01*
X2091436Y8865615D01*
X2082291Y8856471D01*
X2077974Y8843010D01*
X2077974Y8833865D01*
X2082291Y8820150D01*
X2091436Y8811005D01*
X2100579Y8806434D01*
X2114295Y8806434D01*
X2123440Y8811005D01*
X2132329Y8820150D01*
X2212340Y8856471D02*
G01*
X2207768Y8865615D01*
X2194306Y8870187D01*
X2180590Y8870187D01*
X2166874Y8865615D01*
X2162302Y8856471D01*
X2166874Y8847581D01*
X2176018Y8843010D01*
X2198877Y8838437D01*
X2207768Y8833865D01*
X2212340Y8824721D01*
X2212340Y8820150D01*
X2207768Y8811005D01*
X2194306Y8806434D01*
X2180590Y8806434D01*
X2166874Y8811005D01*
X2162302Y8820150D01*
X2292350Y8856471D02*
G01*
X2287777Y8865615D01*
X2274315Y8870187D01*
X2260600Y8870187D01*
X2246884Y8865615D01*
X2242311Y8856471D01*
X2246884Y8847581D01*
X2256027Y8843010D01*
X2278888Y8838437D01*
X2287777Y8833865D01*
X2292350Y8824721D01*
X2292350Y8820150D01*
X2287777Y8811005D01*
X2274315Y8806434D01*
X2260600Y8806434D01*
X2246884Y8811005D01*
X2242311Y8820150D01*
X2406141Y8901937D02*
G01*
X2406141Y8824721D01*
X2410713Y8811005D01*
X2419604Y8806434D01*
X2428747Y8806434D01*
X2392425Y8870187D02*
G01*
X2424175Y8870187D01*
X2481579Y8870187D02*
G01*
X2472436Y8865615D01*
X2463291Y8856471D01*
X2458720Y8843010D01*
X2458720Y8833865D01*
X2463291Y8820150D01*
X2472436Y8811005D01*
X2481579Y8806434D01*
X2495041Y8806434D01*
X2504186Y8811005D01*
X2513329Y8820150D01*
X2517902Y8833865D01*
X2517902Y8843010D01*
X2513329Y8856471D01*
X2504186Y8865615D01*
X2495041Y8870187D01*
X2481579Y8870187D01*
X2617977Y8901937D02*
G01*
X2617977Y8806434D01*
X2617977Y8856471D02*
G01*
X2626868Y8865615D01*
X2636011Y8870187D01*
X2649727Y8870187D01*
X2658872Y8865615D01*
X2667761Y8856471D01*
X2672334Y8843010D01*
X2672334Y8833865D01*
X2667761Y8820150D01*
X2658872Y8811005D01*
X2649727Y8806434D01*
X2636011Y8806434D01*
X2626868Y8811005D01*
X2617977Y8820150D01*
X2702306Y8843010D02*
G01*
X2756915Y8843010D01*
X2756915Y8851900D01*
X2752343Y8861044D01*
X2747772Y8865615D01*
X2738881Y8870187D01*
X2725165Y8870187D01*
X2716022Y8865615D01*
X2706877Y8856471D01*
X2702306Y8843010D01*
X2702306Y8833865D01*
X2706877Y8820150D01*
X2716022Y8811005D01*
X2725165Y8806434D01*
X2738881Y8806434D01*
X2747772Y8811005D01*
X2756915Y8820150D01*
X2856991Y8870187D02*
G01*
X2875025Y8806434D01*
X2893313Y8870187D02*
G01*
X2875025Y8806434D01*
X2893313Y8870187D02*
G01*
X2911602Y8806434D01*
X2929636Y8870187D02*
G01*
X2911602Y8806434D01*
X2959608Y8870187D02*
G01*
X2959608Y8806434D01*
X2959608Y8843010D02*
G01*
X2964179Y8856471D01*
X2973324Y8865615D01*
X2982468Y8870187D01*
X2995929Y8870187D01*
X3026156Y8901937D02*
G01*
X3030474Y8897365D01*
X3035045Y8901937D01*
X3030474Y8906510D01*
X3026156Y8901937D01*
X3030474Y8870187D02*
G01*
X3030474Y8806434D01*
X3078734Y8901937D02*
G01*
X3078734Y8824721D01*
X3083306Y8811005D01*
X3092450Y8806434D01*
X3101593Y8806434D01*
X3065018Y8870187D02*
G01*
X3097022Y8870187D01*
X3145027Y8901937D02*
G01*
X3145027Y8824721D01*
X3149600Y8811005D01*
X3158743Y8806434D01*
X3167888Y8806434D01*
X3131565Y8870187D02*
G01*
X3163315Y8870187D01*
X3197859Y8843010D02*
G01*
X3252470Y8843010D01*
X3252470Y8851900D01*
X3247897Y8861044D01*
X3243325Y8865615D01*
X3234181Y8870187D01*
X3220465Y8870187D01*
X3211575Y8865615D01*
X3202431Y8856471D01*
X3197859Y8843010D01*
X3197859Y8833865D01*
X3202431Y8820150D01*
X3211575Y8811005D01*
X3220465Y8806434D01*
X3234181Y8806434D01*
X3243325Y8811005D01*
X3252470Y8820150D01*
X3282441Y8870187D02*
G01*
X3282441Y8806434D01*
X3282441Y8851900D02*
G01*
X3296158Y8865615D01*
X3305047Y8870187D01*
X3318763Y8870187D01*
X3327908Y8865615D01*
X3332479Y8851900D01*
X3332479Y8806434D01*
X639571Y8650731D02*
G01*
X635254Y8659876D01*
X626110Y8668765D01*
X616965Y8673337D01*
X598678Y8673337D01*
X589787Y8668765D01*
X580644Y8659876D01*
X576071Y8650731D01*
X571500Y8637015D01*
X571500Y8614410D01*
X576071Y8600694D01*
X580644Y8591550D01*
X589787Y8582405D01*
X598678Y8577834D01*
X616965Y8577834D01*
X626110Y8582405D01*
X635254Y8591550D01*
X639571Y8600694D01*
X669797Y8673337D02*
G01*
X669797Y8577834D01*
X669797Y8623300D02*
G01*
X683259Y8637015D01*
X692404Y8641587D01*
X706120Y8641587D01*
X715009Y8637015D01*
X719581Y8623300D01*
X719581Y8577834D01*
X804163Y8641587D02*
G01*
X804163Y8577834D01*
X804163Y8627871D02*
G01*
X795020Y8637015D01*
X786129Y8641587D01*
X772413Y8641587D01*
X763270Y8637015D01*
X754125Y8627871D01*
X749808Y8614410D01*
X749808Y8605265D01*
X754125Y8591550D01*
X763270Y8582405D01*
X772413Y8577834D01*
X786129Y8577834D01*
X795020Y8582405D01*
X804163Y8591550D01*
X834136Y8641587D02*
G01*
X834136Y8577834D01*
X834136Y8623300D02*
G01*
X847852Y8637015D01*
X856995Y8641587D01*
X870711Y8641587D01*
X879602Y8637015D01*
X884174Y8623300D01*
X884174Y8577834D01*
X968756Y8641587D02*
G01*
X968756Y8568944D01*
X964184Y8555228D01*
X959611Y8550655D01*
X950468Y8546084D01*
X937006Y8546084D01*
X927861Y8550655D01*
X968756Y8627871D02*
G01*
X959611Y8637015D01*
X950468Y8641587D01*
X937006Y8641587D01*
X927861Y8637015D01*
X918718Y8627871D01*
X914145Y8614410D01*
X914145Y8605265D01*
X918718Y8591550D01*
X927861Y8582405D01*
X937006Y8577834D01*
X950468Y8577834D01*
X959611Y8582405D01*
X968756Y8591550D01*
X998727Y8614410D02*
G01*
X1053338Y8614410D01*
X1053338Y8623300D01*
X1048765Y8632444D01*
X1044193Y8637015D01*
X1035050Y8641587D01*
X1021588Y8641587D01*
X1012443Y8637015D01*
X1003300Y8627871D01*
X998727Y8614410D01*
X998727Y8605265D01*
X1003300Y8591550D01*
X1012443Y8582405D01*
X1021588Y8577834D01*
X1035050Y8577834D01*
X1044193Y8582405D01*
X1053338Y8591550D01*
X1153413Y8641587D02*
G01*
X1180591Y8577834D01*
X1207770Y8641587D02*
G01*
X1180591Y8577834D01*
X1292352Y8641587D02*
G01*
X1292352Y8577834D01*
X1292352Y8627871D02*
G01*
X1283208Y8637015D01*
X1274318Y8641587D01*
X1260602Y8641587D01*
X1251458Y8637015D01*
X1242313Y8627871D01*
X1237741Y8614410D01*
X1237741Y8605265D01*
X1242313Y8591550D01*
X1251458Y8582405D01*
X1260602Y8577834D01*
X1274318Y8577834D01*
X1283208Y8582405D01*
X1292352Y8591550D01*
X1322324Y8673337D02*
G01*
X1322324Y8577834D01*
X1352295Y8641587D02*
G01*
X1352295Y8596121D01*
X1356868Y8582405D01*
X1366011Y8577834D01*
X1379727Y8577834D01*
X1388872Y8582405D01*
X1402334Y8596121D01*
X1402334Y8641587D02*
G01*
X1402334Y8577834D01*
X1432306Y8614410D02*
G01*
X1486915Y8614410D01*
X1486915Y8623300D01*
X1482343Y8632444D01*
X1477772Y8637015D01*
X1468881Y8641587D01*
X1455165Y8641587D01*
X1446022Y8637015D01*
X1436877Y8627871D01*
X1432306Y8614410D01*
X1432306Y8605265D01*
X1436877Y8591550D01*
X1446022Y8582405D01*
X1455165Y8577834D01*
X1468881Y8577834D01*
X1477772Y8582405D01*
X1486915Y8591550D01*
X1586991Y8673337D02*
G01*
X1591563Y8668765D01*
X1596136Y8673337D01*
X1591563Y8677910D01*
X1586991Y8673337D01*
X1591563Y8641587D02*
G01*
X1591563Y8577834D01*
X1626108Y8641587D02*
G01*
X1626108Y8577834D01*
X1626108Y8623300D02*
G01*
X1639570Y8637015D01*
X1648713Y8641587D01*
X1662429Y8641587D01*
X1671574Y8637015D01*
X1676145Y8623300D01*
X1676145Y8577834D01*
X1775968Y8691626D02*
G01*
X1775968Y8546084D01*
X1780540Y8691626D02*
G01*
X1780540Y8546084D01*
X1775968Y8691626D02*
G01*
X1807972Y8691626D01*
X1775968Y8546084D02*
G01*
X1807972Y8546084D01*
X1874265Y8673337D02*
G01*
X1837943Y8577834D01*
X1874265Y8673337D02*
G01*
X1910588Y8577834D01*
X1851406Y8609837D02*
G01*
X1896872Y8609837D01*
X1995170Y8673337D02*
G01*
X1995170Y8577834D01*
X1995170Y8627871D02*
G01*
X1986025Y8637015D01*
X1976881Y8641587D01*
X1963420Y8641587D01*
X1954275Y8637015D01*
X1945131Y8627871D01*
X1940559Y8614410D01*
X1940559Y8605265D01*
X1945131Y8591550D01*
X1954275Y8582405D01*
X1963420Y8577834D01*
X1976881Y8577834D01*
X1986025Y8582405D01*
X1995170Y8591550D01*
X2079752Y8673337D02*
G01*
X2079752Y8577834D01*
X2079752Y8627871D02*
G01*
X2070608Y8637015D01*
X2061463Y8641587D01*
X2047747Y8641587D01*
X2038858Y8637015D01*
X2029713Y8627871D01*
X2025141Y8614410D01*
X2025141Y8605265D01*
X2029713Y8591550D01*
X2038858Y8582405D01*
X2047747Y8577834D01*
X2061463Y8577834D01*
X2070608Y8582405D01*
X2079752Y8591550D01*
X2109724Y8641587D02*
G01*
X2109724Y8577834D01*
X2109724Y8614410D02*
G01*
X2114295Y8627871D01*
X2123440Y8637015D01*
X2132329Y8641587D01*
X2146045Y8641587D01*
X2176018Y8614410D02*
G01*
X2230627Y8614410D01*
X2230627Y8623300D01*
X2226056Y8632444D01*
X2221484Y8637015D01*
X2212340Y8641587D01*
X2198877Y8641587D01*
X2189734Y8637015D01*
X2180590Y8627871D01*
X2176018Y8614410D01*
X2176018Y8605265D01*
X2180590Y8591550D01*
X2189734Y8582405D01*
X2198877Y8577834D01*
X2212340Y8577834D01*
X2221484Y8582405D01*
X2230627Y8591550D01*
X2310638Y8627871D02*
G01*
X2306065Y8637015D01*
X2292350Y8641587D01*
X2278888Y8641587D01*
X2265172Y8637015D01*
X2260600Y8627871D01*
X2265172Y8618981D01*
X2274315Y8614410D01*
X2296922Y8609837D01*
X2306065Y8605265D01*
X2310638Y8596121D01*
X2310638Y8591550D01*
X2306065Y8582405D01*
X2292350Y8577834D01*
X2278888Y8577834D01*
X2265172Y8582405D01*
X2260600Y8591550D01*
X2390647Y8627871D02*
G01*
X2386075Y8637015D01*
X2372359Y8641587D01*
X2358897Y8641587D01*
X2345181Y8637015D01*
X2340609Y8627871D01*
X2345181Y8618981D01*
X2354325Y8614410D01*
X2376931Y8609837D01*
X2386075Y8605265D01*
X2390647Y8596121D01*
X2390647Y8591550D01*
X2386075Y8582405D01*
X2372359Y8577834D01*
X2358897Y8577834D01*
X2345181Y8582405D01*
X2340609Y8591550D01*
X2420620Y8546084D02*
G01*
X2502408Y8546084D01*
X2596134Y8659876D02*
G01*
X2586990Y8668765D01*
X2573274Y8673337D01*
X2555240Y8673337D01*
X2541524Y8668765D01*
X2532379Y8659876D01*
X2532379Y8650731D01*
X2536952Y8641587D01*
X2541524Y8637015D01*
X2550668Y8632444D01*
X2577845Y8623300D01*
X2586990Y8618981D01*
X2591561Y8614410D01*
X2596134Y8605265D01*
X2596134Y8591550D01*
X2586990Y8582405D01*
X2573274Y8577834D01*
X2555240Y8577834D01*
X2541524Y8582405D01*
X2532379Y8591550D01*
X2626106Y8614410D02*
G01*
X2680715Y8614410D01*
X2680715Y8623300D01*
X2676143Y8632444D01*
X2671572Y8637015D01*
X2662427Y8641587D01*
X2648711Y8641587D01*
X2639568Y8637015D01*
X2630677Y8627871D01*
X2626106Y8614410D01*
X2626106Y8605265D01*
X2630677Y8591550D01*
X2639568Y8582405D01*
X2648711Y8577834D01*
X2662427Y8577834D01*
X2671572Y8582405D01*
X2680715Y8591550D01*
X2724150Y8673337D02*
G01*
X2724150Y8596121D01*
X2728722Y8582405D01*
X2737865Y8577834D01*
X2747009Y8577834D01*
X2710688Y8641587D02*
G01*
X2742438Y8641587D01*
X2804159Y8691626D02*
G01*
X2804159Y8546084D01*
X2808731Y8691626D02*
G01*
X2808731Y8546084D01*
X2776981Y8691626D02*
G01*
X2808731Y8691626D01*
X2776981Y8546084D02*
G01*
X2808731Y8546084D01*
X2922524Y8673337D02*
G01*
X2922524Y8596121D01*
X2926841Y8582405D01*
X2935986Y8577834D01*
X2945129Y8577834D01*
X2908808Y8641587D02*
G01*
X2940558Y8641587D01*
X2997961Y8641587D02*
G01*
X2988818Y8637015D01*
X2979674Y8627871D01*
X2975102Y8614410D01*
X2975102Y8605265D01*
X2979674Y8591550D01*
X2988818Y8582405D01*
X2997961Y8577834D01*
X3011424Y8577834D01*
X3020568Y8582405D01*
X3029711Y8591550D01*
X3034284Y8605265D01*
X3034284Y8614410D01*
X3029711Y8627871D01*
X3020568Y8637015D01*
X3011424Y8641587D01*
X2997961Y8641587D01*
X626110Y8444737D02*
G01*
X626110Y8349234D01*
X626110Y8399271D02*
G01*
X616965Y8408415D01*
X607821Y8412987D01*
X594105Y8412987D01*
X585215Y8408415D01*
X576071Y8399271D01*
X571500Y8385810D01*
X571500Y8376665D01*
X576071Y8362950D01*
X585215Y8353805D01*
X594105Y8349234D01*
X607821Y8349234D01*
X616965Y8353805D01*
X626110Y8362950D01*
X656081Y8385810D02*
G01*
X710691Y8385810D01*
X710691Y8394700D01*
X706120Y8403844D01*
X701547Y8408415D01*
X692404Y8412987D01*
X678688Y8412987D01*
X669797Y8408415D01*
X660654Y8399271D01*
X656081Y8385810D01*
X656081Y8376665D01*
X660654Y8362950D01*
X669797Y8353805D01*
X678688Y8349234D01*
X692404Y8349234D01*
X701547Y8353805D01*
X710691Y8362950D01*
X776986Y8444737D02*
G01*
X767841Y8444737D01*
X758697Y8440165D01*
X754125Y8426704D01*
X754125Y8349234D01*
X740663Y8412987D02*
G01*
X772413Y8412987D01*
X806958Y8444737D02*
G01*
X811529Y8440165D01*
X816102Y8444737D01*
X811529Y8449310D01*
X806958Y8444737D01*
X811529Y8412987D02*
G01*
X811529Y8349234D01*
X846074Y8412987D02*
G01*
X846074Y8349234D01*
X846074Y8394700D02*
G01*
X859790Y8408415D01*
X868679Y8412987D01*
X882395Y8412987D01*
X891540Y8408415D01*
X896111Y8394700D01*
X896111Y8349234D01*
X926084Y8385810D02*
G01*
X980693Y8385810D01*
X980693Y8394700D01*
X976122Y8403844D01*
X971550Y8408415D01*
X962406Y8412987D01*
X948690Y8412987D01*
X939800Y8408415D01*
X930656Y8399271D01*
X926084Y8385810D01*
X926084Y8376665D01*
X930656Y8362950D01*
X939800Y8353805D01*
X948690Y8349234D01*
X962406Y8349234D01*
X971550Y8353805D01*
X980693Y8362950D01*
X1094231Y8444737D02*
G01*
X1094231Y8367521D01*
X1098804Y8353805D01*
X1107947Y8349234D01*
X1116838Y8349234D01*
X1080515Y8412987D02*
G01*
X1112520Y8412987D01*
X1147063Y8444737D02*
G01*
X1147063Y8349234D01*
X1147063Y8394700D02*
G01*
X1160525Y8408415D01*
X1169670Y8412987D01*
X1183386Y8412987D01*
X1192529Y8408415D01*
X1196847Y8394700D01*
X1196847Y8349234D01*
X1227074Y8385810D02*
G01*
X1281429Y8385810D01*
X1281429Y8394700D01*
X1276858Y8403844D01*
X1272286Y8408415D01*
X1263395Y8412987D01*
X1249679Y8412987D01*
X1240536Y8408415D01*
X1231391Y8399271D01*
X1227074Y8385810D01*
X1227074Y8376665D01*
X1231391Y8362950D01*
X1240536Y8353805D01*
X1249679Y8349234D01*
X1263395Y8349234D01*
X1272286Y8353805D01*
X1281429Y8362950D01*
X1381506Y8426704D02*
G01*
X1390650Y8431276D01*
X1404111Y8444737D01*
X1404111Y8349234D01*
X1488693Y8444737D02*
G01*
X1443227Y8444737D01*
X1438656Y8403844D01*
X1443227Y8408415D01*
X1456943Y8412987D01*
X1470659Y8412987D01*
X1484122Y8408415D01*
X1493265Y8399271D01*
X1497838Y8385810D01*
X1497838Y8376665D01*
X1493265Y8362950D01*
X1484122Y8353805D01*
X1470659Y8349234D01*
X1456943Y8349234D01*
X1443227Y8353805D01*
X1438656Y8358378D01*
X1434338Y8367521D01*
X1527809Y8390381D02*
G01*
X1609597Y8390381D01*
X1639570Y8444737D02*
G01*
X1639570Y8349234D01*
X1639570Y8399271D02*
G01*
X1648713Y8408415D01*
X1657858Y8412987D01*
X1671574Y8412987D01*
X1680463Y8408415D01*
X1689608Y8399271D01*
X1694179Y8385810D01*
X1694179Y8376665D01*
X1689608Y8362950D01*
X1680463Y8353805D01*
X1671574Y8349234D01*
X1657858Y8349234D01*
X1648713Y8353805D01*
X1639570Y8362950D01*
X1724152Y8444737D02*
G01*
X1728724Y8440165D01*
X1733295Y8444737D01*
X1728724Y8449310D01*
X1724152Y8444737D01*
X1728724Y8412987D02*
G01*
X1728724Y8349234D01*
X1776984Y8444737D02*
G01*
X1776984Y8367521D01*
X1781556Y8353805D01*
X1790700Y8349234D01*
X1799590Y8349234D01*
X1763268Y8412987D02*
G01*
X1795018Y8412987D01*
X1829561Y8390381D02*
G01*
X1911604Y8390381D01*
X1995931Y8412987D02*
G01*
X1995931Y8349234D01*
X1995931Y8399271D02*
G01*
X1987041Y8408415D01*
X1977897Y8412987D01*
X1964181Y8412987D01*
X1955038Y8408415D01*
X1946147Y8399271D01*
X1941575Y8385810D01*
X1941575Y8376665D01*
X1946147Y8362950D01*
X1955038Y8353805D01*
X1964181Y8349234D01*
X1977897Y8349234D01*
X1987041Y8353805D01*
X1995931Y8362950D01*
X2080513Y8444737D02*
G01*
X2080513Y8349234D01*
X2080513Y8399271D02*
G01*
X2071624Y8408415D01*
X2062479Y8412987D01*
X2048763Y8412987D01*
X2039620Y8408415D01*
X2030475Y8399271D01*
X2026158Y8385810D01*
X2026158Y8376665D01*
X2030475Y8362950D01*
X2039620Y8353805D01*
X2048763Y8349234D01*
X2062479Y8349234D01*
X2071624Y8353805D01*
X2080513Y8362950D01*
X2165095Y8444737D02*
G01*
X2165095Y8349234D01*
X2165095Y8399271D02*
G01*
X2155952Y8408415D01*
X2147061Y8412987D01*
X2133345Y8412987D01*
X2124202Y8408415D01*
X2115058Y8399271D01*
X2110486Y8385810D01*
X2110486Y8376665D01*
X2115058Y8362950D01*
X2124202Y8353805D01*
X2133345Y8349234D01*
X2147061Y8349234D01*
X2155952Y8353805D01*
X2165095Y8362950D01*
X2195068Y8412987D02*
G01*
X2195068Y8349234D01*
X2195068Y8385810D02*
G01*
X2199640Y8399271D01*
X2208784Y8408415D01*
X2217927Y8412987D01*
X2231390Y8412987D01*
X2261615Y8385810D02*
G01*
X2315972Y8385810D01*
X2315972Y8394700D01*
X2311400Y8403844D01*
X2306827Y8408415D01*
X2297938Y8412987D01*
X2284222Y8412987D01*
X2275077Y8408415D01*
X2265934Y8399271D01*
X2261615Y8385810D01*
X2261615Y8376665D01*
X2265934Y8362950D01*
X2275077Y8353805D01*
X2284222Y8349234D01*
X2297938Y8349234D01*
X2306827Y8353805D01*
X2315972Y8362950D01*
X2395981Y8399271D02*
G01*
X2391409Y8408415D01*
X2377947Y8412987D01*
X2364231Y8412987D01*
X2350515Y8408415D01*
X2345943Y8399271D01*
X2350515Y8390381D01*
X2359659Y8385810D01*
X2382520Y8381237D01*
X2391409Y8376665D01*
X2395981Y8367521D01*
X2395981Y8362950D01*
X2391409Y8353805D01*
X2377947Y8349234D01*
X2364231Y8349234D01*
X2350515Y8353805D01*
X2345943Y8362950D01*
X2475991Y8399271D02*
G01*
X2471420Y8408415D01*
X2457958Y8412987D01*
X2444241Y8412987D01*
X2430525Y8408415D01*
X2425954Y8399271D01*
X2430525Y8390381D01*
X2439670Y8385810D01*
X2462529Y8381237D01*
X2471420Y8376665D01*
X2475991Y8367521D01*
X2475991Y8362950D01*
X2471420Y8353805D01*
X2457958Y8349234D01*
X2444241Y8349234D01*
X2430525Y8353805D01*
X2425954Y8362950D01*
X2598674Y8412987D02*
G01*
X2589784Y8408415D01*
X2580640Y8399271D01*
X2576068Y8385810D01*
X2576068Y8376665D01*
X2580640Y8362950D01*
X2589784Y8353805D01*
X2598674Y8349234D01*
X2612390Y8349234D01*
X2621534Y8353805D01*
X2630677Y8362950D01*
X2635250Y8376665D01*
X2635250Y8385810D01*
X2630677Y8399271D01*
X2621534Y8408415D01*
X2612390Y8412987D01*
X2598674Y8412987D01*
X2701543Y8444737D02*
G01*
X2692400Y8444737D01*
X2683256Y8440165D01*
X2678684Y8426704D01*
X2678684Y8349234D01*
X2665222Y8412987D02*
G01*
X2696972Y8412987D01*
X2815081Y8444737D02*
G01*
X2815081Y8367521D01*
X2819654Y8353805D01*
X2828797Y8349234D01*
X2837941Y8349234D01*
X2801620Y8412987D02*
G01*
X2833370Y8412987D01*
X2867913Y8444737D02*
G01*
X2867913Y8349234D01*
X2867913Y8394700D02*
G01*
X2881375Y8408415D01*
X2890520Y8412987D01*
X2904236Y8412987D01*
X2913379Y8408415D01*
X2917952Y8394700D01*
X2917952Y8349234D01*
X2947924Y8385810D02*
G01*
X3002534Y8385810D01*
X3002534Y8394700D01*
X2997961Y8403844D01*
X2993390Y8408415D01*
X2984245Y8412987D01*
X2970529Y8412987D01*
X2961386Y8408415D01*
X2952495Y8399271D01*
X2947924Y8385810D01*
X2947924Y8376665D01*
X2952495Y8362950D01*
X2961386Y8353805D01*
X2970529Y8349234D01*
X2984245Y8349234D01*
X2993390Y8353805D01*
X3002534Y8362950D01*
X3156965Y8444737D02*
G01*
X3156965Y8349234D01*
X3156965Y8399271D02*
G01*
X3147822Y8408415D01*
X3138677Y8412987D01*
X3125215Y8412987D01*
X3116072Y8408415D01*
X3106927Y8399271D01*
X3102356Y8385810D01*
X3102356Y8376665D01*
X3106927Y8362950D01*
X3116072Y8353805D01*
X3125215Y8349234D01*
X3138677Y8349234D01*
X3147822Y8353805D01*
X3156965Y8362950D01*
X3241547Y8412987D02*
G01*
X3241547Y8349234D01*
X3241547Y8399271D02*
G01*
X3232404Y8408415D01*
X3223259Y8412987D01*
X3209797Y8412987D01*
X3200654Y8408415D01*
X3191509Y8399271D01*
X3186938Y8385810D01*
X3186938Y8376665D01*
X3191509Y8362950D01*
X3200654Y8353805D01*
X3209797Y8349234D01*
X3223259Y8349234D01*
X3232404Y8353805D01*
X3241547Y8362950D01*
X3285236Y8444737D02*
G01*
X3285236Y8367521D01*
X3289808Y8353805D01*
X3298697Y8349234D01*
X3307841Y8349234D01*
X3271520Y8412987D02*
G01*
X3303270Y8412987D01*
X3392424Y8412987D02*
G01*
X3392424Y8349234D01*
X3392424Y8399271D02*
G01*
X3383279Y8408415D01*
X3374136Y8412987D01*
X3360674Y8412987D01*
X3351529Y8408415D01*
X3342386Y8399271D01*
X3337813Y8385810D01*
X3337813Y8376665D01*
X3342386Y8362950D01*
X3351529Y8353805D01*
X3360674Y8349234D01*
X3374136Y8349234D01*
X3383279Y8353805D01*
X3392424Y8362950D01*
X639571Y8180831D02*
G01*
X635254Y8189976D01*
X626110Y8198865D01*
X616965Y8203437D01*
X598678Y8203437D01*
X589787Y8198865D01*
X580644Y8189976D01*
X576071Y8180831D01*
X571500Y8167115D01*
X571500Y8144510D01*
X576071Y8130794D01*
X580644Y8121650D01*
X589787Y8112505D01*
X598678Y8107934D01*
X616965Y8107934D01*
X626110Y8112505D01*
X635254Y8121650D01*
X639571Y8130794D01*
X669797Y8203437D02*
G01*
X669797Y8107934D01*
X669797Y8153400D02*
G01*
X683259Y8167115D01*
X692404Y8171687D01*
X706120Y8171687D01*
X715009Y8167115D01*
X719581Y8153400D01*
X719581Y8107934D01*
X804163Y8171687D02*
G01*
X804163Y8107934D01*
X804163Y8157971D02*
G01*
X795020Y8167115D01*
X786129Y8171687D01*
X772413Y8171687D01*
X763270Y8167115D01*
X754125Y8157971D01*
X749808Y8144510D01*
X749808Y8135365D01*
X754125Y8121650D01*
X763270Y8112505D01*
X772413Y8107934D01*
X786129Y8107934D01*
X795020Y8112505D01*
X804163Y8121650D01*
X834136Y8171687D02*
G01*
X834136Y8107934D01*
X834136Y8153400D02*
G01*
X847852Y8167115D01*
X856995Y8171687D01*
X870711Y8171687D01*
X879602Y8167115D01*
X884174Y8153400D01*
X884174Y8107934D01*
X968756Y8171687D02*
G01*
X968756Y8099044D01*
X964184Y8085328D01*
X959611Y8080755D01*
X950468Y8076184D01*
X937006Y8076184D01*
X927861Y8080755D01*
X968756Y8157971D02*
G01*
X959611Y8167115D01*
X950468Y8171687D01*
X937006Y8171687D01*
X927861Y8167115D01*
X918718Y8157971D01*
X914145Y8144510D01*
X914145Y8135365D01*
X918718Y8121650D01*
X927861Y8112505D01*
X937006Y8107934D01*
X950468Y8107934D01*
X959611Y8112505D01*
X968756Y8121650D01*
X998727Y8144510D02*
G01*
X1053338Y8144510D01*
X1053338Y8153400D01*
X1048765Y8162544D01*
X1044193Y8167115D01*
X1035050Y8171687D01*
X1021588Y8171687D01*
X1012443Y8167115D01*
X1003300Y8157971D01*
X998727Y8144510D01*
X998727Y8135365D01*
X1003300Y8121650D01*
X1012443Y8112505D01*
X1021588Y8107934D01*
X1035050Y8107934D01*
X1044193Y8112505D01*
X1053338Y8121650D01*
X1153413Y8171687D02*
G01*
X1180591Y8107934D01*
X1207770Y8171687D02*
G01*
X1180591Y8107934D01*
X1292352Y8171687D02*
G01*
X1292352Y8107934D01*
X1292352Y8157971D02*
G01*
X1283208Y8167115D01*
X1274318Y8171687D01*
X1260602Y8171687D01*
X1251458Y8167115D01*
X1242313Y8157971D01*
X1237741Y8144510D01*
X1237741Y8135365D01*
X1242313Y8121650D01*
X1251458Y8112505D01*
X1260602Y8107934D01*
X1274318Y8107934D01*
X1283208Y8112505D01*
X1292352Y8121650D01*
X1322324Y8203437D02*
G01*
X1322324Y8107934D01*
X1352295Y8171687D02*
G01*
X1352295Y8126221D01*
X1356868Y8112505D01*
X1366011Y8107934D01*
X1379727Y8107934D01*
X1388872Y8112505D01*
X1402334Y8126221D01*
X1402334Y8171687D02*
G01*
X1402334Y8107934D01*
X1432306Y8144510D02*
G01*
X1486915Y8144510D01*
X1486915Y8153400D01*
X1482343Y8162544D01*
X1477772Y8167115D01*
X1468881Y8171687D01*
X1455165Y8171687D01*
X1446022Y8167115D01*
X1436877Y8157971D01*
X1432306Y8144510D01*
X1432306Y8135365D01*
X1436877Y8121650D01*
X1446022Y8112505D01*
X1455165Y8107934D01*
X1468881Y8107934D01*
X1477772Y8112505D01*
X1486915Y8121650D01*
X1586991Y8203437D02*
G01*
X1591563Y8198865D01*
X1596136Y8203437D01*
X1591563Y8208010D01*
X1586991Y8203437D01*
X1591563Y8171687D02*
G01*
X1591563Y8107934D01*
X1626108Y8171687D02*
G01*
X1626108Y8107934D01*
X1626108Y8153400D02*
G01*
X1639570Y8167115D01*
X1648713Y8171687D01*
X1662429Y8171687D01*
X1671574Y8167115D01*
X1676145Y8153400D01*
X1676145Y8107934D01*
X1775968Y8221726D02*
G01*
X1775968Y8076184D01*
X1780540Y8221726D02*
G01*
X1780540Y8076184D01*
X1775968Y8221726D02*
G01*
X1807972Y8221726D01*
X1775968Y8076184D02*
G01*
X1807972Y8076184D01*
X1837943Y8203437D02*
G01*
X1837943Y8107934D01*
X1837943Y8203437D02*
G01*
X1869693Y8203437D01*
X1883409Y8198865D01*
X1892300Y8189976D01*
X1896872Y8180831D01*
X1901443Y8167115D01*
X1901443Y8144510D01*
X1896872Y8130794D01*
X1892300Y8121650D01*
X1883409Y8112505D01*
X1869693Y8107934D01*
X1837943Y8107934D01*
X1986025Y8171687D02*
G01*
X1986025Y8107934D01*
X1986025Y8157971D02*
G01*
X1976881Y8167115D01*
X1967738Y8171687D01*
X1954275Y8171687D01*
X1945131Y8167115D01*
X1935988Y8157971D01*
X1931415Y8144510D01*
X1931415Y8135365D01*
X1935988Y8121650D01*
X1945131Y8112505D01*
X1954275Y8107934D01*
X1967738Y8107934D01*
X1976881Y8112505D01*
X1986025Y8121650D01*
X2029713Y8203437D02*
G01*
X2029713Y8126221D01*
X2034286Y8112505D01*
X2043429Y8107934D01*
X2052320Y8107934D01*
X2015997Y8171687D02*
G01*
X2047747Y8171687D01*
X2136902Y8171687D02*
G01*
X2136902Y8107934D01*
X2136902Y8157971D02*
G01*
X2127758Y8167115D01*
X2118868Y8171687D01*
X2105152Y8171687D01*
X2096008Y8167115D01*
X2086863Y8157971D01*
X2082291Y8144510D01*
X2082291Y8135365D01*
X2086863Y8121650D01*
X2096008Y8112505D01*
X2105152Y8107934D01*
X2118868Y8107934D01*
X2127758Y8112505D01*
X2136902Y8121650D01*
X2166874Y8076184D02*
G01*
X2248661Y8076184D01*
X2342388Y8189976D02*
G01*
X2333243Y8198865D01*
X2319781Y8203437D01*
X2301493Y8203437D01*
X2287777Y8198865D01*
X2278888Y8189976D01*
X2278888Y8180831D01*
X2283206Y8171687D01*
X2287777Y8167115D01*
X2296922Y8162544D01*
X2324354Y8153400D01*
X2333243Y8149081D01*
X2337815Y8144510D01*
X2342388Y8135365D01*
X2342388Y8121650D01*
X2333243Y8112505D01*
X2319781Y8107934D01*
X2301493Y8107934D01*
X2287777Y8112505D01*
X2278888Y8121650D01*
X2372359Y8144510D02*
G01*
X2426970Y8144510D01*
X2426970Y8153400D01*
X2422397Y8162544D01*
X2417825Y8167115D01*
X2408681Y8171687D01*
X2395220Y8171687D01*
X2386075Y8167115D01*
X2376931Y8157971D01*
X2372359Y8144510D01*
X2372359Y8135365D01*
X2376931Y8121650D01*
X2386075Y8112505D01*
X2395220Y8107934D01*
X2408681Y8107934D01*
X2417825Y8112505D01*
X2426970Y8121650D01*
X2470658Y8203437D02*
G01*
X2470658Y8126221D01*
X2475229Y8112505D01*
X2484120Y8107934D01*
X2493263Y8107934D01*
X2456941Y8171687D02*
G01*
X2488691Y8171687D01*
X2550668Y8221726D02*
G01*
X2550668Y8076184D01*
X2555240Y8221726D02*
G01*
X2555240Y8076184D01*
X2523236Y8221726D02*
G01*
X2555240Y8221726D01*
X2523236Y8076184D02*
G01*
X2555240Y8076184D01*
X2668777Y8203437D02*
G01*
X2668777Y8126221D01*
X2673350Y8112505D01*
X2682493Y8107934D01*
X2691384Y8107934D01*
X2655061Y8171687D02*
G01*
X2687065Y8171687D01*
X2744215Y8171687D02*
G01*
X2735072Y8167115D01*
X2725927Y8157971D01*
X2721609Y8144510D01*
X2721609Y8135365D01*
X2725927Y8121650D01*
X2735072Y8112505D01*
X2744215Y8107934D01*
X2757931Y8107934D01*
X2767075Y8112505D01*
X2775965Y8121650D01*
X2780538Y8135365D01*
X2780538Y8144510D01*
X2775965Y8157971D01*
X2767075Y8167115D01*
X2757931Y8171687D01*
X2744215Y8171687D01*
X2935224Y8203437D02*
G01*
X2935224Y8107934D01*
X2935224Y8157971D02*
G01*
X2926079Y8167115D01*
X2916936Y8171687D01*
X2903220Y8171687D01*
X2894329Y8167115D01*
X2885186Y8157971D01*
X2880613Y8144510D01*
X2880613Y8135365D01*
X2885186Y8121650D01*
X2894329Y8112505D01*
X2903220Y8107934D01*
X2916936Y8107934D01*
X2926079Y8112505D01*
X2935224Y8121650D01*
X2965195Y8144510D02*
G01*
X3019806Y8144510D01*
X3019806Y8153400D01*
X3015234Y8162544D01*
X3010661Y8167115D01*
X3001518Y8171687D01*
X2987802Y8171687D01*
X2978658Y8167115D01*
X2969768Y8157971D01*
X2965195Y8144510D01*
X2965195Y8135365D01*
X2969768Y8121650D01*
X2978658Y8112505D01*
X2987802Y8107934D01*
X3001518Y8107934D01*
X3010661Y8112505D01*
X3019806Y8121650D01*
X3086100Y8203437D02*
G01*
X3076956Y8203437D01*
X3067811Y8198865D01*
X3063240Y8185404D01*
X3063240Y8107934D01*
X3049777Y8171687D02*
G01*
X3081527Y8171687D01*
X3116072Y8203437D02*
G01*
X3120643Y8198865D01*
X3125215Y8203437D01*
X3120643Y8208010D01*
X3116072Y8203437D01*
X3120643Y8171687D02*
G01*
X3120643Y8107934D01*
X3155188Y8171687D02*
G01*
X3155188Y8107934D01*
X3155188Y8153400D02*
G01*
X3168650Y8167115D01*
X3177793Y8171687D01*
X3191509Y8171687D01*
X3200654Y8167115D01*
X3205225Y8153400D01*
X3205225Y8107934D01*
X3235197Y8144510D02*
G01*
X3289808Y8144510D01*
X3289808Y8153400D01*
X3285236Y8162544D01*
X3280663Y8167115D01*
X3271520Y8171687D01*
X3257804Y8171687D01*
X3248659Y8167115D01*
X3239770Y8157971D01*
X3235197Y8144510D01*
X3235197Y8135365D01*
X3239770Y8121650D01*
X3248659Y8112505D01*
X3257804Y8107934D01*
X3271520Y8107934D01*
X3280663Y8112505D01*
X3289808Y8121650D01*
X585215Y7974837D02*
G01*
X585215Y7897621D01*
X589787Y7883905D01*
X598678Y7879334D01*
X607821Y7879334D01*
X571500Y7943087D02*
G01*
X603250Y7943087D01*
X637794Y7974837D02*
G01*
X637794Y7879334D01*
X637794Y7924800D02*
G01*
X651510Y7938515D01*
X660654Y7943087D01*
X674115Y7943087D01*
X683259Y7938515D01*
X687831Y7924800D01*
X687831Y7879334D01*
X717804Y7915910D02*
G01*
X772413Y7915910D01*
X772413Y7924800D01*
X767841Y7933944D01*
X763270Y7938515D01*
X754125Y7943087D01*
X740663Y7943087D01*
X731520Y7938515D01*
X722375Y7929371D01*
X717804Y7915910D01*
X717804Y7906765D01*
X722375Y7893050D01*
X731520Y7883905D01*
X740663Y7879334D01*
X754125Y7879334D01*
X763270Y7883905D01*
X772413Y7893050D01*
X895095Y7974837D02*
G01*
X881379Y7970265D01*
X877061Y7961376D01*
X877061Y7952231D01*
X881379Y7943087D01*
X890524Y7938515D01*
X908811Y7933944D01*
X922527Y7929371D01*
X931418Y7920481D01*
X935990Y7911337D01*
X935990Y7897621D01*
X931418Y7888478D01*
X926845Y7883905D01*
X913384Y7879334D01*
X895095Y7879334D01*
X881379Y7883905D01*
X877061Y7888478D01*
X872490Y7897621D01*
X872490Y7911337D01*
X877061Y7920481D01*
X885952Y7929371D01*
X899668Y7933944D01*
X917956Y7938515D01*
X926845Y7943087D01*
X931418Y7952231D01*
X931418Y7961376D01*
X926845Y7970265D01*
X913384Y7974837D01*
X895095Y7974837D01*
X965961Y7920481D02*
G01*
X1047750Y7920481D01*
X1077975Y7974837D02*
G01*
X1077975Y7879334D01*
X1077975Y7929371D02*
G01*
X1086865Y7938515D01*
X1096009Y7943087D01*
X1109725Y7943087D01*
X1118870Y7938515D01*
X1127759Y7929371D01*
X1132331Y7915910D01*
X1132331Y7906765D01*
X1127759Y7893050D01*
X1118870Y7883905D01*
X1109725Y7879334D01*
X1096009Y7879334D01*
X1086865Y7883905D01*
X1077975Y7893050D01*
X1162304Y7974837D02*
G01*
X1166875Y7970265D01*
X1171447Y7974837D01*
X1166875Y7979410D01*
X1162304Y7974837D01*
X1166875Y7943087D02*
G01*
X1166875Y7879334D01*
X1215136Y7974837D02*
G01*
X1215136Y7897621D01*
X1219708Y7883905D01*
X1228852Y7879334D01*
X1237741Y7879334D01*
X1201420Y7943087D02*
G01*
X1233424Y7943087D01*
X1267968Y7920481D02*
G01*
X1349756Y7920481D01*
X1434338Y7974837D02*
G01*
X1434338Y7879334D01*
X1434338Y7929371D02*
G01*
X1425193Y7938515D01*
X1416050Y7943087D01*
X1402334Y7943087D01*
X1393443Y7938515D01*
X1384300Y7929371D01*
X1379727Y7915910D01*
X1379727Y7906765D01*
X1384300Y7893050D01*
X1393443Y7883905D01*
X1402334Y7879334D01*
X1416050Y7879334D01*
X1425193Y7883905D01*
X1434338Y7893050D01*
X1518665Y7943087D02*
G01*
X1518665Y7879334D01*
X1518665Y7929371D02*
G01*
X1509775Y7938515D01*
X1500631Y7943087D01*
X1486915Y7943087D01*
X1477772Y7938515D01*
X1468881Y7929371D01*
X1464309Y7915910D01*
X1464309Y7906765D01*
X1468881Y7893050D01*
X1477772Y7883905D01*
X1486915Y7879334D01*
X1500631Y7879334D01*
X1509775Y7883905D01*
X1518665Y7893050D01*
X1562354Y7974837D02*
G01*
X1562354Y7897621D01*
X1566925Y7883905D01*
X1576070Y7879334D01*
X1585213Y7879334D01*
X1548891Y7943087D02*
G01*
X1580641Y7943087D01*
X1669795Y7943087D02*
G01*
X1669795Y7879334D01*
X1669795Y7929371D02*
G01*
X1660652Y7938515D01*
X1651508Y7943087D01*
X1637791Y7943087D01*
X1628647Y7938515D01*
X1619758Y7929371D01*
X1615186Y7915910D01*
X1615186Y7906765D01*
X1619758Y7893050D01*
X1628647Y7883905D01*
X1637791Y7879334D01*
X1651508Y7879334D01*
X1660652Y7883905D01*
X1669795Y7893050D01*
X1783334Y7974837D02*
G01*
X1783334Y7897621D01*
X1787906Y7883905D01*
X1797050Y7879334D01*
X1805940Y7879334D01*
X1769618Y7943087D02*
G01*
X1801622Y7943087D01*
X1858772Y7943087D02*
G01*
X1849627Y7938515D01*
X1840484Y7929371D01*
X1836165Y7915910D01*
X1836165Y7906765D01*
X1840484Y7893050D01*
X1849627Y7883905D01*
X1858772Y7879334D01*
X1872488Y7879334D01*
X1881377Y7883905D01*
X1890522Y7893050D01*
X1895093Y7906765D01*
X1895093Y7915910D01*
X1890522Y7929371D01*
X1881377Y7938515D01*
X1872488Y7943087D01*
X1858772Y7943087D01*
X1995170Y7974837D02*
G01*
X1995170Y7879334D01*
X1995170Y7929371D02*
G01*
X2004313Y7938515D01*
X2013204Y7943087D01*
X2026920Y7943087D01*
X2036063Y7938515D01*
X2045208Y7929371D01*
X2049779Y7915910D01*
X2049779Y7906765D01*
X2045208Y7893050D01*
X2036063Y7883905D01*
X2026920Y7879334D01*
X2013204Y7879334D01*
X2004313Y7883905D01*
X1995170Y7893050D01*
X2079752Y7915910D02*
G01*
X2134108Y7915910D01*
X2134108Y7924800D01*
X2129790Y7933944D01*
X2125218Y7938515D01*
X2116074Y7943087D01*
X2102358Y7943087D01*
X2093213Y7938515D01*
X2084324Y7929371D01*
X2079752Y7915910D01*
X2079752Y7906765D01*
X2084324Y7893050D01*
X2093213Y7883905D01*
X2102358Y7879334D01*
X2116074Y7879334D01*
X2125218Y7883905D01*
X2134108Y7893050D01*
X2234184Y7943087D02*
G01*
X2252472Y7879334D01*
X2270506Y7943087D02*
G01*
X2252472Y7879334D01*
X2270506Y7943087D02*
G01*
X2288793Y7879334D01*
X2306827Y7943087D02*
G01*
X2288793Y7879334D01*
X2337054Y7943087D02*
G01*
X2337054Y7879334D01*
X2337054Y7915910D02*
G01*
X2341625Y7929371D01*
X2350515Y7938515D01*
X2359659Y7943087D01*
X2373375Y7943087D01*
X2403347Y7974837D02*
G01*
X2407920Y7970265D01*
X2412491Y7974837D01*
X2407920Y7979410D01*
X2403347Y7974837D01*
X2407920Y7943087D02*
G01*
X2407920Y7879334D01*
X2455925Y7974837D02*
G01*
X2455925Y7897621D01*
X2460497Y7883905D01*
X2469641Y7879334D01*
X2478786Y7879334D01*
X2442463Y7943087D02*
G01*
X2474213Y7943087D01*
X2522474Y7974837D02*
G01*
X2522474Y7897621D01*
X2527045Y7883905D01*
X2535936Y7879334D01*
X2545079Y7879334D01*
X2508758Y7943087D02*
G01*
X2540508Y7943087D01*
X2575052Y7915910D02*
G01*
X2629661Y7915910D01*
X2629661Y7924800D01*
X2625090Y7933944D01*
X2620518Y7938515D01*
X2611374Y7943087D01*
X2597911Y7943087D01*
X2588768Y7938515D01*
X2579624Y7929371D01*
X2575052Y7915910D01*
X2575052Y7906765D01*
X2579624Y7893050D01*
X2588768Y7883905D01*
X2597911Y7879334D01*
X2611374Y7879334D01*
X2620518Y7883905D01*
X2629661Y7893050D01*
X2659634Y7943087D02*
G01*
X2659634Y7879334D01*
X2659634Y7924800D02*
G01*
X2673350Y7938515D01*
X2682493Y7943087D01*
X2695956Y7943087D01*
X2705100Y7938515D01*
X2709672Y7924800D01*
X2709672Y7879334D01*
X2809747Y7974837D02*
G01*
X2814320Y7970265D01*
X2818891Y7974837D01*
X2814320Y7979410D01*
X2809747Y7974837D01*
X2814320Y7943087D02*
G01*
X2814320Y7879334D01*
X2848863Y7943087D02*
G01*
X2848863Y7879334D01*
X2848863Y7924800D02*
G01*
X2862325Y7938515D01*
X2871470Y7943087D01*
X2885186Y7943087D01*
X2894329Y7938515D01*
X2898647Y7924800D01*
X2898647Y7879334D01*
X626110Y7726171D02*
G01*
X616965Y7735315D01*
X607821Y7739887D01*
X594105Y7739887D01*
X585215Y7735315D01*
X576071Y7726171D01*
X571500Y7712710D01*
X571500Y7703565D01*
X576071Y7689850D01*
X585215Y7680705D01*
X594105Y7676134D01*
X607821Y7676134D01*
X616965Y7680705D01*
X626110Y7689850D01*
X678688Y7739887D02*
G01*
X669797Y7735315D01*
X660654Y7726171D01*
X656081Y7712710D01*
X656081Y7703565D01*
X660654Y7689850D01*
X669797Y7680705D01*
X678688Y7676134D01*
X692404Y7676134D01*
X701547Y7680705D01*
X710691Y7689850D01*
X715009Y7703565D01*
X715009Y7712710D01*
X710691Y7726171D01*
X701547Y7735315D01*
X692404Y7739887D01*
X678688Y7739887D01*
X745236Y7739887D02*
G01*
X745236Y7676134D01*
X745236Y7712710D02*
G01*
X749808Y7726171D01*
X758697Y7735315D01*
X767841Y7739887D01*
X781558Y7739887D01*
X811529Y7739887D02*
G01*
X811529Y7676134D01*
X811529Y7712710D02*
G01*
X816102Y7726171D01*
X825245Y7735315D01*
X834136Y7739887D01*
X847852Y7739887D01*
X877824Y7712710D02*
G01*
X932434Y7712710D01*
X932434Y7721600D01*
X927861Y7730744D01*
X923290Y7735315D01*
X914145Y7739887D01*
X900684Y7739887D01*
X891540Y7735315D01*
X882395Y7726171D01*
X877824Y7712710D01*
X877824Y7703565D01*
X882395Y7689850D01*
X891540Y7680705D01*
X900684Y7676134D01*
X914145Y7676134D01*
X923290Y7680705D01*
X932434Y7689850D01*
X1012443Y7726171D02*
G01*
X1007872Y7735315D01*
X994156Y7739887D01*
X980693Y7739887D01*
X966977Y7735315D01*
X962406Y7726171D01*
X966977Y7717281D01*
X976122Y7712710D01*
X998727Y7708137D01*
X1007872Y7703565D01*
X1012443Y7694421D01*
X1012443Y7689850D01*
X1007872Y7680705D01*
X994156Y7676134D01*
X980693Y7676134D01*
X966977Y7680705D01*
X962406Y7689850D01*
X1042415Y7739887D02*
G01*
X1042415Y7644384D01*
X1042415Y7726171D02*
G01*
X1051559Y7735315D01*
X1060704Y7739887D01*
X1074165Y7739887D01*
X1083309Y7735315D01*
X1092454Y7726171D01*
X1097025Y7712710D01*
X1097025Y7703565D01*
X1092454Y7689850D01*
X1083309Y7680705D01*
X1074165Y7676134D01*
X1060704Y7676134D01*
X1051559Y7680705D01*
X1042415Y7689850D01*
X1149604Y7739887D02*
G01*
X1140713Y7735315D01*
X1131570Y7726171D01*
X1126997Y7712710D01*
X1126997Y7703565D01*
X1131570Y7689850D01*
X1140713Y7680705D01*
X1149604Y7676134D01*
X1163320Y7676134D01*
X1172463Y7680705D01*
X1181608Y7689850D01*
X1185925Y7703565D01*
X1185925Y7712710D01*
X1181608Y7726171D01*
X1172463Y7735315D01*
X1163320Y7739887D01*
X1149604Y7739887D01*
X1216152Y7739887D02*
G01*
X1216152Y7676134D01*
X1216152Y7721600D02*
G01*
X1229613Y7735315D01*
X1238758Y7739887D01*
X1252474Y7739887D01*
X1261618Y7735315D01*
X1265936Y7721600D01*
X1265936Y7676134D01*
X1350518Y7771637D02*
G01*
X1350518Y7676134D01*
X1350518Y7726171D02*
G01*
X1341374Y7735315D01*
X1332484Y7739887D01*
X1318768Y7739887D01*
X1309624Y7735315D01*
X1300479Y7726171D01*
X1296161Y7712710D01*
X1296161Y7703565D01*
X1300479Y7689850D01*
X1309624Y7680705D01*
X1318768Y7676134D01*
X1332484Y7676134D01*
X1341374Y7680705D01*
X1350518Y7689850D01*
X1380490Y7771637D02*
G01*
X1385061Y7767065D01*
X1389634Y7771637D01*
X1385061Y7776210D01*
X1380490Y7771637D01*
X1385061Y7739887D02*
G01*
X1385061Y7676134D01*
X1419606Y7739887D02*
G01*
X1419606Y7676134D01*
X1419606Y7721600D02*
G01*
X1433322Y7735315D01*
X1442465Y7739887D01*
X1455927Y7739887D01*
X1465072Y7735315D01*
X1469643Y7721600D01*
X1469643Y7676134D01*
X1554225Y7739887D02*
G01*
X1554225Y7667244D01*
X1549654Y7653528D01*
X1545081Y7648955D01*
X1535938Y7644384D01*
X1522475Y7644384D01*
X1513331Y7648955D01*
X1554225Y7726171D02*
G01*
X1545081Y7735315D01*
X1535938Y7739887D01*
X1522475Y7739887D01*
X1513331Y7735315D01*
X1504188Y7726171D01*
X1499615Y7712710D01*
X1499615Y7703565D01*
X1504188Y7689850D01*
X1513331Y7680705D01*
X1522475Y7676134D01*
X1535938Y7676134D01*
X1545081Y7680705D01*
X1554225Y7689850D01*
X1708658Y7739887D02*
G01*
X1708658Y7676134D01*
X1708658Y7726171D02*
G01*
X1699768Y7735315D01*
X1690624Y7739887D01*
X1676908Y7739887D01*
X1667763Y7735315D01*
X1658874Y7726171D01*
X1654302Y7712710D01*
X1654302Y7703565D01*
X1658874Y7689850D01*
X1667763Y7680705D01*
X1676908Y7676134D01*
X1690624Y7676134D01*
X1699768Y7680705D01*
X1708658Y7689850D01*
X1793240Y7771637D02*
G01*
X1793240Y7676134D01*
X1793240Y7726171D02*
G01*
X1784350Y7735315D01*
X1775206Y7739887D01*
X1761490Y7739887D01*
X1752345Y7735315D01*
X1743202Y7726171D01*
X1738884Y7712710D01*
X1738884Y7703565D01*
X1743202Y7689850D01*
X1752345Y7680705D01*
X1761490Y7676134D01*
X1775206Y7676134D01*
X1784350Y7680705D01*
X1793240Y7689850D01*
X1877822Y7771637D02*
G01*
X1877822Y7676134D01*
X1877822Y7726171D02*
G01*
X1868677Y7735315D01*
X1859788Y7739887D01*
X1846072Y7739887D01*
X1836927Y7735315D01*
X1827784Y7726171D01*
X1823211Y7712710D01*
X1823211Y7703565D01*
X1827784Y7689850D01*
X1836927Y7680705D01*
X1846072Y7676134D01*
X1859788Y7676134D01*
X1868677Y7680705D01*
X1877822Y7689850D01*
X1907793Y7739887D02*
G01*
X1907793Y7676134D01*
X1907793Y7712710D02*
G01*
X1912365Y7726171D01*
X1921509Y7735315D01*
X1930654Y7739887D01*
X1944115Y7739887D01*
X1974341Y7712710D02*
G01*
X2028697Y7712710D01*
X2028697Y7721600D01*
X2024125Y7730744D01*
X2019808Y7735315D01*
X2010663Y7739887D01*
X1996947Y7739887D01*
X1987804Y7735315D01*
X1978659Y7726171D01*
X1974341Y7712710D01*
X1974341Y7703565D01*
X1978659Y7689850D01*
X1987804Y7680705D01*
X1996947Y7676134D01*
X2010663Y7676134D01*
X2019808Y7680705D01*
X2028697Y7689850D01*
X2108708Y7726171D02*
G01*
X2104136Y7735315D01*
X2090674Y7739887D01*
X2076958Y7739887D01*
X2063241Y7735315D01*
X2058670Y7726171D01*
X2063241Y7717281D01*
X2072386Y7712710D01*
X2095245Y7708137D01*
X2104136Y7703565D01*
X2108708Y7694421D01*
X2108708Y7689850D01*
X2104136Y7680705D01*
X2090674Y7676134D01*
X2076958Y7676134D01*
X2063241Y7680705D01*
X2058670Y7689850D01*
X2188718Y7726171D02*
G01*
X2184145Y7735315D01*
X2170684Y7739887D01*
X2156968Y7739887D01*
X2143252Y7735315D01*
X2138679Y7726171D01*
X2143252Y7717281D01*
X2152395Y7712710D01*
X2175256Y7708137D01*
X2184145Y7703565D01*
X2188718Y7694421D01*
X2188718Y7689850D01*
X2184145Y7680705D01*
X2170684Y7676134D01*
X2156968Y7676134D01*
X2143252Y7680705D01*
X2138679Y7689850D01*
X2730500Y4609337D02*
G01*
X2730500Y4513834D01*
X2730500Y4609337D02*
G01*
X2762250Y4609337D01*
X2775965Y4604765D01*
X2785109Y4595876D01*
X2789681Y4586731D01*
X2794254Y4573015D01*
X2794254Y4550410D01*
X2789681Y4536694D01*
X2785109Y4527550D01*
X2775965Y4518405D01*
X2762250Y4513834D01*
X2730500Y4513834D01*
X2828797Y4586731D02*
G01*
X2828797Y4591304D01*
X2833115Y4600194D01*
X2837688Y4604765D01*
X2846831Y4609337D01*
X2865120Y4609337D01*
X2874009Y4604765D01*
X2878581Y4600194D01*
X2883154Y4591304D01*
X2883154Y4582160D01*
X2878581Y4573015D01*
X2869691Y4559300D01*
X2824225Y4513834D01*
X2887725Y4513834D01*
X2730500Y4863337D02*
G01*
X2730500Y4767834D01*
X2730500Y4863337D02*
G01*
X2762250Y4863337D01*
X2775965Y4858765D01*
X2785109Y4849876D01*
X2789681Y4840731D01*
X2794254Y4827015D01*
X2794254Y4804410D01*
X2789681Y4790694D01*
X2785109Y4781550D01*
X2775965Y4772405D01*
X2762250Y4767834D01*
X2730500Y4767834D01*
X2833115Y4863337D02*
G01*
X2883154Y4863337D01*
X2855975Y4827015D01*
X2869691Y4827015D01*
X2878581Y4822444D01*
X2883154Y4817871D01*
X2887725Y4804410D01*
X2887725Y4795265D01*
X2883154Y4781550D01*
X2874009Y4772405D01*
X2860547Y4767834D01*
X2846831Y4767834D01*
X2833115Y4772405D01*
X2828797Y4776978D01*
X2824225Y4786121D01*
X2730500Y5117337D02*
G01*
X2730500Y5021834D01*
X2730500Y5117337D02*
G01*
X2762250Y5117337D01*
X2775965Y5112765D01*
X2785109Y5103876D01*
X2789681Y5094731D01*
X2794254Y5081015D01*
X2794254Y5058410D01*
X2789681Y5044694D01*
X2785109Y5035550D01*
X2775965Y5026405D01*
X2762250Y5021834D01*
X2730500Y5021834D01*
X2869691Y5117337D02*
G01*
X2824225Y5053837D01*
X2892297Y5053837D01*
X2869691Y5117337D02*
G01*
X2869691Y5021834D01*
X2730500Y5371337D02*
G01*
X2730500Y5275834D01*
X2730500Y5371337D02*
G01*
X2762250Y5371337D01*
X2775965Y5366765D01*
X2785109Y5357876D01*
X2789681Y5348731D01*
X2794254Y5335015D01*
X2794254Y5312410D01*
X2789681Y5298694D01*
X2785109Y5289550D01*
X2775965Y5280405D01*
X2762250Y5275834D01*
X2730500Y5275834D01*
X2878581Y5371337D02*
G01*
X2833115Y5371337D01*
X2828797Y5330444D01*
X2833115Y5335015D01*
X2846831Y5339587D01*
X2860547Y5339587D01*
X2874009Y5335015D01*
X2883154Y5325871D01*
X2887725Y5312410D01*
X2887725Y5303265D01*
X2883154Y5289550D01*
X2874009Y5280405D01*
X2860547Y5275834D01*
X2846831Y5275834D01*
X2833115Y5280405D01*
X2828797Y5284978D01*
X2824225Y5294121D01*
X2730500Y5625337D02*
G01*
X2730500Y5529834D01*
X2730500Y5625337D02*
G01*
X2762250Y5625337D01*
X2775965Y5620765D01*
X2785109Y5611876D01*
X2789681Y5602731D01*
X2794254Y5589015D01*
X2794254Y5566410D01*
X2789681Y5552694D01*
X2785109Y5543550D01*
X2775965Y5534405D01*
X2762250Y5529834D01*
X2730500Y5529834D01*
X2878581Y5611876D02*
G01*
X2874009Y5620765D01*
X2860547Y5625337D01*
X2851404Y5625337D01*
X2837688Y5620765D01*
X2828797Y5607304D01*
X2824225Y5584444D01*
X2824225Y5561837D01*
X2828797Y5543550D01*
X2837688Y5534405D01*
X2851404Y5529834D01*
X2855975Y5529834D01*
X2869691Y5534405D01*
X2878581Y5543550D01*
X2883154Y5557265D01*
X2883154Y5561837D01*
X2878581Y5575300D01*
X2869691Y5584444D01*
X2855975Y5589015D01*
X2851404Y5589015D01*
X2837688Y5584444D01*
X2828797Y5575300D01*
X2824225Y5561837D01*
X2730500Y5879337D02*
G01*
X2730500Y5783834D01*
X2730500Y5879337D02*
G01*
X2762250Y5879337D01*
X2775965Y5874765D01*
X2785109Y5865876D01*
X2789681Y5856731D01*
X2794254Y5843015D01*
X2794254Y5820410D01*
X2789681Y5806694D01*
X2785109Y5797550D01*
X2775965Y5788405D01*
X2762250Y5783834D01*
X2730500Y5783834D01*
X2887725Y5879337D02*
G01*
X2842259Y5783834D01*
X2824225Y5879337D02*
G01*
X2887725Y5879337D01*
X2730500Y6133337D02*
G01*
X2730500Y6037834D01*
X2730500Y6133337D02*
G01*
X2762250Y6133337D01*
X2775965Y6128765D01*
X2785109Y6119876D01*
X2789681Y6110731D01*
X2794254Y6097015D01*
X2794254Y6074410D01*
X2789681Y6060694D01*
X2785109Y6051550D01*
X2775965Y6042405D01*
X2762250Y6037834D01*
X2730500Y6037834D01*
X2846831Y6133337D02*
G01*
X2833115Y6128765D01*
X2828797Y6119876D01*
X2828797Y6110731D01*
X2833115Y6101587D01*
X2842259Y6097015D01*
X2860547Y6092444D01*
X2874009Y6087871D01*
X2883154Y6078981D01*
X2887725Y6069837D01*
X2887725Y6056121D01*
X2883154Y6046978D01*
X2878581Y6042405D01*
X2865120Y6037834D01*
X2846831Y6037834D01*
X2833115Y6042405D01*
X2828797Y6046978D01*
X2824225Y6056121D01*
X2824225Y6069837D01*
X2828797Y6078981D01*
X2837688Y6087871D01*
X2851404Y6092444D01*
X2869691Y6097015D01*
X2878581Y6101587D01*
X2883154Y6110731D01*
X2883154Y6119876D01*
X2878581Y6128765D01*
X2865120Y6133337D01*
X2846831Y6133337D01*
X2730500Y6387337D02*
G01*
X2730500Y6291834D01*
X2730500Y6387337D02*
G01*
X2762250Y6387337D01*
X2775965Y6382765D01*
X2785109Y6373876D01*
X2789681Y6364731D01*
X2794254Y6351015D01*
X2794254Y6328410D01*
X2789681Y6314694D01*
X2785109Y6305550D01*
X2775965Y6296405D01*
X2762250Y6291834D01*
X2730500Y6291834D01*
X2883154Y6355587D02*
G01*
X2878581Y6341871D01*
X2869691Y6332981D01*
X2855975Y6328410D01*
X2851404Y6328410D01*
X2837688Y6332981D01*
X2828797Y6341871D01*
X2824225Y6355587D01*
X2824225Y6360160D01*
X2828797Y6373876D01*
X2837688Y6382765D01*
X2851404Y6387337D01*
X2855975Y6387337D01*
X2869691Y6382765D01*
X2878581Y6373876D01*
X2883154Y6355587D01*
X2883154Y6332981D01*
X2878581Y6310121D01*
X2869691Y6296405D01*
X2855975Y6291834D01*
X2846831Y6291834D01*
X2833115Y6296405D01*
X2828797Y6305550D01*
X2730500Y6641337D02*
G01*
X2730500Y6545834D01*
X2730500Y6641337D02*
G01*
X2762250Y6641337D01*
X2775965Y6636765D01*
X2785109Y6627876D01*
X2789681Y6618731D01*
X2794254Y6605015D01*
X2794254Y6582410D01*
X2789681Y6568694D01*
X2785109Y6559550D01*
X2775965Y6550405D01*
X2762250Y6545834D01*
X2730500Y6545834D01*
X2824225Y6623304D02*
G01*
X2833115Y6627876D01*
X2846831Y6641337D01*
X2846831Y6545834D01*
X2904236Y6641337D02*
G01*
X2890520Y6636765D01*
X2881375Y6623304D01*
X2876804Y6600444D01*
X2876804Y6586981D01*
X2881375Y6564121D01*
X2890520Y6550405D01*
X2904236Y6545834D01*
X2913125Y6545834D01*
X2926841Y6550405D01*
X2935986Y6564121D01*
X2940558Y6586981D01*
X2940558Y6600444D01*
X2935986Y6623304D01*
X2926841Y6636765D01*
X2913125Y6641337D01*
X2904236Y6641337D01*
X2730500Y6895337D02*
G01*
X2730500Y6799834D01*
X2730500Y6895337D02*
G01*
X2762250Y6895337D01*
X2775965Y6890765D01*
X2785109Y6881876D01*
X2789681Y6872731D01*
X2794254Y6859015D01*
X2794254Y6836410D01*
X2789681Y6822694D01*
X2785109Y6813550D01*
X2775965Y6804405D01*
X2762250Y6799834D01*
X2730500Y6799834D01*
X2824225Y6877304D02*
G01*
X2833115Y6881876D01*
X2846831Y6895337D01*
X2846831Y6799834D01*
X2876804Y6877304D02*
G01*
X2885947Y6881876D01*
X2899663Y6895337D01*
X2899663Y6799834D01*
X2730500Y7149337D02*
G01*
X2730500Y7053834D01*
X2730500Y7149337D02*
G01*
X2762250Y7149337D01*
X2775965Y7144765D01*
X2785109Y7135876D01*
X2789681Y7126731D01*
X2794254Y7113015D01*
X2794254Y7090410D01*
X2789681Y7076694D01*
X2785109Y7067550D01*
X2775965Y7058405D01*
X2762250Y7053834D01*
X2730500Y7053834D01*
X2824225Y7131304D02*
G01*
X2833115Y7135876D01*
X2846831Y7149337D01*
X2846831Y7053834D01*
X2881375Y7126731D02*
G01*
X2881375Y7131304D01*
X2885947Y7140194D01*
X2890520Y7144765D01*
X2899663Y7149337D01*
X2917697Y7149337D01*
X2926841Y7144765D01*
X2931413Y7140194D01*
X2935986Y7131304D01*
X2935986Y7122160D01*
X2931413Y7113015D01*
X2922270Y7099300D01*
X2876804Y7053834D01*
X2940558Y7053834D01*
X660400Y7149337D02*
G01*
X660400Y7053834D01*
X660400Y7149337D02*
G01*
X692150Y7149337D01*
X705865Y7144765D01*
X715009Y7135876D01*
X719581Y7126731D01*
X724154Y7113015D01*
X724154Y7090410D01*
X719581Y7076694D01*
X715009Y7067550D01*
X705865Y7058405D01*
X692150Y7053834D01*
X660400Y7053834D01*
X754125Y7131304D02*
G01*
X763015Y7135876D01*
X776731Y7149337D01*
X776731Y7053834D01*
X815847Y7149337D02*
G01*
X865886Y7149337D01*
X838708Y7113015D01*
X852170Y7113015D01*
X861313Y7108444D01*
X865886Y7103871D01*
X870458Y7090410D01*
X870458Y7081265D01*
X865886Y7067550D01*
X856741Y7058405D01*
X843025Y7053834D01*
X829563Y7053834D01*
X815847Y7058405D01*
X811275Y7062978D01*
X806704Y7072121D01*
X618744Y6895337D02*
G01*
X668781Y6895337D01*
X641350Y6859015D01*
X655065Y6859015D01*
X664210Y6854444D01*
X668781Y6849871D01*
X673354Y6836410D01*
X673354Y6827265D01*
X668781Y6813550D01*
X659637Y6804405D01*
X645921Y6799834D01*
X632205Y6799834D01*
X618744Y6804405D01*
X614171Y6808978D01*
X609600Y6818121D01*
X703325Y6895337D02*
G01*
X739647Y6799834D01*
X775970Y6895337D02*
G01*
X739647Y6799834D01*
X815086Y6895337D02*
G01*
X865124Y6895337D01*
X837691Y6859015D01*
X851408Y6859015D01*
X860552Y6854444D01*
X865124Y6849871D01*
X869695Y6836410D01*
X869695Y6827265D01*
X865124Y6813550D01*
X855979Y6804405D01*
X842263Y6799834D01*
X828802Y6799834D01*
X815086Y6804405D01*
X810513Y6808978D01*
X805941Y6818121D01*
X622300Y6641337D02*
G01*
X622300Y6545834D01*
X622300Y6641337D02*
G01*
X663194Y6641337D01*
X676909Y6636765D01*
X681481Y6632194D01*
X686054Y6623304D01*
X686054Y6614160D01*
X681481Y6605015D01*
X676909Y6600444D01*
X663194Y6595871D01*
X622300Y6595871D01*
X654050Y6595871D02*
G01*
X686054Y6545834D01*
X716025Y6641337D02*
G01*
X716025Y6545834D01*
X716025Y6641337D02*
G01*
X774954Y6641337D01*
X716025Y6595871D02*
G01*
X752347Y6595871D01*
X716025Y6545834D02*
G01*
X774954Y6545834D01*
X804925Y6641337D02*
G01*
X804925Y6545834D01*
X804925Y6641337D02*
G01*
X864108Y6641337D01*
X804925Y6595871D02*
G01*
X841502Y6595871D01*
X722122Y6400037D02*
G01*
X685800Y6304534D01*
X722122Y6400037D02*
G01*
X758443Y6304534D01*
X699515Y6336537D02*
G01*
X744981Y6336537D01*
X815847Y6400037D02*
G01*
X802131Y6395465D01*
X792988Y6382004D01*
X788415Y6359144D01*
X788415Y6345681D01*
X792988Y6322821D01*
X802131Y6309105D01*
X815847Y6304534D01*
X824991Y6304534D01*
X838454Y6309105D01*
X847597Y6322821D01*
X852170Y6345681D01*
X852170Y6359144D01*
X847597Y6382004D01*
X838454Y6395465D01*
X824991Y6400037D01*
X815847Y6400037D01*
X722122Y6146037D02*
G01*
X685800Y6050534D01*
X722122Y6146037D02*
G01*
X758443Y6050534D01*
X699515Y6082537D02*
G01*
X744981Y6082537D01*
X788415Y6128004D02*
G01*
X797559Y6132576D01*
X811275Y6146037D01*
X811275Y6050534D01*
X722122Y5892037D02*
G01*
X685800Y5796534D01*
X722122Y5892037D02*
G01*
X758443Y5796534D01*
X699515Y5828537D02*
G01*
X744981Y5828537D01*
X792988Y5869431D02*
G01*
X792988Y5874004D01*
X797559Y5882894D01*
X802131Y5887465D01*
X811275Y5892037D01*
X829309Y5892037D01*
X838454Y5887465D01*
X843025Y5882894D01*
X847597Y5874004D01*
X847597Y5864860D01*
X843025Y5855715D01*
X833881Y5842000D01*
X788415Y5796534D01*
X852170Y5796534D01*
X709422Y5638037D02*
G01*
X673100Y5542534D01*
X709422Y5638037D02*
G01*
X745743Y5542534D01*
X686815Y5574537D02*
G01*
X732281Y5574537D01*
X784859Y5638037D02*
G01*
X834897Y5638037D01*
X807720Y5601715D01*
X821181Y5601715D01*
X830325Y5597144D01*
X834897Y5592571D01*
X839470Y5579110D01*
X839470Y5569965D01*
X834897Y5556250D01*
X825754Y5547105D01*
X812291Y5542534D01*
X798575Y5542534D01*
X784859Y5547105D01*
X780288Y5551678D01*
X775715Y5560821D01*
X709422Y5384037D02*
G01*
X673100Y5288534D01*
X709422Y5384037D02*
G01*
X745743Y5288534D01*
X686815Y5320537D02*
G01*
X732281Y5320537D01*
X821181Y5384037D02*
G01*
X775715Y5320537D01*
X844041Y5320537D01*
X821181Y5384037D02*
G01*
X821181Y5288534D01*
X709422Y5130037D02*
G01*
X673100Y5034534D01*
X709422Y5130037D02*
G01*
X745743Y5034534D01*
X686815Y5066537D02*
G01*
X732281Y5066537D01*
X830325Y5130037D02*
G01*
X784859Y5130037D01*
X780288Y5089144D01*
X784859Y5093715D01*
X798575Y5098287D01*
X812291Y5098287D01*
X825754Y5093715D01*
X834897Y5084571D01*
X839470Y5071110D01*
X839470Y5061965D01*
X834897Y5048250D01*
X825754Y5039105D01*
X812291Y5034534D01*
X798575Y5034534D01*
X784859Y5039105D01*
X780288Y5043678D01*
X775715Y5052821D01*
X709422Y4876037D02*
G01*
X673100Y4780534D01*
X709422Y4876037D02*
G01*
X745743Y4780534D01*
X686815Y4812537D02*
G01*
X732281Y4812537D01*
X830325Y4862576D02*
G01*
X825754Y4871465D01*
X812291Y4876037D01*
X803147Y4876037D01*
X789431Y4871465D01*
X780288Y4858004D01*
X775715Y4835144D01*
X775715Y4812537D01*
X780288Y4794250D01*
X789431Y4785105D01*
X803147Y4780534D01*
X807720Y4780534D01*
X821181Y4785105D01*
X830325Y4794250D01*
X834897Y4807965D01*
X834897Y4812537D01*
X830325Y4826000D01*
X821181Y4835144D01*
X807720Y4839715D01*
X803147Y4839715D01*
X789431Y4835144D01*
X780288Y4826000D01*
X775715Y4812537D01*
X709422Y4622037D02*
G01*
X673100Y4526534D01*
X709422Y4622037D02*
G01*
X745743Y4526534D01*
X686815Y4558537D02*
G01*
X732281Y4558537D01*
X839470Y4622037D02*
G01*
X794004Y4526534D01*
X775715Y4622037D02*
G01*
X839470Y4622037D01*
X727709Y4355337D02*
G01*
X682243Y4355337D01*
X677672Y4314444D01*
X682243Y4319015D01*
X695706Y4323587D01*
X709422Y4323587D01*
X723138Y4319015D01*
X732281Y4309871D01*
X736854Y4296410D01*
X736854Y4287265D01*
X732281Y4273550D01*
X723138Y4264405D01*
X709422Y4259834D01*
X695706Y4259834D01*
X682243Y4264405D01*
X677672Y4268978D01*
X673100Y4278121D01*
X766825Y4355337D02*
G01*
X803147Y4259834D01*
X839470Y4355337D02*
G01*
X803147Y4259834D01*
X584200Y4101337D02*
G01*
X584200Y4005834D01*
X584200Y4101337D02*
G01*
X625094Y4101337D01*
X638810Y4096765D01*
X643381Y4092194D01*
X647954Y4083304D01*
X647954Y4074160D01*
X643381Y4065015D01*
X638810Y4060444D01*
X625094Y4055871D01*
X584200Y4055871D01*
X615950Y4055871D02*
G01*
X647954Y4005834D01*
X741425Y4087876D02*
G01*
X732281Y4096765D01*
X718820Y4101337D01*
X700531Y4101337D01*
X686815Y4096765D01*
X677925Y4087876D01*
X677925Y4078731D01*
X682497Y4069587D01*
X686815Y4065015D01*
X695959Y4060444D01*
X723391Y4051300D01*
X732281Y4046981D01*
X736854Y4042410D01*
X741425Y4033265D01*
X741425Y4019550D01*
X732281Y4010405D01*
X718820Y4005834D01*
X700531Y4005834D01*
X686815Y4010405D01*
X677925Y4019550D01*
X803402Y4101337D02*
G01*
X803402Y4005834D01*
X771397Y4101337D02*
G01*
X835152Y4101337D01*
X652271Y3837431D02*
G01*
X647954Y3846576D01*
X638810Y3855465D01*
X629665Y3860037D01*
X611378Y3860037D01*
X602487Y3855465D01*
X593344Y3846576D01*
X588771Y3837431D01*
X584200Y3823715D01*
X584200Y3801110D01*
X588771Y3787394D01*
X593344Y3778250D01*
X602487Y3769105D01*
X611378Y3764534D01*
X629665Y3764534D01*
X638810Y3769105D01*
X647954Y3778250D01*
X652271Y3787394D01*
X652271Y3801110D01*
X629665Y3801110D02*
G01*
X652271Y3801110D01*
X682497Y3860037D02*
G01*
X682497Y3764534D01*
X682497Y3860037D02*
G01*
X745997Y3764534D01*
X745997Y3860037D02*
G01*
X745997Y3764534D01*
X775970Y3860037D02*
G01*
X775970Y3764534D01*
X775970Y3860037D02*
G01*
X807720Y3860037D01*
X821436Y3855465D01*
X830579Y3846576D01*
X835152Y3837431D01*
X839724Y3823715D01*
X839724Y3801110D01*
X835152Y3787394D01*
X830579Y3778250D01*
X821436Y3769105D01*
X807720Y3764534D01*
X775970Y3764534D01*
X622300Y3593337D02*
G01*
X658621Y3497834D01*
X694943Y3593337D02*
G01*
X658621Y3497834D01*
X724915Y3593337D02*
G01*
X724915Y3497834D01*
X755141Y3593337D02*
G01*
X755141Y3497834D01*
X755141Y3593337D02*
G01*
X818641Y3497834D01*
X818641Y3593337D02*
G01*
X818641Y3497834D01*
X2762250Y3593337D02*
G01*
X2762250Y3497834D01*
X2730500Y3593337D02*
G01*
X2794254Y3593337D01*
X2824225Y3593337D02*
G01*
X2887725Y3497834D01*
X2887725Y3593337D02*
G01*
X2824225Y3497834D01*
X2917697Y3575304D02*
G01*
X2926841Y3579876D01*
X2940558Y3593337D01*
X2940558Y3497834D01*
X2730500Y3847337D02*
G01*
X2730500Y3751834D01*
X2730500Y3847337D02*
G01*
X2771393Y3847337D01*
X2785109Y3842765D01*
X2789681Y3838194D01*
X2794254Y3829304D01*
X2794254Y3820160D01*
X2789681Y3811015D01*
X2785109Y3806444D01*
X2771393Y3801871D01*
X2730500Y3801871D01*
X2762250Y3801871D02*
G01*
X2794254Y3751834D01*
X2824225Y3847337D02*
G01*
X2887725Y3751834D01*
X2887725Y3847337D02*
G01*
X2824225Y3751834D01*
X2945129Y3847337D02*
G01*
X2931413Y3842765D01*
X2922270Y3829304D01*
X2917697Y3806444D01*
X2917697Y3792981D01*
X2922270Y3770121D01*
X2931413Y3756405D01*
X2945129Y3751834D01*
X2954020Y3751834D01*
X2967736Y3756405D01*
X2976879Y3770121D01*
X2981452Y3792981D01*
X2981452Y3806444D01*
X2976879Y3829304D01*
X2967736Y3842765D01*
X2954020Y3847337D01*
X2945129Y3847337D01*
X2730500Y4101337D02*
G01*
X2730500Y4005834D01*
X2730500Y4101337D02*
G01*
X2771393Y4101337D01*
X2785109Y4096765D01*
X2789681Y4092194D01*
X2794254Y4083304D01*
X2794254Y4074160D01*
X2789681Y4065015D01*
X2785109Y4060444D01*
X2771393Y4055871D01*
X2730500Y4055871D01*
X2762250Y4055871D02*
G01*
X2794254Y4005834D01*
X2887725Y4087876D02*
G01*
X2878581Y4096765D01*
X2865120Y4101337D01*
X2846831Y4101337D01*
X2833115Y4096765D01*
X2824225Y4087876D01*
X2824225Y4078731D01*
X2828797Y4069587D01*
X2833115Y4065015D01*
X2842259Y4060444D01*
X2869691Y4051300D01*
X2878581Y4046981D01*
X2883154Y4042410D01*
X2887725Y4033265D01*
X2887725Y4019550D01*
X2878581Y4010405D01*
X2865120Y4005834D01*
X2846831Y4005834D01*
X2833115Y4010405D01*
X2824225Y4019550D01*
X2949702Y4101337D02*
G01*
X2949702Y4005834D01*
X2917697Y4101337D02*
G01*
X2981452Y4101337D01*
X2785872Y4345431D02*
G01*
X2781554Y4354576D01*
X2772409Y4363465D01*
X2763265Y4368037D01*
X2744977Y4368037D01*
X2736088Y4363465D01*
X2726943Y4354576D01*
X2722372Y4345431D01*
X2717800Y4331715D01*
X2717800Y4309110D01*
X2722372Y4295394D01*
X2726943Y4286250D01*
X2736088Y4277105D01*
X2744977Y4272534D01*
X2763265Y4272534D01*
X2772409Y4277105D01*
X2781554Y4286250D01*
X2785872Y4295394D01*
X2785872Y4309110D01*
X2763265Y4309110D02*
G01*
X2785872Y4309110D01*
X2816097Y4368037D02*
G01*
X2816097Y4272534D01*
X2816097Y4368037D02*
G01*
X2879597Y4272534D01*
X2879597Y4368037D02*
G01*
X2879597Y4272534D01*
X2909570Y4368037D02*
G01*
X2909570Y4272534D01*
X2909570Y4368037D02*
G01*
X2941320Y4368037D01*
X2955036Y4363465D01*
X2964179Y4354576D01*
X2968752Y4345431D01*
X2973324Y4331715D01*
X2973324Y4309110D01*
X2968752Y4295394D01*
X2964179Y4286250D01*
X2955036Y4277105D01*
X2941320Y4272534D01*
X2909570Y4272534D01*
X1903729Y6277355D02*
G01*
X1712722Y6350000D01*
X1903729Y6277355D02*
G01*
X1712722Y6204457D01*
X1776222Y6322821D02*
G01*
X1776222Y6231889D01*
X1903729Y6144513D02*
G01*
X1712722Y6144513D01*
X1903729Y6144513D02*
G01*
X1903729Y6062726D01*
X1894586Y6035547D01*
X1885441Y6026404D01*
X1867154Y6017260D01*
X1849120Y6017260D01*
X1830831Y6026404D01*
X1821688Y6035547D01*
X1812797Y6062726D01*
X1812797Y6144513D01*
X1812797Y6081013D02*
G01*
X1712722Y6017260D01*
X1903729Y5957315D02*
G01*
X1712722Y5957315D01*
X1903729Y5957315D02*
G01*
X1903729Y5893562D01*
X1894586Y5866384D01*
X1876297Y5848095D01*
X1858263Y5839205D01*
X1830831Y5830062D01*
X1785365Y5830062D01*
X1758188Y5839205D01*
X1739900Y5848095D01*
X1721865Y5866384D01*
X1712722Y5893562D01*
X1712722Y5957315D01*
X1903729Y5770118D02*
G01*
X1767331Y5770118D01*
X1739900Y5760973D01*
X1721865Y5742686D01*
X1712722Y5715507D01*
X1712722Y5697220D01*
X1721865Y5670042D01*
X1739900Y5651754D01*
X1767331Y5642610D01*
X1903729Y5642610D01*
X1903729Y5582665D02*
G01*
X1712722Y5582665D01*
X1903729Y5522721D02*
G01*
X1712722Y5522721D01*
X1903729Y5522721D02*
G01*
X1712722Y5395468D01*
X1903729Y5395468D02*
G01*
X1712722Y5395468D01*
X1903729Y5280913D02*
G01*
X1894586Y5299202D01*
X1876297Y5317236D01*
X1858263Y5326379D01*
X1830831Y5335523D01*
X1785365Y5335523D01*
X1758188Y5326379D01*
X1739900Y5317236D01*
X1721865Y5299202D01*
X1712722Y5280913D01*
X1712722Y5244592D01*
X1721865Y5226304D01*
X1739900Y5208270D01*
X1758188Y5199126D01*
X1785365Y5189981D01*
X1830831Y5189981D01*
X1858263Y5199126D01*
X1876297Y5208270D01*
X1894586Y5226304D01*
X1903729Y5244592D01*
X1903729Y5280913D01*
X1903729Y4990084D02*
G01*
X1712722Y4990084D01*
X1903729Y4990084D02*
G01*
X1712722Y4862829D01*
X1903729Y4862829D02*
G01*
X1712722Y4862829D01*
X1903729Y4729987D02*
G01*
X1712722Y4802631D01*
X1903729Y4729987D02*
G01*
X1712722Y4657344D01*
X1776222Y4775454D02*
G01*
X1776222Y4684521D01*
X1903729Y4597145D02*
G01*
X1712722Y4597145D01*
X1903729Y4597145D02*
G01*
X1712722Y4469892D01*
X1903729Y4469892D02*
G01*
X1712722Y4469892D01*
X1903729Y4355337D02*
G01*
X1894586Y4373626D01*
X1876297Y4391913D01*
X1858263Y4400804D01*
X1830831Y4409947D01*
X1785365Y4409947D01*
X1758188Y4400804D01*
X1739900Y4391913D01*
X1721865Y4373626D01*
X1712722Y4355337D01*
X1712722Y4319015D01*
X1721865Y4300981D01*
X1739900Y4282694D01*
X1758188Y4273550D01*
X1785365Y4264660D01*
X1830831Y4264660D01*
X1858263Y4273550D01*
X1876297Y4282694D01*
X1894586Y4300981D01*
X1903729Y4319015D01*
X1903729Y4355337D01*
D14*
X1765300Y7341615D02*
G01*
X1765300Y7263637D01*
X1770379Y7248144D01*
X1780793Y7237729D01*
X1796541Y7232650D01*
X1806956Y7232650D01*
X1822450Y7237729D01*
X1832863Y7248144D01*
X1837943Y7263637D01*
X1837943Y7341615D01*
X1872234Y7320787D02*
G01*
X1882647Y7326121D01*
X1898395Y7341615D01*
X1898395Y7232650D01*
D13*
X6312661Y9169400D02*
G01*
X6408165Y9205721D01*
X6312661Y9242044D02*
G01*
X6408165Y9205721D01*
X6335268Y9340342D02*
G01*
X6326124Y9335770D01*
X6317234Y9326626D01*
X6312661Y9317481D01*
X6312661Y9299447D01*
X6317234Y9290304D01*
X6326124Y9281160D01*
X6335268Y9276587D01*
X6348984Y9272015D01*
X6371590Y9272015D01*
X6385306Y9276587D01*
X6394450Y9281160D01*
X6403593Y9290304D01*
X6408165Y9299447D01*
X6408165Y9317481D01*
X6403593Y9326626D01*
X6394450Y9335770D01*
X6385306Y9340342D01*
X6335268Y9438386D02*
G01*
X6326124Y9434068D01*
X6317234Y9424924D01*
X6312661Y9415779D01*
X6312661Y9397492D01*
X6317234Y9388602D01*
X6326124Y9379458D01*
X6335268Y9374886D01*
X6348984Y9370313D01*
X6371590Y9370313D01*
X6385306Y9374886D01*
X6394450Y9379458D01*
X6403593Y9388602D01*
X6408165Y9397492D01*
X6408165Y9415779D01*
X6403593Y9424924D01*
X6394450Y9434068D01*
X6385306Y9438386D01*
X6312661Y7861300D02*
G01*
X6408165Y7861300D01*
X6312661Y7861300D02*
G01*
X6312661Y7893050D01*
X6317234Y7906765D01*
X6326124Y7915910D01*
X6335268Y7920481D01*
X6348984Y7925054D01*
X6371590Y7925054D01*
X6385306Y7920481D01*
X6394450Y7915910D01*
X6403593Y7906765D01*
X6408165Y7893050D01*
X6408165Y7861300D01*
X6326124Y8018526D02*
G01*
X6317234Y8009381D01*
X6312661Y7995920D01*
X6312661Y7977631D01*
X6317234Y7963915D01*
X6326124Y7955026D01*
X6335268Y7955026D01*
X6344411Y7959597D01*
X6348984Y7963915D01*
X6353556Y7973060D01*
X6362700Y8000492D01*
X6367018Y8009381D01*
X6371590Y8013954D01*
X6380734Y8018526D01*
X6394450Y8018526D01*
X6403593Y8009381D01*
X6408165Y7995920D01*
X6408165Y7977631D01*
X6403593Y7963915D01*
X6394450Y7955026D01*
X6312661Y8084820D02*
G01*
X6408165Y8048497D01*
X6312661Y8084820D02*
G01*
X6408165Y8121395D01*
X6376161Y8062213D02*
G01*
X6376161Y8107679D01*
X6566661Y7861300D02*
G01*
X6662165Y7861300D01*
X6566661Y7861300D02*
G01*
X6566661Y7893050D01*
X6571234Y7906765D01*
X6580124Y7915910D01*
X6589268Y7920481D01*
X6602984Y7925054D01*
X6625590Y7925054D01*
X6639306Y7920481D01*
X6648450Y7915910D01*
X6657593Y7906765D01*
X6662165Y7893050D01*
X6662165Y7861300D01*
X6580124Y8018526D02*
G01*
X6571234Y8009381D01*
X6566661Y7995920D01*
X6566661Y7977631D01*
X6571234Y7963915D01*
X6580124Y7955026D01*
X6589268Y7955026D01*
X6598411Y7959597D01*
X6602984Y7963915D01*
X6607556Y7973060D01*
X6616700Y8000492D01*
X6621018Y8009381D01*
X6625590Y8013954D01*
X6634734Y8018526D01*
X6648450Y8018526D01*
X6657593Y8009381D01*
X6662165Y7995920D01*
X6662165Y7977631D01*
X6657593Y7963915D01*
X6648450Y7955026D01*
X6566661Y8048497D02*
G01*
X6662165Y8048497D01*
X6566661Y8048497D02*
G01*
X6566661Y8089392D01*
X6571234Y8103108D01*
X6575806Y8107679D01*
X6584695Y8112252D01*
X6593840Y8112252D01*
X6602984Y8107679D01*
X6607556Y8103108D01*
X6612127Y8089392D01*
X6612127Y8048497D02*
G01*
X6612127Y8089392D01*
X6616700Y8103108D01*
X6621018Y8107679D01*
X6630161Y8112252D01*
X6643877Y8112252D01*
X6653022Y8107679D01*
X6657593Y8103108D01*
X6662165Y8089392D01*
X6662165Y8048497D01*
X6807961Y7964678D02*
G01*
X6812534Y7955787D01*
X6821424Y7946644D01*
X6830568Y7942071D01*
X6844284Y7937500D01*
X6866890Y7937500D01*
X6880606Y7942071D01*
X6889750Y7946644D01*
X6898893Y7955787D01*
X6903465Y7964678D01*
X6903465Y7982965D01*
X6898893Y7992110D01*
X6889750Y8001254D01*
X6880606Y8005571D01*
X6866890Y8010144D01*
X6844284Y8010144D01*
X6830568Y8005571D01*
X6821424Y8001254D01*
X6812534Y7992110D01*
X6807961Y7982965D01*
X6807961Y7964678D01*
X6885177Y7978394D02*
G01*
X6912356Y8005571D01*
X6807961Y8067547D02*
G01*
X6812534Y8053831D01*
X6825995Y8044687D01*
X6848856Y8040115D01*
X6862318Y8040115D01*
X6885177Y8044687D01*
X6898893Y8053831D01*
X6903465Y8067547D01*
X6903465Y8076692D01*
X6898893Y8090154D01*
X6885177Y8099297D01*
X6862318Y8103870D01*
X6848856Y8103870D01*
X6825995Y8099297D01*
X6812534Y8090154D01*
X6807961Y8076692D01*
X6807961Y8067547D01*
X7061961Y7964678D02*
G01*
X7066534Y7955787D01*
X7075424Y7946644D01*
X7084568Y7942071D01*
X7098284Y7937500D01*
X7120890Y7937500D01*
X7134606Y7942071D01*
X7143750Y7946644D01*
X7152893Y7955787D01*
X7157465Y7964678D01*
X7157465Y7982965D01*
X7152893Y7992110D01*
X7143750Y8001254D01*
X7134606Y8005571D01*
X7120890Y8010144D01*
X7098284Y8010144D01*
X7084568Y8005571D01*
X7075424Y8001254D01*
X7066534Y7992110D01*
X7061961Y7982965D01*
X7061961Y7964678D01*
X7139177Y7978394D02*
G01*
X7166356Y8005571D01*
X7079995Y8040115D02*
G01*
X7075424Y8049260D01*
X7061961Y8062976D01*
X7157465Y8062976D01*
X7328661Y7964678D02*
G01*
X7333234Y7955787D01*
X7342124Y7946644D01*
X7351268Y7942071D01*
X7364984Y7937500D01*
X7387590Y7937500D01*
X7401306Y7942071D01*
X7410450Y7946644D01*
X7419593Y7955787D01*
X7424165Y7964678D01*
X7424165Y7982965D01*
X7419593Y7992110D01*
X7410450Y8001254D01*
X7401306Y8005571D01*
X7387590Y8010144D01*
X7364984Y8010144D01*
X7351268Y8005571D01*
X7342124Y8001254D01*
X7333234Y7992110D01*
X7328661Y7982965D01*
X7328661Y7964678D01*
X7405877Y7978394D02*
G01*
X7433056Y8005571D01*
X7351268Y8044687D02*
G01*
X7346695Y8044687D01*
X7337806Y8049260D01*
X7333234Y8053831D01*
X7328661Y8062976D01*
X7328661Y8081010D01*
X7333234Y8090154D01*
X7337806Y8094726D01*
X7346695Y8099297D01*
X7355840Y8099297D01*
X7364984Y8094726D01*
X7378700Y8085581D01*
X7424165Y8040115D01*
X7424165Y8103870D01*
X7582661Y7964678D02*
G01*
X7587234Y7955787D01*
X7596124Y7946644D01*
X7605268Y7942071D01*
X7618984Y7937500D01*
X7641590Y7937500D01*
X7655306Y7942071D01*
X7664450Y7946644D01*
X7673593Y7955787D01*
X7678165Y7964678D01*
X7678165Y7982965D01*
X7673593Y7992110D01*
X7664450Y8001254D01*
X7655306Y8005571D01*
X7641590Y8010144D01*
X7618984Y8010144D01*
X7605268Y8005571D01*
X7596124Y8001254D01*
X7587234Y7992110D01*
X7582661Y7982965D01*
X7582661Y7964678D01*
X7659877Y7978394D02*
G01*
X7687056Y8005571D01*
X7582661Y8049260D02*
G01*
X7582661Y8099297D01*
X7618984Y8072120D01*
X7618984Y8085581D01*
X7623556Y8094726D01*
X7628127Y8099297D01*
X7641590Y8103870D01*
X7650734Y8103870D01*
X7664450Y8099297D01*
X7673593Y8090154D01*
X7678165Y8076692D01*
X7678165Y8062976D01*
X7673593Y8049260D01*
X7669022Y8044687D01*
X7659877Y8040115D01*
X7328661Y9196578D02*
G01*
X7333234Y9187687D01*
X7342124Y9178544D01*
X7351268Y9173971D01*
X7364984Y9169400D01*
X7387590Y9169400D01*
X7401306Y9173971D01*
X7410450Y9178544D01*
X7419593Y9187687D01*
X7424165Y9196578D01*
X7424165Y9214865D01*
X7419593Y9224010D01*
X7410450Y9233154D01*
X7401306Y9237471D01*
X7387590Y9242044D01*
X7364984Y9242044D01*
X7351268Y9237471D01*
X7342124Y9233154D01*
X7333234Y9224010D01*
X7328661Y9214865D01*
X7328661Y9196578D01*
X7405877Y9210294D02*
G01*
X7433056Y9237471D01*
X7328661Y9317481D02*
G01*
X7392161Y9272015D01*
X7392161Y9340342D01*
X7328661Y9317481D02*
G01*
X7424165Y9317481D01*
X7074661Y9196578D02*
G01*
X7079234Y9187687D01*
X7088124Y9178544D01*
X7097268Y9173971D01*
X7110984Y9169400D01*
X7133590Y9169400D01*
X7147306Y9173971D01*
X7156450Y9178544D01*
X7165593Y9187687D01*
X7170165Y9196578D01*
X7170165Y9214865D01*
X7165593Y9224010D01*
X7156450Y9233154D01*
X7147306Y9237471D01*
X7133590Y9242044D01*
X7110984Y9242044D01*
X7097268Y9237471D01*
X7088124Y9233154D01*
X7079234Y9224010D01*
X7074661Y9214865D01*
X7074661Y9196578D01*
X7151877Y9210294D02*
G01*
X7179056Y9237471D01*
X7074661Y9326626D02*
G01*
X7074661Y9281160D01*
X7115556Y9276587D01*
X7110984Y9281160D01*
X7106411Y9294876D01*
X7106411Y9308592D01*
X7110984Y9322054D01*
X7120127Y9331197D01*
X7133590Y9335770D01*
X7142734Y9335770D01*
X7156450Y9331197D01*
X7165593Y9322054D01*
X7170165Y9308592D01*
X7170165Y9294876D01*
X7165593Y9281160D01*
X7161022Y9276587D01*
X7151877Y9272015D01*
X6820661Y9196578D02*
G01*
X6825234Y9187687D01*
X6834124Y9178544D01*
X6843268Y9173971D01*
X6856984Y9169400D01*
X6879590Y9169400D01*
X6893306Y9173971D01*
X6902450Y9178544D01*
X6911593Y9187687D01*
X6916165Y9196578D01*
X6916165Y9214865D01*
X6911593Y9224010D01*
X6902450Y9233154D01*
X6893306Y9237471D01*
X6879590Y9242044D01*
X6856984Y9242044D01*
X6843268Y9237471D01*
X6834124Y9233154D01*
X6825234Y9224010D01*
X6820661Y9214865D01*
X6820661Y9196578D01*
X6897877Y9210294D02*
G01*
X6925056Y9237471D01*
X6834124Y9326626D02*
G01*
X6825234Y9322054D01*
X6820661Y9308592D01*
X6820661Y9299447D01*
X6825234Y9285731D01*
X6838695Y9276587D01*
X6861556Y9272015D01*
X6884161Y9272015D01*
X6902450Y9276587D01*
X6911593Y9285731D01*
X6916165Y9299447D01*
X6916165Y9304020D01*
X6911593Y9317481D01*
X6902450Y9326626D01*
X6888734Y9331197D01*
X6884161Y9331197D01*
X6870700Y9326626D01*
X6861556Y9317481D01*
X6856984Y9304020D01*
X6856984Y9299447D01*
X6861556Y9285731D01*
X6870700Y9276587D01*
X6884161Y9272015D01*
X6566661Y9196578D02*
G01*
X6571234Y9187687D01*
X6580124Y9178544D01*
X6589268Y9173971D01*
X6602984Y9169400D01*
X6625590Y9169400D01*
X6639306Y9173971D01*
X6648450Y9178544D01*
X6657593Y9187687D01*
X6662165Y9196578D01*
X6662165Y9214865D01*
X6657593Y9224010D01*
X6648450Y9233154D01*
X6639306Y9237471D01*
X6625590Y9242044D01*
X6602984Y9242044D01*
X6589268Y9237471D01*
X6580124Y9233154D01*
X6571234Y9224010D01*
X6566661Y9214865D01*
X6566661Y9196578D01*
X6643877Y9210294D02*
G01*
X6671056Y9237471D01*
X6566661Y9335770D02*
G01*
X6662165Y9290304D01*
X6566661Y9272015D02*
G01*
X6566661Y9335770D01*
X7871968Y7916671D02*
G01*
X7862824Y7912354D01*
X7853934Y7903210D01*
X7849361Y7894065D01*
X7849361Y7875778D01*
X7853934Y7866887D01*
X7862824Y7857744D01*
X7871968Y7853171D01*
X7885684Y7848600D01*
X7908290Y7848600D01*
X7922006Y7853171D01*
X7931150Y7857744D01*
X7940293Y7866887D01*
X7944865Y7875778D01*
X7944865Y7894065D01*
X7940293Y7903210D01*
X7931150Y7912354D01*
X7922006Y7916671D01*
X7908290Y7916671D01*
X7908290Y7894065D02*
G01*
X7908290Y7916671D01*
X7849361Y7946897D02*
G01*
X7944865Y7946897D01*
X7849361Y7946897D02*
G01*
X7944865Y8010397D01*
X7849361Y8010397D02*
G01*
X7944865Y8010397D01*
X7849361Y8040370D02*
G01*
X7944865Y8040370D01*
X7849361Y8040370D02*
G01*
X7849361Y8072120D01*
X7853934Y8085836D01*
X7862824Y8094979D01*
X7871968Y8099552D01*
X7885684Y8104123D01*
X7908290Y8104123D01*
X7922006Y8099552D01*
X7931150Y8094979D01*
X7940293Y8085836D01*
X7944865Y8072120D01*
X7944865Y8040370D01*
X7595361Y9169400D02*
G01*
X7690865Y9169400D01*
X7595361Y9169400D02*
G01*
X7690865Y9205721D01*
X7595361Y9242044D02*
G01*
X7690865Y9205721D01*
X7595361Y9242044D02*
G01*
X7690865Y9242044D01*
X7595361Y9272015D02*
G01*
X7690865Y9272015D01*
X7595361Y9272015D02*
G01*
X7595361Y9312910D01*
X7599934Y9326626D01*
X7604506Y9331197D01*
X7613395Y9335770D01*
X7622540Y9335770D01*
X7631684Y9331197D01*
X7636256Y9326626D01*
X7640827Y9312910D01*
X7640827Y9272015D01*
X7640827Y9304020D02*
G01*
X7690865Y9335770D01*
X7859268Y9237471D02*
G01*
X7850124Y9233154D01*
X7841234Y9224010D01*
X7836661Y9214865D01*
X7836661Y9196578D01*
X7841234Y9187687D01*
X7850124Y9178544D01*
X7859268Y9173971D01*
X7872984Y9169400D01*
X7895590Y9169400D01*
X7909306Y9173971D01*
X7918450Y9178544D01*
X7927593Y9187687D01*
X7932165Y9196578D01*
X7932165Y9214865D01*
X7927593Y9224010D01*
X7918450Y9233154D01*
X7909306Y9237471D01*
X7836661Y9267697D02*
G01*
X7932165Y9267697D01*
X7836661Y9267697D02*
G01*
X7836661Y9308592D01*
X7841234Y9322054D01*
X7845806Y9326626D01*
X7854695Y9331197D01*
X7868411Y9331197D01*
X7877556Y9326626D01*
X7882127Y9322054D01*
X7886700Y9308592D01*
X7886700Y9267697D01*
X6896354Y8686037D02*
G01*
X6850888Y8590534D01*
X6832600Y8686037D02*
G01*
X6896354Y8686037D01*
X6971791Y8686037D02*
G01*
X6926325Y8622537D01*
X6994397Y8622537D01*
X6971791Y8686037D02*
G01*
X6971791Y8590534D01*
X7024370Y8686037D02*
G01*
X7024370Y8590534D01*
X7088124Y8686037D02*
G01*
X7088124Y8590534D01*
X7024370Y8640571D02*
G01*
X7088124Y8640571D01*
X7186168Y8663431D02*
G01*
X7181595Y8672576D01*
X7172706Y8681465D01*
X7163561Y8686037D01*
X7145274Y8686037D01*
X7136129Y8681465D01*
X7127240Y8672576D01*
X7122668Y8663431D01*
X7118095Y8649715D01*
X7118095Y8627110D01*
X7122668Y8613394D01*
X7127240Y8604250D01*
X7136129Y8595105D01*
X7145274Y8590534D01*
X7163561Y8590534D01*
X7172706Y8595105D01*
X7181595Y8604250D01*
X7186168Y8613394D01*
X7216140Y8668004D02*
G01*
X7225284Y8672576D01*
X7239000Y8686037D01*
X7239000Y8590534D01*
X7323581Y8672576D02*
G01*
X7319009Y8681465D01*
X7305293Y8686037D01*
X7296150Y8686037D01*
X7282688Y8681465D01*
X7273543Y8668004D01*
X7268972Y8645144D01*
X7268972Y8622537D01*
X7273543Y8604250D01*
X7282688Y8595105D01*
X7296150Y8590534D01*
X7300722Y8590534D01*
X7314438Y8595105D01*
X7323581Y8604250D01*
X7328154Y8617965D01*
X7328154Y8622537D01*
X7323581Y8636000D01*
X7314438Y8645144D01*
X7300722Y8649715D01*
X7296150Y8649715D01*
X7282688Y8645144D01*
X7273543Y8636000D01*
X7268972Y8622537D01*
X7403591Y8686037D02*
G01*
X7358125Y8622537D01*
X7426197Y8622537D01*
X7403591Y8686037D02*
G01*
X7403591Y8590534D01*
D14*
X6120384Y8585200D02*
G01*
X6198361Y8585200D01*
X6213856Y8590279D01*
X6224270Y8600694D01*
X6229350Y8616442D01*
X6229350Y8626855D01*
X6224270Y8642350D01*
X6213856Y8652763D01*
X6198361Y8657844D01*
X6120384Y8657844D01*
X6146291Y8697468D02*
G01*
X6141211Y8697468D01*
X6130797Y8702547D01*
X6125463Y8707881D01*
X6120384Y8718295D01*
X6120384Y8738870D01*
X6125463Y8749284D01*
X6130797Y8754618D01*
X6141211Y8759697D01*
X6151625Y8759697D01*
X6162040Y8754618D01*
X6177534Y8744204D01*
X6229350Y8692134D01*
X6229350Y8765031D01*
D13*
X5384038Y8128000D02*
G01*
X5288534Y8091678D01*
X5384038Y8055355D02*
G01*
X5288534Y8091678D01*
X5361431Y7957058D02*
G01*
X5370575Y7961629D01*
X5379465Y7970773D01*
X5384038Y7979918D01*
X5384038Y7997952D01*
X5379465Y8007095D01*
X5370575Y8016239D01*
X5361431Y8020812D01*
X5347715Y8025384D01*
X5325109Y8025384D01*
X5311393Y8020812D01*
X5302250Y8016239D01*
X5293106Y8007095D01*
X5288534Y7997952D01*
X5288534Y7979918D01*
X5293106Y7970773D01*
X5302250Y7961629D01*
X5311393Y7957058D01*
X5361431Y7859013D02*
G01*
X5370575Y7863331D01*
X5379465Y7872476D01*
X5384038Y7881620D01*
X5384038Y7899908D01*
X5379465Y7908797D01*
X5370575Y7917942D01*
X5361431Y7922513D01*
X5347715Y7927086D01*
X5325109Y7927086D01*
X5311393Y7922513D01*
X5302250Y7917942D01*
X5293106Y7908797D01*
X5288534Y7899908D01*
X5288534Y7881620D01*
X5293106Y7872476D01*
X5302250Y7863331D01*
X5311393Y7859013D01*
X5384038Y9436100D02*
G01*
X5288534Y9436100D01*
X5384038Y9436100D02*
G01*
X5384038Y9404350D01*
X5379465Y9390634D01*
X5370575Y9381489D01*
X5361431Y9376918D01*
X5347715Y9372345D01*
X5325109Y9372345D01*
X5311393Y9376918D01*
X5302250Y9381489D01*
X5293106Y9390634D01*
X5288534Y9404350D01*
X5288534Y9436100D01*
X5370575Y9278874D02*
G01*
X5379465Y9288018D01*
X5384038Y9301479D01*
X5384038Y9319768D01*
X5379465Y9333484D01*
X5370575Y9342374D01*
X5361431Y9342374D01*
X5352288Y9337802D01*
X5347715Y9333484D01*
X5343143Y9324339D01*
X5334000Y9296908D01*
X5329681Y9288018D01*
X5325109Y9283445D01*
X5315965Y9278874D01*
X5302250Y9278874D01*
X5293106Y9288018D01*
X5288534Y9301479D01*
X5288534Y9319768D01*
X5293106Y9333484D01*
X5302250Y9342374D01*
X5384038Y9212579D02*
G01*
X5288534Y9248902D01*
X5384038Y9212579D02*
G01*
X5288534Y9176004D01*
X5320538Y9235186D02*
G01*
X5320538Y9189720D01*
X5130038Y9436100D02*
G01*
X5034534Y9436100D01*
X5130038Y9436100D02*
G01*
X5130038Y9404350D01*
X5125465Y9390634D01*
X5116575Y9381489D01*
X5107431Y9376918D01*
X5093715Y9372345D01*
X5071109Y9372345D01*
X5057393Y9376918D01*
X5048250Y9381489D01*
X5039106Y9390634D01*
X5034534Y9404350D01*
X5034534Y9436100D01*
X5116575Y9278874D02*
G01*
X5125465Y9288018D01*
X5130038Y9301479D01*
X5130038Y9319768D01*
X5125465Y9333484D01*
X5116575Y9342374D01*
X5107431Y9342374D01*
X5098288Y9337802D01*
X5093715Y9333484D01*
X5089143Y9324339D01*
X5080000Y9296908D01*
X5075681Y9288018D01*
X5071109Y9283445D01*
X5061965Y9278874D01*
X5048250Y9278874D01*
X5039106Y9288018D01*
X5034534Y9301479D01*
X5034534Y9319768D01*
X5039106Y9333484D01*
X5048250Y9342374D01*
X5130038Y9248902D02*
G01*
X5034534Y9248902D01*
X5130038Y9248902D02*
G01*
X5130038Y9208008D01*
X5125465Y9194292D01*
X5120893Y9189720D01*
X5112004Y9185147D01*
X5102859Y9185147D01*
X5093715Y9189720D01*
X5089143Y9194292D01*
X5084572Y9208008D01*
X5084572Y9248902D02*
G01*
X5084572Y9208008D01*
X5080000Y9194292D01*
X5075681Y9189720D01*
X5066538Y9185147D01*
X5052822Y9185147D01*
X5043677Y9189720D01*
X5039106Y9194292D01*
X5034534Y9208008D01*
X5034534Y9248902D01*
X4888738Y9332721D02*
G01*
X4884165Y9341612D01*
X4875275Y9350755D01*
X4866131Y9355328D01*
X4852415Y9359900D01*
X4829809Y9359900D01*
X4816093Y9355328D01*
X4806950Y9350755D01*
X4797806Y9341612D01*
X4793234Y9332721D01*
X4793234Y9314434D01*
X4797806Y9305289D01*
X4806950Y9296145D01*
X4816093Y9291828D01*
X4829809Y9287255D01*
X4852415Y9287255D01*
X4866131Y9291828D01*
X4875275Y9296145D01*
X4884165Y9305289D01*
X4888738Y9314434D01*
X4888738Y9332721D01*
X4811522Y9319005D02*
G01*
X4784343Y9291828D01*
X4888738Y9229852D02*
G01*
X4884165Y9243568D01*
X4870704Y9252712D01*
X4847843Y9257284D01*
X4834381Y9257284D01*
X4811522Y9252712D01*
X4797806Y9243568D01*
X4793234Y9229852D01*
X4793234Y9220708D01*
X4797806Y9207245D01*
X4811522Y9198102D01*
X4834381Y9193529D01*
X4847843Y9193529D01*
X4870704Y9198102D01*
X4884165Y9207245D01*
X4888738Y9220708D01*
X4888738Y9229852D01*
X4634738Y9332721D02*
G01*
X4630165Y9341612D01*
X4621275Y9350755D01*
X4612131Y9355328D01*
X4598415Y9359900D01*
X4575809Y9359900D01*
X4562093Y9355328D01*
X4552950Y9350755D01*
X4543806Y9341612D01*
X4539234Y9332721D01*
X4539234Y9314434D01*
X4543806Y9305289D01*
X4552950Y9296145D01*
X4562093Y9291828D01*
X4575809Y9287255D01*
X4598415Y9287255D01*
X4612131Y9291828D01*
X4621275Y9296145D01*
X4630165Y9305289D01*
X4634738Y9314434D01*
X4634738Y9332721D01*
X4557522Y9319005D02*
G01*
X4530343Y9291828D01*
X4616704Y9257284D02*
G01*
X4621275Y9248139D01*
X4634738Y9234424D01*
X4539234Y9234424D01*
X4368038Y9332721D02*
G01*
X4363465Y9341612D01*
X4354575Y9350755D01*
X4345431Y9355328D01*
X4331715Y9359900D01*
X4309109Y9359900D01*
X4295393Y9355328D01*
X4286250Y9350755D01*
X4277106Y9341612D01*
X4272534Y9332721D01*
X4272534Y9314434D01*
X4277106Y9305289D01*
X4286250Y9296145D01*
X4295393Y9291828D01*
X4309109Y9287255D01*
X4331715Y9287255D01*
X4345431Y9291828D01*
X4354575Y9296145D01*
X4363465Y9305289D01*
X4368038Y9314434D01*
X4368038Y9332721D01*
X4290822Y9319005D02*
G01*
X4263643Y9291828D01*
X4345431Y9252712D02*
G01*
X4350004Y9252712D01*
X4358893Y9248139D01*
X4363465Y9243568D01*
X4368038Y9234424D01*
X4368038Y9216389D01*
X4363465Y9207245D01*
X4358893Y9202674D01*
X4350004Y9198102D01*
X4340859Y9198102D01*
X4331715Y9202674D01*
X4318000Y9211818D01*
X4272534Y9257284D01*
X4272534Y9193529D01*
X4114038Y9332721D02*
G01*
X4109465Y9341612D01*
X4100575Y9350755D01*
X4091431Y9355328D01*
X4077715Y9359900D01*
X4055109Y9359900D01*
X4041393Y9355328D01*
X4032250Y9350755D01*
X4023106Y9341612D01*
X4018534Y9332721D01*
X4018534Y9314434D01*
X4023106Y9305289D01*
X4032250Y9296145D01*
X4041393Y9291828D01*
X4055109Y9287255D01*
X4077715Y9287255D01*
X4091431Y9291828D01*
X4100575Y9296145D01*
X4109465Y9305289D01*
X4114038Y9314434D01*
X4114038Y9332721D01*
X4036822Y9319005D02*
G01*
X4009643Y9291828D01*
X4114038Y9248139D02*
G01*
X4114038Y9198102D01*
X4077715Y9225279D01*
X4077715Y9211818D01*
X4073143Y9202674D01*
X4068572Y9198102D01*
X4055109Y9193529D01*
X4045965Y9193529D01*
X4032250Y9198102D01*
X4023106Y9207245D01*
X4018534Y9220708D01*
X4018534Y9234424D01*
X4023106Y9248139D01*
X4027677Y9252712D01*
X4036822Y9257284D01*
X4368038Y8100821D02*
G01*
X4363465Y8109712D01*
X4354575Y8118855D01*
X4345431Y8123428D01*
X4331715Y8128000D01*
X4309109Y8128000D01*
X4295393Y8123428D01*
X4286250Y8118855D01*
X4277106Y8109712D01*
X4272534Y8100821D01*
X4272534Y8082534D01*
X4277106Y8073389D01*
X4286250Y8064245D01*
X4295393Y8059928D01*
X4309109Y8055355D01*
X4331715Y8055355D01*
X4345431Y8059928D01*
X4354575Y8064245D01*
X4363465Y8073389D01*
X4368038Y8082534D01*
X4368038Y8100821D01*
X4290822Y8087105D02*
G01*
X4263643Y8059928D01*
X4368038Y7979918D02*
G01*
X4304538Y8025384D01*
X4304538Y7957058D01*
X4368038Y7979918D02*
G01*
X4272534Y7979918D01*
X4622038Y8100821D02*
G01*
X4617465Y8109712D01*
X4608575Y8118855D01*
X4599431Y8123428D01*
X4585715Y8128000D01*
X4563109Y8128000D01*
X4549393Y8123428D01*
X4540250Y8118855D01*
X4531106Y8109712D01*
X4526534Y8100821D01*
X4526534Y8082534D01*
X4531106Y8073389D01*
X4540250Y8064245D01*
X4549393Y8059928D01*
X4563109Y8055355D01*
X4585715Y8055355D01*
X4599431Y8059928D01*
X4608575Y8064245D01*
X4617465Y8073389D01*
X4622038Y8082534D01*
X4622038Y8100821D01*
X4544822Y8087105D02*
G01*
X4517643Y8059928D01*
X4622038Y7970773D02*
G01*
X4622038Y8016239D01*
X4581143Y8020812D01*
X4585715Y8016239D01*
X4590288Y8002523D01*
X4590288Y7988808D01*
X4585715Y7975345D01*
X4576572Y7966202D01*
X4563109Y7961629D01*
X4553965Y7961629D01*
X4540250Y7966202D01*
X4531106Y7975345D01*
X4526534Y7988808D01*
X4526534Y8002523D01*
X4531106Y8016239D01*
X4535677Y8020812D01*
X4544822Y8025384D01*
X4876038Y8100821D02*
G01*
X4871465Y8109712D01*
X4862575Y8118855D01*
X4853431Y8123428D01*
X4839715Y8128000D01*
X4817109Y8128000D01*
X4803393Y8123428D01*
X4794250Y8118855D01*
X4785106Y8109712D01*
X4780534Y8100821D01*
X4780534Y8082534D01*
X4785106Y8073389D01*
X4794250Y8064245D01*
X4803393Y8059928D01*
X4817109Y8055355D01*
X4839715Y8055355D01*
X4853431Y8059928D01*
X4862575Y8064245D01*
X4871465Y8073389D01*
X4876038Y8082534D01*
X4876038Y8100821D01*
X4798822Y8087105D02*
G01*
X4771643Y8059928D01*
X4862575Y7970773D02*
G01*
X4871465Y7975345D01*
X4876038Y7988808D01*
X4876038Y7997952D01*
X4871465Y8011668D01*
X4858004Y8020812D01*
X4835143Y8025384D01*
X4812538Y8025384D01*
X4794250Y8020812D01*
X4785106Y8011668D01*
X4780534Y7997952D01*
X4780534Y7993379D01*
X4785106Y7979918D01*
X4794250Y7970773D01*
X4807965Y7966202D01*
X4812538Y7966202D01*
X4826000Y7970773D01*
X4835143Y7979918D01*
X4839715Y7993379D01*
X4839715Y7997952D01*
X4835143Y8011668D01*
X4826000Y8020812D01*
X4812538Y8025384D01*
X5130038Y8100821D02*
G01*
X5125465Y8109712D01*
X5116575Y8118855D01*
X5107431Y8123428D01*
X5093715Y8128000D01*
X5071109Y8128000D01*
X5057393Y8123428D01*
X5048250Y8118855D01*
X5039106Y8109712D01*
X5034534Y8100821D01*
X5034534Y8082534D01*
X5039106Y8073389D01*
X5048250Y8064245D01*
X5057393Y8059928D01*
X5071109Y8055355D01*
X5093715Y8055355D01*
X5107431Y8059928D01*
X5116575Y8064245D01*
X5125465Y8073389D01*
X5130038Y8082534D01*
X5130038Y8100821D01*
X5052822Y8087105D02*
G01*
X5025643Y8059928D01*
X5130038Y7961629D02*
G01*
X5034534Y8007095D01*
X5130038Y8025384D02*
G01*
X5130038Y7961629D01*
X3824731Y9380728D02*
G01*
X3833875Y9385045D01*
X3842765Y9394189D01*
X3847338Y9403334D01*
X3847338Y9421621D01*
X3842765Y9430512D01*
X3833875Y9439655D01*
X3824731Y9444228D01*
X3811015Y9448800D01*
X3788409Y9448800D01*
X3774693Y9444228D01*
X3765550Y9439655D01*
X3756406Y9430512D01*
X3751834Y9421621D01*
X3751834Y9403334D01*
X3756406Y9394189D01*
X3765550Y9385045D01*
X3774693Y9380728D01*
X3788409Y9380728D01*
X3788409Y9403334D02*
G01*
X3788409Y9380728D01*
X3847338Y9350502D02*
G01*
X3751834Y9350502D01*
X3847338Y9350502D02*
G01*
X3751834Y9287002D01*
X3847338Y9287002D02*
G01*
X3751834Y9287002D01*
X3847338Y9257029D02*
G01*
X3751834Y9257029D01*
X3847338Y9257029D02*
G01*
X3847338Y9225279D01*
X3842765Y9211563D01*
X3833875Y9202420D01*
X3824731Y9197847D01*
X3811015Y9193276D01*
X3788409Y9193276D01*
X3774693Y9197847D01*
X3765550Y9202420D01*
X3756406Y9211563D01*
X3751834Y9225279D01*
X3751834Y9257029D01*
X4101338Y8128000D02*
G01*
X4005834Y8128000D01*
X4101338Y8128000D02*
G01*
X4005834Y8091678D01*
X4101338Y8055355D02*
G01*
X4005834Y8091678D01*
X4101338Y8055355D02*
G01*
X4005834Y8055355D01*
X4101338Y8025384D02*
G01*
X4005834Y8025384D01*
X4101338Y8025384D02*
G01*
X4101338Y7984489D01*
X4096765Y7970773D01*
X4092193Y7966202D01*
X4083304Y7961629D01*
X4074159Y7961629D01*
X4065015Y7966202D01*
X4060443Y7970773D01*
X4055872Y7984489D01*
X4055872Y8025384D01*
X4055872Y7993379D02*
G01*
X4005834Y7961629D01*
X3837431Y8059928D02*
G01*
X3846575Y8064245D01*
X3855465Y8073389D01*
X3860038Y8082534D01*
X3860038Y8100821D01*
X3855465Y8109712D01*
X3846575Y8118855D01*
X3837431Y8123428D01*
X3823715Y8128000D01*
X3801109Y8128000D01*
X3787393Y8123428D01*
X3778250Y8118855D01*
X3769106Y8109712D01*
X3764534Y8100821D01*
X3764534Y8082534D01*
X3769106Y8073389D01*
X3778250Y8064245D01*
X3787393Y8059928D01*
X3860038Y8029702D02*
G01*
X3764534Y8029702D01*
X3860038Y8029702D02*
G01*
X3860038Y7988808D01*
X3855465Y7975345D01*
X3850893Y7970773D01*
X3842004Y7966202D01*
X3828288Y7966202D01*
X3819143Y7970773D01*
X3814572Y7975345D01*
X3810000Y7988808D01*
X3810000Y8029702D01*
X4800345Y8611362D02*
G01*
X4845811Y8706865D01*
X4864100Y8611362D02*
G01*
X4800345Y8611362D01*
X4724908Y8611362D02*
G01*
X4770374Y8674862D01*
X4702302Y8674862D01*
X4724908Y8611362D02*
G01*
X4724908Y8706865D01*
X4672329Y8611362D02*
G01*
X4672329Y8706865D01*
X4608575Y8611362D02*
G01*
X4608575Y8706865D01*
X4672329Y8656828D02*
G01*
X4608575Y8656828D01*
X4510531Y8633968D02*
G01*
X4515104Y8624824D01*
X4523993Y8615934D01*
X4533138Y8611362D01*
X4551425Y8611362D01*
X4560570Y8615934D01*
X4569459Y8624824D01*
X4574031Y8633968D01*
X4578604Y8647684D01*
X4578604Y8670289D01*
X4574031Y8684005D01*
X4569459Y8693150D01*
X4560570Y8702294D01*
X4551425Y8706865D01*
X4533138Y8706865D01*
X4523993Y8702294D01*
X4515104Y8693150D01*
X4510531Y8684005D01*
X4480559Y8629395D02*
G01*
X4471415Y8624824D01*
X4457700Y8611362D01*
X4457700Y8706865D01*
X4373118Y8624824D02*
G01*
X4377690Y8615934D01*
X4391406Y8611362D01*
X4400550Y8611362D01*
X4414011Y8615934D01*
X4423156Y8629395D01*
X4427727Y8652255D01*
X4427727Y8674862D01*
X4423156Y8693150D01*
X4414011Y8702294D01*
X4400550Y8706865D01*
X4395977Y8706865D01*
X4382261Y8702294D01*
X4373118Y8693150D01*
X4368545Y8679434D01*
X4368545Y8674862D01*
X4373118Y8661400D01*
X4382261Y8652255D01*
X4395977Y8647684D01*
X4400550Y8647684D01*
X4414011Y8652255D01*
X4423156Y8661400D01*
X4427727Y8674862D01*
X4293108Y8611362D02*
G01*
X4338574Y8674862D01*
X4270502Y8674862D01*
X4293108Y8611362D02*
G01*
X4293108Y8706865D01*
D14*
X5563615Y8712200D02*
G01*
X5485638Y8712200D01*
X5470143Y8707120D01*
X5459729Y8696705D01*
X5454650Y8680958D01*
X5454650Y8670544D01*
X5459729Y8655050D01*
X5470143Y8644636D01*
X5485638Y8639555D01*
X5563615Y8639555D01*
X5563615Y8594852D02*
G01*
X5563615Y8537702D01*
X5521959Y8568689D01*
X5521959Y8553195D01*
X5516879Y8542781D01*
X5511800Y8537702D01*
X5496052Y8532368D01*
X5485638Y8532368D01*
X5470143Y8537702D01*
X5459729Y8548115D01*
X5454650Y8563610D01*
X5454650Y8579104D01*
X5459729Y8594852D01*
X5464809Y8599931D01*
X5475224Y8605265D01*
D13*
X5789422Y4888737D02*
G01*
X5753100Y4793234D01*
X5789422Y4888737D02*
G01*
X5825743Y4793234D01*
X5766815Y4825237D02*
G01*
X5812281Y4825237D01*
X5883147Y4888737D02*
G01*
X5869431Y4884165D01*
X5860288Y4870704D01*
X5855715Y4847844D01*
X5855715Y4834381D01*
X5860288Y4811521D01*
X5869431Y4797805D01*
X5883147Y4793234D01*
X5892291Y4793234D01*
X5905754Y4797805D01*
X5914897Y4811521D01*
X5919470Y4834381D01*
X5919470Y4847844D01*
X5914897Y4870704D01*
X5905754Y4884165D01*
X5892291Y4888737D01*
X5883147Y4888737D01*
X5789422Y5142737D02*
G01*
X5753100Y5047234D01*
X5789422Y5142737D02*
G01*
X5825743Y5047234D01*
X5766815Y5079237D02*
G01*
X5812281Y5079237D01*
X5855715Y5124704D02*
G01*
X5864859Y5129276D01*
X5878575Y5142737D01*
X5878575Y5047234D01*
X5789422Y5396737D02*
G01*
X5753100Y5301234D01*
X5789422Y5396737D02*
G01*
X5825743Y5301234D01*
X5766815Y5333237D02*
G01*
X5812281Y5333237D01*
X5860288Y5374131D02*
G01*
X5860288Y5378704D01*
X5864859Y5387594D01*
X5869431Y5392165D01*
X5878575Y5396737D01*
X5896609Y5396737D01*
X5905754Y5392165D01*
X5910325Y5387594D01*
X5914897Y5378704D01*
X5914897Y5369560D01*
X5910325Y5360415D01*
X5901181Y5346700D01*
X5855715Y5301234D01*
X5919470Y5301234D01*
X5789422Y5650737D02*
G01*
X5753100Y5555234D01*
X5789422Y5650737D02*
G01*
X5825743Y5555234D01*
X5766815Y5587237D02*
G01*
X5812281Y5587237D01*
X5864859Y5650737D02*
G01*
X5914897Y5650737D01*
X5887720Y5614415D01*
X5901181Y5614415D01*
X5910325Y5609844D01*
X5914897Y5605271D01*
X5919470Y5591810D01*
X5919470Y5582665D01*
X5914897Y5568950D01*
X5905754Y5559805D01*
X5892291Y5555234D01*
X5878575Y5555234D01*
X5864859Y5559805D01*
X5860288Y5564378D01*
X5855715Y5573521D01*
X5789422Y5892037D02*
G01*
X5753100Y5796534D01*
X5789422Y5892037D02*
G01*
X5825743Y5796534D01*
X5766815Y5828537D02*
G01*
X5812281Y5828537D01*
X5901181Y5892037D02*
G01*
X5855715Y5828537D01*
X5924041Y5828537D01*
X5901181Y5892037D02*
G01*
X5901181Y5796534D01*
X5789422Y6146037D02*
G01*
X5753100Y6050534D01*
X5789422Y6146037D02*
G01*
X5825743Y6050534D01*
X5766815Y6082537D02*
G01*
X5812281Y6082537D01*
X5910325Y6146037D02*
G01*
X5864859Y6146037D01*
X5860288Y6105144D01*
X5864859Y6109715D01*
X5878575Y6114287D01*
X5892291Y6114287D01*
X5905754Y6109715D01*
X5914897Y6100571D01*
X5919470Y6087110D01*
X5919470Y6077965D01*
X5914897Y6064250D01*
X5905754Y6055105D01*
X5892291Y6050534D01*
X5878575Y6050534D01*
X5864859Y6055105D01*
X5860288Y6059678D01*
X5855715Y6068821D01*
X5789422Y6412737D02*
G01*
X5753100Y6317234D01*
X5789422Y6412737D02*
G01*
X5825743Y6317234D01*
X5766815Y6349237D02*
G01*
X5812281Y6349237D01*
X5910325Y6399276D02*
G01*
X5905754Y6408165D01*
X5892291Y6412737D01*
X5883147Y6412737D01*
X5869431Y6408165D01*
X5860288Y6394704D01*
X5855715Y6371844D01*
X5855715Y6349237D01*
X5860288Y6330950D01*
X5869431Y6321805D01*
X5883147Y6317234D01*
X5887720Y6317234D01*
X5901181Y6321805D01*
X5910325Y6330950D01*
X5914897Y6344665D01*
X5914897Y6349237D01*
X5910325Y6362700D01*
X5901181Y6371844D01*
X5887720Y6376415D01*
X5883147Y6376415D01*
X5869431Y6371844D01*
X5860288Y6362700D01*
X5855715Y6349237D01*
X5789422Y6666737D02*
G01*
X5753100Y6571234D01*
X5789422Y6666737D02*
G01*
X5825743Y6571234D01*
X5766815Y6603237D02*
G01*
X5812281Y6603237D01*
X5919470Y6666737D02*
G01*
X5874004Y6571234D01*
X5855715Y6666737D02*
G01*
X5919470Y6666737D01*
X7821422Y6412737D02*
G01*
X7785100Y6317234D01*
X7821422Y6412737D02*
G01*
X7857743Y6317234D01*
X7798815Y6349237D02*
G01*
X7844281Y6349237D01*
X7910575Y6412737D02*
G01*
X7896859Y6408165D01*
X7892288Y6399276D01*
X7892288Y6390131D01*
X7896859Y6380987D01*
X7906004Y6376415D01*
X7924291Y6371844D01*
X7937754Y6367271D01*
X7946897Y6358381D01*
X7951470Y6349237D01*
X7951470Y6335521D01*
X7946897Y6326378D01*
X7942325Y6321805D01*
X7928609Y6317234D01*
X7910575Y6317234D01*
X7896859Y6321805D01*
X7892288Y6326378D01*
X7887715Y6335521D01*
X7887715Y6349237D01*
X7892288Y6358381D01*
X7901431Y6367271D01*
X7915147Y6371844D01*
X7933181Y6376415D01*
X7942325Y6380987D01*
X7946897Y6390131D01*
X7946897Y6399276D01*
X7942325Y6408165D01*
X7928609Y6412737D01*
X7910575Y6412737D01*
X7821422Y6158737D02*
G01*
X7785100Y6063234D01*
X7821422Y6158737D02*
G01*
X7857743Y6063234D01*
X7798815Y6095237D02*
G01*
X7844281Y6095237D01*
X7946897Y6126987D02*
G01*
X7942325Y6113271D01*
X7933181Y6104381D01*
X7919720Y6099810D01*
X7915147Y6099810D01*
X7901431Y6104381D01*
X7892288Y6113271D01*
X7887715Y6126987D01*
X7887715Y6131560D01*
X7892288Y6145276D01*
X7901431Y6154165D01*
X7915147Y6158737D01*
X7919720Y6158737D01*
X7933181Y6154165D01*
X7942325Y6145276D01*
X7946897Y6126987D01*
X7946897Y6104381D01*
X7942325Y6081521D01*
X7933181Y6067805D01*
X7919720Y6063234D01*
X7910575Y6063234D01*
X7896859Y6067805D01*
X7892288Y6076950D01*
X7821422Y5396737D02*
G01*
X7785100Y5301234D01*
X7821422Y5396737D02*
G01*
X7857743Y5301234D01*
X7798815Y5333237D02*
G01*
X7844281Y5333237D01*
X7887715Y5378704D02*
G01*
X7896859Y5383276D01*
X7910575Y5396737D01*
X7910575Y5301234D01*
X7967725Y5396737D02*
G01*
X7954263Y5392165D01*
X7945120Y5378704D01*
X7940547Y5355844D01*
X7940547Y5342381D01*
X7945120Y5319521D01*
X7954263Y5305805D01*
X7967725Y5301234D01*
X7976870Y5301234D01*
X7990586Y5305805D01*
X7999729Y5319521D01*
X8004302Y5342381D01*
X8004302Y5355844D01*
X7999729Y5378704D01*
X7990586Y5392165D01*
X7976870Y5396737D01*
X7967725Y5396737D01*
X7821422Y5904737D02*
G01*
X7785100Y5809234D01*
X7821422Y5904737D02*
G01*
X7857743Y5809234D01*
X7798815Y5841237D02*
G01*
X7844281Y5841237D01*
X7887715Y5886704D02*
G01*
X7896859Y5891276D01*
X7910575Y5904737D01*
X7910575Y5809234D01*
X7940547Y5886704D02*
G01*
X7949691Y5891276D01*
X7963408Y5904737D01*
X7963408Y5809234D01*
X5789422Y6908037D02*
G01*
X5753100Y6812534D01*
X5789422Y6908037D02*
G01*
X5825743Y6812534D01*
X5766815Y6844537D02*
G01*
X5812281Y6844537D01*
X5855715Y6890004D02*
G01*
X5864859Y6894576D01*
X5878575Y6908037D01*
X5878575Y6812534D01*
X5913120Y6885431D02*
G01*
X5913120Y6890004D01*
X5917691Y6898894D01*
X5922263Y6903465D01*
X5931408Y6908037D01*
X5949441Y6908037D01*
X5958586Y6903465D01*
X5963158Y6898894D01*
X5967729Y6890004D01*
X5967729Y6880860D01*
X5963158Y6871715D01*
X5954013Y6858000D01*
X5908547Y6812534D01*
X5972302Y6812534D01*
X7821422Y6666737D02*
G01*
X7785100Y6571234D01*
X7821422Y6666737D02*
G01*
X7857743Y6571234D01*
X7798815Y6603237D02*
G01*
X7844281Y6603237D01*
X7887715Y6648704D02*
G01*
X7896859Y6653276D01*
X7910575Y6666737D01*
X7910575Y6571234D01*
X7949691Y6666737D02*
G01*
X7999729Y6666737D01*
X7972297Y6630415D01*
X7986013Y6630415D01*
X7995158Y6625844D01*
X7999729Y6621271D01*
X8004302Y6607810D01*
X8004302Y6598665D01*
X7999729Y6584950D01*
X7990586Y6575805D01*
X7976870Y6571234D01*
X7963408Y6571234D01*
X7949691Y6575805D01*
X7945120Y6580378D01*
X7940547Y6589521D01*
X5789422Y7174737D02*
G01*
X5753100Y7079234D01*
X5789422Y7174737D02*
G01*
X5825743Y7079234D01*
X5766815Y7111237D02*
G01*
X5812281Y7111237D01*
X5855715Y7156704D02*
G01*
X5864859Y7161276D01*
X5878575Y7174737D01*
X5878575Y7079234D01*
X5954013Y7174737D02*
G01*
X5908547Y7111237D01*
X5976620Y7111237D01*
X5954013Y7174737D02*
G01*
X5954013Y7079234D01*
X5651500Y4634737D02*
G01*
X5651500Y4539234D01*
X5763259Y4653026D02*
G01*
X5681472Y4507484D01*
X5820663Y4634737D02*
G01*
X5811520Y4630165D01*
X5802375Y4621276D01*
X5797804Y4612131D01*
X5793231Y4598415D01*
X5793231Y4575810D01*
X5797804Y4562094D01*
X5802375Y4552950D01*
X5811520Y4543805D01*
X5820663Y4539234D01*
X5838697Y4539234D01*
X5847841Y4543805D01*
X5856986Y4552950D01*
X5861558Y4562094D01*
X5866129Y4575810D01*
X5866129Y4598415D01*
X5861558Y4612131D01*
X5856986Y4621276D01*
X5847841Y4630165D01*
X5838697Y4634737D01*
X5820663Y4634737D01*
X5923279Y4634737D02*
G01*
X5909563Y4630165D01*
X5900674Y4616704D01*
X5896102Y4593844D01*
X5896102Y4580381D01*
X5900674Y4557521D01*
X5909563Y4543805D01*
X5923279Y4539234D01*
X5932424Y4539234D01*
X5946140Y4543805D01*
X5955029Y4557521D01*
X5959602Y4580381D01*
X5959602Y4593844D01*
X5955029Y4616704D01*
X5946140Y4630165D01*
X5932424Y4634737D01*
X5923279Y4634737D01*
X5651500Y4380737D02*
G01*
X5651500Y4285234D01*
X5763259Y4399026D02*
G01*
X5681472Y4253484D01*
X5820663Y4380737D02*
G01*
X5811520Y4376165D01*
X5802375Y4367276D01*
X5797804Y4358131D01*
X5793231Y4344415D01*
X5793231Y4321810D01*
X5797804Y4308094D01*
X5802375Y4298950D01*
X5811520Y4289805D01*
X5820663Y4285234D01*
X5838697Y4285234D01*
X5847841Y4289805D01*
X5856986Y4298950D01*
X5861558Y4308094D01*
X5866129Y4321810D01*
X5866129Y4344415D01*
X5861558Y4358131D01*
X5856986Y4367276D01*
X5847841Y4376165D01*
X5838697Y4380737D01*
X5820663Y4380737D01*
X5896102Y4362704D02*
G01*
X5905245Y4367276D01*
X5918708Y4380737D01*
X5918708Y4285234D01*
X5651500Y4126737D02*
G01*
X5651500Y4031234D01*
X5763259Y4145026D02*
G01*
X5681472Y3999484D01*
X5820663Y4126737D02*
G01*
X5811520Y4122165D01*
X5802375Y4113276D01*
X5797804Y4104131D01*
X5793231Y4090415D01*
X5793231Y4067810D01*
X5797804Y4054094D01*
X5802375Y4044950D01*
X5811520Y4035805D01*
X5820663Y4031234D01*
X5838697Y4031234D01*
X5847841Y4035805D01*
X5856986Y4044950D01*
X5861558Y4054094D01*
X5866129Y4067810D01*
X5866129Y4090415D01*
X5861558Y4104131D01*
X5856986Y4113276D01*
X5847841Y4122165D01*
X5838697Y4126737D01*
X5820663Y4126737D01*
X5900674Y4104131D02*
G01*
X5900674Y4108704D01*
X5905245Y4117594D01*
X5909563Y4122165D01*
X5918708Y4126737D01*
X5936995Y4126737D01*
X5946140Y4122165D01*
X5950711Y4117594D01*
X5955029Y4108704D01*
X5955029Y4099560D01*
X5950711Y4090415D01*
X5941568Y4076700D01*
X5896102Y4031234D01*
X5959602Y4031234D01*
X7810500Y3872737D02*
G01*
X7810500Y3777234D01*
X7922259Y3891026D02*
G01*
X7840472Y3745484D01*
X7979663Y3872737D02*
G01*
X7970520Y3868165D01*
X7961375Y3859276D01*
X7956804Y3850131D01*
X7952231Y3836415D01*
X7952231Y3813810D01*
X7956804Y3800094D01*
X7961375Y3790950D01*
X7970520Y3781805D01*
X7979663Y3777234D01*
X7997697Y3777234D01*
X8006841Y3781805D01*
X8015986Y3790950D01*
X8020558Y3800094D01*
X8025129Y3813810D01*
X8025129Y3836415D01*
X8020558Y3850131D01*
X8015986Y3859276D01*
X8006841Y3868165D01*
X7997697Y3872737D01*
X7979663Y3872737D01*
X8064245Y3872737D02*
G01*
X8114029Y3872737D01*
X8086852Y3836415D01*
X8100568Y3836415D01*
X8109711Y3831844D01*
X8114029Y3827271D01*
X8118602Y3813810D01*
X8118602Y3804665D01*
X8114029Y3790950D01*
X8105140Y3781805D01*
X8091424Y3777234D01*
X8077708Y3777234D01*
X8064245Y3781805D01*
X8059674Y3786378D01*
X8055102Y3795521D01*
X7810500Y4126737D02*
G01*
X7810500Y4031234D01*
X7922259Y4145026D02*
G01*
X7840472Y3999484D01*
X7979663Y4126737D02*
G01*
X7970520Y4122165D01*
X7961375Y4113276D01*
X7956804Y4104131D01*
X7952231Y4090415D01*
X7952231Y4067810D01*
X7956804Y4054094D01*
X7961375Y4044950D01*
X7970520Y4035805D01*
X7979663Y4031234D01*
X7997697Y4031234D01*
X8006841Y4035805D01*
X8015986Y4044950D01*
X8020558Y4054094D01*
X8025129Y4067810D01*
X8025129Y4090415D01*
X8020558Y4104131D01*
X8015986Y4113276D01*
X8006841Y4122165D01*
X7997697Y4126737D01*
X7979663Y4126737D01*
X8100568Y4126737D02*
G01*
X8055102Y4063237D01*
X8123174Y4063237D01*
X8100568Y4126737D02*
G01*
X8100568Y4031234D01*
X7810500Y4380737D02*
G01*
X7810500Y4285234D01*
X7922259Y4399026D02*
G01*
X7840472Y4253484D01*
X7979663Y4380737D02*
G01*
X7970520Y4376165D01*
X7961375Y4367276D01*
X7956804Y4358131D01*
X7952231Y4344415D01*
X7952231Y4321810D01*
X7956804Y4308094D01*
X7961375Y4298950D01*
X7970520Y4289805D01*
X7979663Y4285234D01*
X7997697Y4285234D01*
X8006841Y4289805D01*
X8015986Y4298950D01*
X8020558Y4308094D01*
X8025129Y4321810D01*
X8025129Y4344415D01*
X8020558Y4358131D01*
X8015986Y4367276D01*
X8006841Y4376165D01*
X7997697Y4380737D01*
X7979663Y4380737D01*
X8109711Y4380737D02*
G01*
X8064245Y4380737D01*
X8059674Y4339844D01*
X8064245Y4344415D01*
X8077708Y4348987D01*
X8091424Y4348987D01*
X8105140Y4344415D01*
X8114029Y4335271D01*
X8118602Y4321810D01*
X8118602Y4312665D01*
X8114029Y4298950D01*
X8105140Y4289805D01*
X8091424Y4285234D01*
X8077708Y4285234D01*
X8064245Y4289805D01*
X8059674Y4294378D01*
X8055102Y4303521D01*
X7810500Y4634737D02*
G01*
X7810500Y4539234D01*
X7922259Y4653026D02*
G01*
X7840472Y4507484D01*
X7979663Y4634737D02*
G01*
X7970520Y4630165D01*
X7961375Y4621276D01*
X7956804Y4612131D01*
X7952231Y4598415D01*
X7952231Y4575810D01*
X7956804Y4562094D01*
X7961375Y4552950D01*
X7970520Y4543805D01*
X7979663Y4539234D01*
X7997697Y4539234D01*
X8006841Y4543805D01*
X8015986Y4552950D01*
X8020558Y4562094D01*
X8025129Y4575810D01*
X8025129Y4598415D01*
X8020558Y4612131D01*
X8015986Y4621276D01*
X8006841Y4630165D01*
X7997697Y4634737D01*
X7979663Y4634737D01*
X8109711Y4621276D02*
G01*
X8105140Y4630165D01*
X8091424Y4634737D01*
X8082279Y4634737D01*
X8068563Y4630165D01*
X8059674Y4616704D01*
X8055102Y4593844D01*
X8055102Y4571237D01*
X8059674Y4552950D01*
X8068563Y4543805D01*
X8082279Y4539234D01*
X8086852Y4539234D01*
X8100568Y4543805D01*
X8109711Y4552950D01*
X8114029Y4566665D01*
X8114029Y4571237D01*
X8109711Y4584700D01*
X8100568Y4593844D01*
X8086852Y4598415D01*
X8082279Y4598415D01*
X8068563Y4593844D01*
X8059674Y4584700D01*
X8055102Y4571237D01*
X7810500Y4888737D02*
G01*
X7810500Y4793234D01*
X7922259Y4907026D02*
G01*
X7840472Y4761484D01*
X7979663Y4888737D02*
G01*
X7970520Y4884165D01*
X7961375Y4875276D01*
X7956804Y4866131D01*
X7952231Y4852415D01*
X7952231Y4829810D01*
X7956804Y4816094D01*
X7961375Y4806950D01*
X7970520Y4797805D01*
X7979663Y4793234D01*
X7997697Y4793234D01*
X8006841Y4797805D01*
X8015986Y4806950D01*
X8020558Y4816094D01*
X8025129Y4829810D01*
X8025129Y4852415D01*
X8020558Y4866131D01*
X8015986Y4875276D01*
X8006841Y4884165D01*
X7997697Y4888737D01*
X7979663Y4888737D01*
X8118602Y4888737D02*
G01*
X8073136Y4793234D01*
X8055102Y4888737D02*
G01*
X8118602Y4888737D01*
X5770372Y3837431D02*
G01*
X5766054Y3846576D01*
X5756909Y3855465D01*
X5747765Y3860037D01*
X5729477Y3860037D01*
X5720588Y3855465D01*
X5711443Y3846576D01*
X5706872Y3837431D01*
X5702300Y3823715D01*
X5702300Y3801110D01*
X5706872Y3787394D01*
X5711443Y3778250D01*
X5720588Y3769105D01*
X5729477Y3764534D01*
X5747765Y3764534D01*
X5756909Y3769105D01*
X5766054Y3778250D01*
X5770372Y3787394D01*
X5770372Y3801110D01*
X5747765Y3801110D02*
G01*
X5770372Y3801110D01*
X5800597Y3860037D02*
G01*
X5800597Y3764534D01*
X5800597Y3860037D02*
G01*
X5864097Y3764534D01*
X5864097Y3860037D02*
G01*
X5864097Y3764534D01*
X5894070Y3860037D02*
G01*
X5894070Y3764534D01*
X5894070Y3860037D02*
G01*
X5925820Y3860037D01*
X5939536Y3855465D01*
X5948679Y3846576D01*
X5953252Y3837431D01*
X5957824Y3823715D01*
X5957824Y3801110D01*
X5953252Y3787394D01*
X5948679Y3778250D01*
X5939536Y3769105D01*
X5925820Y3764534D01*
X5894070Y3764534D01*
X7785100Y7162037D02*
G01*
X7821422Y7066534D01*
X7857743Y7162037D02*
G01*
X7821422Y7066534D01*
X7956041Y7139431D02*
G01*
X7951470Y7148576D01*
X7942325Y7157465D01*
X7933181Y7162037D01*
X7915147Y7162037D01*
X7906004Y7157465D01*
X7896859Y7148576D01*
X7892288Y7139431D01*
X7887715Y7125715D01*
X7887715Y7103110D01*
X7892288Y7089394D01*
X7896859Y7080250D01*
X7906004Y7071105D01*
X7915147Y7066534D01*
X7933181Y7066534D01*
X7942325Y7071105D01*
X7951470Y7080250D01*
X7956041Y7089394D01*
X8054086Y7139431D02*
G01*
X8049768Y7148576D01*
X8040624Y7157465D01*
X8031479Y7162037D01*
X8013191Y7162037D01*
X8004302Y7157465D01*
X7995158Y7148576D01*
X7990586Y7139431D01*
X7986013Y7125715D01*
X7986013Y7103110D01*
X7990586Y7089394D01*
X7995158Y7080250D01*
X8004302Y7071105D01*
X8013191Y7066534D01*
X8031479Y7066534D01*
X8040624Y7071105D01*
X8049768Y7080250D01*
X8054086Y7089394D01*
X7785100Y6908037D02*
G01*
X7807706Y6812534D01*
X7830565Y6908037D02*
G01*
X7807706Y6812534D01*
X7830565Y6908037D02*
G01*
X7853172Y6812534D01*
X7876031Y6908037D02*
G01*
X7853172Y6812534D01*
X7906004Y6908037D02*
G01*
X7906004Y6812534D01*
X7906004Y6908037D02*
G01*
X7965186Y6908037D01*
X7906004Y6862571D02*
G01*
X7942325Y6862571D01*
X7906004Y6812534D02*
G01*
X7965186Y6812534D01*
X7812277Y5638037D02*
G01*
X7803388Y5633465D01*
X7794243Y5624576D01*
X7789672Y5615431D01*
X7785100Y5601715D01*
X7785100Y5579110D01*
X7789672Y5565394D01*
X7794243Y5556250D01*
X7803388Y5547105D01*
X7812277Y5542534D01*
X7830565Y5542534D01*
X7839709Y5547105D01*
X7848854Y5556250D01*
X7853172Y5565394D01*
X7857743Y5579110D01*
X7857743Y5601715D01*
X7853172Y5615431D01*
X7848854Y5624576D01*
X7839709Y5633465D01*
X7830565Y5638037D01*
X7812277Y5638037D01*
X7887715Y5638037D02*
G01*
X7887715Y5542534D01*
X7887715Y5638037D02*
G01*
X7946897Y5638037D01*
X7887715Y5592571D02*
G01*
X7924291Y5592571D01*
X7887715Y5542534D02*
G01*
X7946897Y5542534D01*
X7853172Y5107431D02*
G01*
X7848854Y5116576D01*
X7839709Y5125465D01*
X7830565Y5130037D01*
X7812277Y5130037D01*
X7803388Y5125465D01*
X7794243Y5116576D01*
X7789672Y5107431D01*
X7785100Y5093715D01*
X7785100Y5071110D01*
X7789672Y5057394D01*
X7794243Y5048250D01*
X7803388Y5039105D01*
X7812277Y5034534D01*
X7830565Y5034534D01*
X7839709Y5039105D01*
X7848854Y5048250D01*
X7853172Y5057394D01*
X7883397Y5130037D02*
G01*
X7883397Y5034534D01*
X7883397Y5130037D02*
G01*
X7942325Y5130037D01*
X7883397Y5084571D02*
G01*
X7919720Y5084571D01*
X7883397Y5034534D02*
G01*
X7942325Y5034534D01*
X6958329Y6074155D02*
G01*
X6767322Y6146800D01*
X6958329Y6074155D02*
G01*
X6767322Y6001257D01*
X6830822Y6119621D02*
G01*
X6830822Y6028689D01*
X6958329Y5877813D02*
G01*
X6767322Y5877813D01*
X6958329Y5941313D02*
G01*
X6958329Y5814060D01*
X6912863Y5744971D02*
G01*
X6921754Y5744971D01*
X6940041Y5735828D01*
X6949186Y5726684D01*
X6958329Y5708650D01*
X6958329Y5672328D01*
X6949186Y5654039D01*
X6940041Y5644895D01*
X6921754Y5636005D01*
X6903720Y5636005D01*
X6885431Y5644895D01*
X6858254Y5663184D01*
X6767322Y5754115D01*
X6767322Y5626862D01*
X6958329Y5521452D02*
G01*
X6949186Y5548629D01*
X6930897Y5557773D01*
X6912863Y5557773D01*
X6894575Y5548629D01*
X6885431Y5530342D01*
X6876288Y5494020D01*
X6867397Y5466842D01*
X6849109Y5448554D01*
X6830822Y5439410D01*
X6803643Y5439410D01*
X6785609Y5448554D01*
X6776465Y5457697D01*
X6767322Y5484876D01*
X6767322Y5521452D01*
X6776465Y5548629D01*
X6785609Y5557773D01*
X6803643Y5566918D01*
X6830822Y5566918D01*
X6849109Y5557773D01*
X6867397Y5539486D01*
X6876288Y5512307D01*
X6885431Y5475986D01*
X6894575Y5457697D01*
X6912863Y5448554D01*
X6930897Y5448554D01*
X6949186Y5457697D01*
X6958329Y5484876D01*
X6958329Y5521452D01*
X6912863Y5243068D02*
G01*
X6930897Y5252212D01*
X6949186Y5270500D01*
X6958329Y5288534D01*
X6958329Y5324855D01*
X6949186Y5343144D01*
X6930897Y5361431D01*
X6912863Y5370321D01*
X6885431Y5379465D01*
X6839965Y5379465D01*
X6812788Y5370321D01*
X6794500Y5361431D01*
X6776465Y5343144D01*
X6767322Y5324855D01*
X6767322Y5288534D01*
X6776465Y5270500D01*
X6794500Y5252212D01*
X6812788Y5243068D01*
X6912863Y5173979D02*
G01*
X6921754Y5173979D01*
X6940041Y5165089D01*
X6949186Y5155945D01*
X6958329Y5137657D01*
X6958329Y5101336D01*
X6949186Y5083047D01*
X6940041Y5074157D01*
X6921754Y5065013D01*
X6903720Y5065013D01*
X6885431Y5074157D01*
X6858254Y5092192D01*
X6767322Y5183123D01*
X6767322Y5055870D01*
X6958329Y4886705D02*
G01*
X6958329Y4977637D01*
X6876288Y4986781D01*
X6885431Y4977637D01*
X6894575Y4950460D01*
X6894575Y4923281D01*
X6885431Y4895850D01*
X6867397Y4877815D01*
X6839965Y4868671D01*
X6821931Y4868671D01*
X6794500Y4877815D01*
X6776465Y4895850D01*
X6767322Y4923281D01*
X6767322Y4950460D01*
X6776465Y4977637D01*
X6785609Y4986781D01*
X6803643Y4995926D01*
X6930897Y4699507D02*
G01*
X6949186Y4708652D01*
X6958329Y4735829D01*
X6958329Y4754118D01*
X6949186Y4781295D01*
X6921754Y4799584D01*
X6876288Y4808728D01*
X6830822Y4808728D01*
X6794500Y4799584D01*
X6776465Y4781295D01*
X6767322Y4754118D01*
X6767322Y4744973D01*
X6776465Y4717795D01*
X6794500Y4699507D01*
X6821931Y4690363D01*
X6830822Y4690363D01*
X6858254Y4699507D01*
X6876288Y4717795D01*
X6885431Y4744973D01*
X6885431Y4754118D01*
X6876288Y4781295D01*
X6858254Y4799584D01*
X6830822Y4808728D01*
D14*
X6807200Y7354315D02*
G01*
X6807200Y7276337D01*
X6812279Y7260844D01*
X6822693Y7250429D01*
X6838441Y7245350D01*
X6848856Y7245350D01*
X6864350Y7250429D01*
X6874763Y7260844D01*
X6879843Y7276337D01*
X6879843Y7354315D01*
X6966204Y7354315D02*
G01*
X6914134Y7281671D01*
X6992111Y7281671D01*
X6966204Y7354315D02*
G01*
X6966204Y7245350D01*
D10*
X5588000Y6591300D02*
G01*
X5588000Y4826000D01*
X5080000Y6858000D02*
G01*
X5080000Y5080000D01*
X4826000Y6858000D02*
G01*
X4826000Y5334000D01*
X8890000Y7620000D02*
G01*
X8890000Y6337300D01*
X9144000Y7620000D02*
G01*
X9144000Y6083300D01*
X9398000Y7620000D02*
G01*
X9398000Y5334000D01*
X1536700Y7099300D02*
G01*
X1282700Y7099300D01*
X1282700Y3543300D01*
X2298700Y3543300D01*
X2298700Y7099300D01*
X2044700Y7099300D01*
X7556500Y9169400D02*
G01*
X7556500Y9321800D01*
X6362700Y8521700D02*
G01*
X6362700Y8420100D01*
X7886700Y8420100D01*
X7886700Y8877300D01*
X6362700Y8877300D01*
X6362700Y8775700D01*
X4140200Y8128000D02*
G01*
X4140200Y7975600D01*
X5334000Y8775700D02*
G01*
X5334000Y8877300D01*
X3810000Y8877300D01*
X3810000Y8420100D01*
X5334000Y8420100D01*
X5334000Y8521700D01*
X7785100Y5168900D02*
G01*
X7937500Y5168900D01*
X7785100Y5676900D02*
G01*
X7950200Y5676900D01*
X7785100Y6946900D02*
G01*
X7962900Y6946900D01*
X6604000Y7112000D02*
G01*
X6362700Y7112000D01*
X6362700Y3797300D01*
X7366000Y3797300D01*
X7366000Y7112000D01*
X7112000Y7112000D01*
G75*
G01*
X1536700Y7099300D02*
G03*
X2044700Y7099300I254000J0D01*
G75*
G01*
X6362700Y8521700D02*
G03*
X6362700Y8775700I0J127000D01*
G75*
G01*
X5334000Y8775700D02*
G03*
X5334000Y8521700I0J-127000D01*
G75*
G01*
X6604000Y7112000D02*
G03*
X7112000Y7112000I254000J0D01*
X4679950Y6991350D02*
G01*
X4953000Y6991350D01*
X4953000Y5207000D01*
X4679950Y5207000D01*
X4679950Y6991350D01*
X4949545Y6988454D02*
G01*
X5207000Y6988454D01*
X5207000Y4965700D01*
X4949545Y4965700D01*
X4949545Y6988454D01*
X5461660Y6717639D02*
G01*
X5719114Y6717639D01*
X5719114Y4694885D01*
X5461660Y4694885D01*
X5461660Y6717639D01*
X8763000Y7747000D02*
G01*
X9017000Y7747000D01*
X9017000Y6197600D01*
X8763000Y6197600D01*
X8763000Y7747000D01*
X9004300Y7747000D02*
G01*
X9271000Y7747000D01*
X9271000Y5956300D01*
X9004300Y5956300D01*
X9004300Y7747000D01*
X9271000Y7747000D02*
G01*
X9512300Y7747000D01*
X9512300Y5219700D01*
X9271000Y5219700D01*
X9271000Y7747000D01*
X520700Y10198100D02*
G01*
X3429000Y10198100D01*
X3429000Y7543800D01*
X520700Y7543800D01*
X520700Y10198100D01*
M02*
